{"glyphs":{"0":{"ha":833,"x_min":69,"x_max":803,"o":"m 353 -14 q 190 24 256 -14 q 97 129 125 61 q 83 288 69 197 l 153 726 q 217 885 168 818 q 343 990 265 953 q 518 1028 421 1028 q 682 990 617 1028 q 775 885 747 953 q 788 726 803 818 l 718 288 q 654 129 704 197 q 527 24 604 61 q 353 -14 450 -14 m 376 125 q 502 170 451 125 q 565 288 553 215 l 635 726 q 610 844 647 799 q 496 889 572 889 q 369 844 421 889 q 306 726 318 799 l 236 288 q 263 170 224 215 q 376 125 301 125 m 435 419 q 370 444 394 419 q 346 511 346 469 q 370 576 346 551 q 435 600 394 600 q 500 576 475 600 q 525 511 525 551 q 500 444 525 469 q 435 419 475 419 z "},"1":{"ha":833,"x_min":58,"x_max":724,"o":"m 58 0 l 81 143 l 347 143 l 463 872 l 163 672 l 190 844 l 450 1014 l 647 1014 l 508 143 l 724 143 l 701 0 l 58 0 z "},"2":{"ha":833,"x_min":53,"x_max":796,"o":"m 53 0 l 78 158 l 444 479 q 567 609 525 551 q 618 725 608 667 q 597 841 631 799 q 493 883 563 883 q 365 839 415 883 q 300 717 314 794 l 139 717 q 208 882 156 813 q 339 990 260 951 q 517 1028 418 1028 q 675 992 611 1028 q 767 890 739 956 q 782 736 796 825 q 705 552 767 643 q 524 361 643 461 l 269 146 l 703 146 l 679 0 l 53 0 z "},"3":{"ha":833,"x_min":56,"x_max":790,"o":"m 342 -14 q 178 22 244 -14 q 84 124 113 58 q 69 278 56 190 l 232 278 q 255 165 219 206 q 365 125 290 125 q 490 167 442 125 q 549 278 538 208 l 560 356 q 536 468 571 428 q 426 508 501 508 l 315 508 l 339 657 l 600 874 l 208 874 l 231 1014 l 790 1014 l 767 865 l 442 599 l 450 649 q 669 569 596 649 q 722 356 742 490 l 710 278 q 647 124 697 190 q 518 22 597 58 q 342 -14 439 -14 z "},"4":{"ha":833,"x_min":67,"x_max":769,"o":"m 488 0 l 519 206 l 67 206 l 106 444 l 588 1014 l 769 1014 l 254 403 l 246 350 l 542 350 l 581 583 l 742 583 l 649 0 l 488 0 z "},"5":{"ha":833,"x_min":71,"x_max":794,"o":"m 350 -14 q 143 55 215 -14 q 79 240 71 124 l 242 240 q 272 158 238 188 q 375 128 307 128 q 495 168 450 128 q 553 281 540 208 l 568 379 q 547 492 579 453 q 439 532 515 532 q 355 511 393 532 q 294 456 317 490 l 136 456 l 232 1014 l 794 1014 l 771 868 l 363 868 l 310 563 l 350 563 l 304 526 q 372 629 315 592 q 514 667 428 667 q 694 591 638 667 q 731 379 751 515 l 714 281 q 596 65 692 144 q 350 -14 500 -14 z "},"6":{"ha":833,"x_min":54,"x_max":757,"o":"m 354 -14 q 183 28 253 -14 q 84 147 114 71 q 71 324 54 222 q 118 474 82 396 q 208 621 154 551 l 514 1014 l 693 1014 l 326 544 l 333 539 q 416 603 368 582 q 522 625 464 625 q 658 586 604 625 q 735 478 713 547 q 742 313 757 408 q 673 142 726 215 q 538 27 619 68 q 354 -14 456 -14 m 375 125 q 512 176 454 125 q 582 313 569 228 q 555 449 596 397 q 435 500 514 500 q 299 449 356 500 q 228 313 242 397 q 256 176 215 228 q 375 125 296 125 z "},"7":{"ha":833,"x_min":143,"x_max":853,"o":"m 164 0 l 664 864 l 328 864 l 304 717 l 143 717 l 190 1014 l 853 1014 l 828 860 l 340 0 l 164 0 z "},"8":{"ha":833,"x_min":54,"x_max":793,"o":"m 353 -14 q 129 61 204 -14 q 74 261 54 136 q 150 418 89 353 q 322 531 211 483 l 483 599 q 576 666 539 624 q 621 760 613 708 q 597 854 631 819 q 496 889 564 889 q 384 853 429 889 q 331 758 339 818 q 345 667 322 708 q 415 600 368 625 l 556 532 q 696 416 657 482 q 719 261 735 350 q 657 115 707 176 q 530 19 607 53 q 353 -14 453 -14 m 375 125 q 501 165 450 125 q 561 269 551 206 q 547 366 569 321 q 475 436 524 411 l 329 510 q 198 619 238 557 q 172 767 158 681 q 231 903 185 844 q 351 996 276 963 q 518 1029 425 1029 q 674 996 611 1029 q 765 903 738 963 q 781 767 793 844 q 708 618 767 679 q 542 508 650 557 l 372 435 q 280 367 317 411 q 235 272 243 322 q 262 165 224 206 q 375 125 300 125 z "},"9":{"ha":833,"x_min":115,"x_max":817,"o":"m 179 0 l 550 469 l 543 475 q 459 411 510 433 q 350 389 408 389 q 215 428 269 389 q 138 537 160 467 q 131 701 115 607 q 199 873 146 800 q 334 987 251 946 q 517 1028 417 1028 q 688 985 619 1028 q 787 868 757 943 q 801 690 817 793 q 754 540 790 618 q 664 393 718 463 l 358 0 l 179 0 m 438 514 q 574 565 517 514 q 643 701 631 617 q 617 838 657 786 q 496 889 576 889 q 360 838 417 889 q 290 701 303 786 q 317 565 276 617 q 438 514 357 514 z "},"A":{"ha":833,"x_min":-7,"x_max":718,"o":"m -7 0 l 411 1014 l 622 1014 l 718 0 l 558 0 l 540 251 l 261 251 l 163 0 l -7 0 m 313 385 l 531 385 l 510 667 q 502 796 506 739 q 497 875 499 853 q 471 797 490 853 q 424 668 451 740 l 313 385 z "},"Á":{"ha":833,"x_min":-7,"x_max":789,"o":"m -7 0 l 411 1014 l 622 1014 l 718 0 l 558 0 l 540 251 l 261 251 l 163 0 l -7 0 m 313 385 l 531 385 l 510 667 q 502 796 506 739 q 497 875 499 853 q 471 797 490 853 q 424 668 451 740 l 313 385 m 431 1125 l 607 1319 l 789 1319 l 600 1125 l 431 1125 z "},"Ă":{"ha":833,"x_min":-7,"x_max":801,"o":"m -7 0 l 411 1014 l 622 1014 l 718 0 l 558 0 l 540 251 l 261 251 l 163 0 l -7 0 m 313 385 l 531 385 l 510 667 q 502 796 506 739 q 497 875 499 853 q 471 797 490 853 q 424 668 451 740 l 313 385 m 532 1115 q 369 1172 426 1115 q 326 1319 313 1228 l 450 1319 q 469 1243 443 1272 q 544 1214 494 1214 q 631 1243 596 1214 q 674 1319 667 1272 l 801 1319 q 713 1172 788 1228 q 532 1115 639 1115 z "},"Ắ":{"ha":833,"x_min":-7,"x_max":807,"o":"m -7 0 l 411 1014 l 622 1014 l 718 0 l 558 0 l 540 251 l 261 251 l 163 0 l -7 0 m 313 385 l 531 385 l 510 667 q 502 796 506 739 q 497 875 499 853 q 471 797 490 853 q 424 668 451 740 l 313 385 m 458 1253 l 631 1417 l 792 1417 l 610 1253 l 458 1253 m 486 1083 q 341 1133 390 1083 q 306 1267 292 1182 l 418 1267 q 433 1203 411 1226 q 500 1179 456 1179 l 582 1179 q 658 1203 628 1179 q 694 1267 688 1226 l 807 1267 q 729 1133 793 1182 q 568 1083 665 1083 l 486 1083 z "},"Ặ":{"ha":833,"x_min":-7,"x_max":801,"o":"m 532 1115 q 369 1172 426 1115 q 326 1319 313 1228 l 450 1319 q 469 1243 443 1272 q 544 1214 494 1214 q 631 1243 596 1214 q 674 1319 667 1272 l 801 1319 q 713 1172 788 1228 q 532 1115 639 1115 m -7 0 l 411 1014 l 622 1014 l 718 0 l 558 0 l 540 251 l 261 251 l 163 0 l -7 0 m 313 385 l 531 385 l 510 667 q 502 796 506 739 q 497 875 499 853 q 471 797 490 853 q 424 668 451 740 l 313 385 m 321 -308 q 244 -282 269 -308 q 225 -211 219 -256 q 267 -140 233 -167 q 351 -112 301 -112 q 428 -140 403 -112 q 446 -211 453 -167 q 405 -282 439 -256 q 321 -308 371 -308 z "},"Ằ":{"ha":833,"x_min":-7,"x_max":807,"o":"m -7 0 l 411 1014 l 622 1014 l 718 0 l 558 0 l 540 251 l 261 251 l 163 0 l -7 0 m 313 385 l 531 385 l 510 667 q 502 796 506 739 q 497 875 499 853 q 471 797 490 853 q 424 668 451 740 l 313 385 m 486 1083 q 341 1133 390 1083 q 306 1267 292 1182 l 418 1267 q 433 1203 411 1226 q 500 1179 456 1179 l 582 1179 q 658 1203 628 1179 q 694 1267 688 1226 l 807 1267 q 729 1133 793 1182 q 568 1083 665 1083 l 486 1083 m 510 1253 l 400 1417 l 542 1417 l 640 1253 l 510 1253 z "},"Ẳ":{"ha":833,"x_min":-7,"x_max":807,"o":"m -7 0 l 411 1014 l 622 1014 l 718 0 l 558 0 l 540 251 l 261 251 l 163 0 l -7 0 m 313 385 l 531 385 l 510 667 q 502 796 506 739 q 497 875 499 853 q 471 797 490 853 q 424 668 451 740 l 313 385 m 479 1228 l 540 1290 q 551 1303 547 1297 q 557 1314 556 1308 q 542 1326 560 1326 l 446 1326 l 461 1417 l 597 1417 q 665 1397 643 1417 q 679 1339 686 1376 q 667 1300 676 1318 q 643 1267 657 1282 l 608 1228 l 479 1228 m 486 1083 q 341 1133 390 1083 q 306 1267 292 1182 l 418 1267 q 433 1203 411 1226 q 500 1179 456 1179 l 582 1179 q 658 1203 628 1179 q 694 1267 688 1226 l 807 1267 q 729 1133 793 1182 q 568 1083 665 1083 l 486 1083 z "},"Ẵ":{"ha":833,"x_min":-7,"x_max":817,"o":"m -7 0 l 411 1014 l 622 1014 l 718 0 l 558 0 l 540 251 l 261 251 l 163 0 l -7 0 m 313 385 l 531 385 l 510 667 q 502 796 506 739 q 497 875 499 853 q 471 797 490 853 q 424 668 451 740 l 313 385 m 482 1083 q 347 1124 393 1083 q 314 1244 301 1165 l 428 1244 q 440 1195 422 1211 q 493 1179 458 1179 l 592 1179 q 650 1195 626 1179 q 679 1244 674 1211 l 792 1244 q 721 1124 779 1165 q 574 1083 663 1083 l 482 1083 m 665 1272 q 600 1281 626 1272 q 553 1301 574 1289 q 514 1321 533 1313 q 469 1329 494 1329 q 424 1290 431 1329 l 422 1282 l 319 1282 l 321 1290 q 372 1383 331 1349 q 474 1417 414 1417 q 539 1408 513 1417 q 585 1388 565 1399 q 624 1367 606 1376 q 668 1358 643 1358 q 698 1369 686 1358 q 713 1397 710 1381 l 714 1406 l 817 1406 l 815 1397 q 766 1306 806 1340 q 665 1272 726 1272 z "},"Ǎ":{"ha":833,"x_min":-7,"x_max":831,"o":"m -7 0 l 411 1014 l 622 1014 l 718 0 l 558 0 l 540 251 l 261 251 l 163 0 l -7 0 m 313 385 l 531 385 l 510 667 q 502 796 506 739 q 497 875 499 853 q 471 797 490 853 q 424 668 451 740 l 313 385 m 458 1125 l 297 1319 l 454 1319 l 546 1217 l 665 1319 l 831 1319 l 608 1125 l 458 1125 z "},"Â":{"ha":833,"x_min":-7,"x_max":800,"o":"m -7 0 l 411 1014 l 622 1014 l 718 0 l 558 0 l 540 251 l 261 251 l 163 0 l -7 0 m 313 385 l 531 385 l 510 667 q 502 796 506 739 q 497 875 499 853 q 471 797 490 853 q 424 668 451 740 l 313 385 m 267 1125 l 489 1319 l 639 1319 l 800 1125 l 643 1125 l 553 1228 l 432 1125 l 267 1125 z "},"Ấ":{"ha":833,"x_min":-7,"x_max":1056,"o":"m 708 1253 l 881 1417 l 1056 1417 l 874 1253 l 708 1253 m 263 1083 l 483 1278 l 633 1278 l 794 1083 l 638 1083 l 549 1186 l 428 1083 l 263 1083 m -7 0 l 411 1014 l 622 1014 l 718 0 l 558 0 l 540 251 l 261 251 l 163 0 l -7 0 m 313 385 l 531 385 l 510 667 q 502 796 506 739 q 497 875 499 853 q 471 797 490 853 q 424 668 451 740 l 313 385 z "},"Ậ":{"ha":833,"x_min":-7,"x_max":800,"o":"m 267 1125 l 489 1319 l 639 1319 l 800 1125 l 643 1125 l 553 1228 l 432 1125 l 267 1125 m -7 0 l 411 1014 l 622 1014 l 718 0 l 558 0 l 540 251 l 261 251 l 163 0 l -7 0 m 313 385 l 531 385 l 510 667 q 502 796 506 739 q 497 875 499 853 q 471 797 490 853 q 424 668 451 740 l 313 385 m 321 -308 q 244 -282 269 -308 q 225 -211 219 -256 q 267 -140 233 -167 q 351 -112 301 -112 q 428 -140 403 -112 q 446 -211 453 -167 q 405 -282 439 -256 q 321 -308 371 -308 z "},"Ầ":{"ha":833,"x_min":-7,"x_max":914,"o":"m -7 0 l 411 1014 l 622 1014 l 718 0 l 558 0 l 540 251 l 261 251 l 163 0 l -7 0 m 313 385 l 531 385 l 510 667 q 502 796 506 739 q 497 875 499 853 q 471 797 490 853 q 424 668 451 740 l 313 385 m 765 1253 l 628 1417 l 788 1417 l 914 1253 l 765 1253 m 263 1083 l 483 1278 l 633 1278 l 794 1083 l 638 1083 l 549 1186 l 428 1083 l 263 1083 z "},"Ẩ":{"ha":833,"x_min":-7,"x_max":944,"o":"m 721 1217 l 789 1274 q 803 1289 799 1282 q 808 1303 807 1296 q 785 1325 811 1325 l 694 1325 l 710 1417 l 833 1417 q 916 1390 888 1417 q 938 1318 944 1364 q 924 1283 935 1300 q 899 1253 914 1265 l 856 1217 l 721 1217 m 263 1083 l 483 1278 l 633 1278 l 794 1083 l 638 1083 l 549 1186 l 428 1083 l 263 1083 m -7 0 l 411 1014 l 622 1014 l 718 0 l 558 0 l 540 251 l 261 251 l 163 0 l -7 0 m 313 385 l 531 385 l 510 667 q 502 796 506 739 q 497 875 499 853 q 471 797 490 853 q 424 668 451 740 l 313 385 z "},"Ẫ":{"ha":833,"x_min":-7,"x_max":817,"o":"m -7 0 l 411 1014 l 622 1014 l 718 0 l 558 0 l 540 251 l 261 251 l 163 0 l -7 0 m 313 385 l 531 385 l 510 667 q 502 796 506 739 q 497 875 499 853 q 471 797 490 853 q 424 668 451 740 l 313 385 m 665 1272 q 600 1281 626 1272 q 553 1301 574 1289 q 514 1321 533 1313 q 469 1329 494 1329 q 424 1290 431 1329 l 422 1282 l 319 1282 l 321 1290 q 372 1383 331 1349 q 474 1417 414 1417 q 539 1408 513 1417 q 585 1388 565 1399 q 624 1367 606 1376 q 668 1358 643 1358 q 698 1369 686 1358 q 713 1397 710 1381 l 714 1406 l 817 1406 l 815 1397 q 766 1306 806 1340 q 665 1272 726 1272 m 263 1083 l 433 1232 l 668 1232 l 793 1083 l 633 1083 l 546 1186 l 425 1083 l 263 1083 z "},"Ä":{"ha":833,"x_min":-7,"x_max":815,"o":"m -7 0 l 411 1014 l 622 1014 l 718 0 l 558 0 l 540 251 l 261 251 l 163 0 l -7 0 m 313 385 l 531 385 l 510 667 q 502 796 506 739 q 497 875 499 853 q 471 797 490 853 q 424 668 451 740 l 313 385 m 694 1125 q 626 1151 649 1125 q 611 1222 604 1178 q 649 1294 618 1268 q 726 1321 681 1321 q 793 1294 771 1321 q 808 1222 815 1268 q 772 1151 803 1178 q 694 1125 740 1125 m 372 1125 q 306 1151 328 1125 q 289 1222 283 1178 q 328 1294 297 1268 q 404 1321 358 1321 q 472 1294 450 1321 q 486 1222 494 1268 q 449 1151 481 1178 q 372 1125 418 1125 z "},"Ạ":{"ha":833,"x_min":-7,"x_max":718,"o":"m -7 0 l 411 1014 l 622 1014 l 718 0 l 558 0 l 540 251 l 261 251 l 163 0 l -7 0 m 313 385 l 531 385 l 510 667 q 502 796 506 739 q 497 875 499 853 q 471 797 490 853 q 424 668 451 740 l 313 385 m 321 -308 q 244 -282 269 -308 q 225 -211 219 -256 q 267 -140 233 -167 q 351 -112 301 -112 q 428 -140 403 -112 q 446 -211 453 -167 q 405 -282 439 -256 q 321 -308 371 -308 z "},"À":{"ha":833,"x_min":-7,"x_max":718,"o":"m -7 0 l 411 1014 l 622 1014 l 718 0 l 558 0 l 540 251 l 261 251 l 163 0 l -7 0 m 313 385 l 531 385 l 510 667 q 502 796 506 739 q 497 875 499 853 q 471 797 490 853 q 424 668 451 740 l 313 385 m 474 1125 l 343 1319 l 514 1319 l 632 1125 l 474 1125 z "},"Ả":{"ha":833,"x_min":-7,"x_max":718,"o":"m -7 0 l 411 1014 l 622 1014 l 718 0 l 558 0 l 540 251 l 261 251 l 163 0 l -7 0 m 313 385 l 531 385 l 510 667 q 502 796 506 739 q 497 875 499 853 q 471 797 490 853 q 424 668 451 740 l 313 385 m 444 1132 l 526 1217 q 546 1240 539 1229 q 554 1258 553 1250 q 519 1285 558 1285 l 414 1285 l 431 1388 l 576 1388 q 666 1358 635 1388 q 689 1278 697 1328 q 676 1235 686 1256 q 650 1199 665 1214 l 586 1132 l 444 1132 z "},"Ā":{"ha":833,"x_min":-7,"x_max":793,"o":"m -7 0 l 411 1014 l 622 1014 l 718 0 l 558 0 l 540 251 l 261 251 l 163 0 l -7 0 m 313 385 l 531 385 l 510 667 q 502 796 506 739 q 497 875 499 853 q 471 797 490 853 q 424 668 451 740 l 313 385 m 304 1154 l 324 1281 l 793 1281 l 774 1154 l 304 1154 z "},"Ą":{"ha":833,"x_min":-7,"x_max":718,"o":"m 569 -296 q 449 -256 490 -296 q 418 -156 407 -217 q 465 -69 425 -112 q 578 14 504 -25 l 689 14 l 657 -10 q 591 -71 614 -43 q 564 -124 568 -99 q 576 -167 561 -149 q 625 -185 592 -185 l 714 -185 l 696 -296 l 569 -296 m -7 0 l 411 1014 l 622 1014 l 718 0 l 558 0 l 540 251 l 261 251 l 163 0 l -7 0 m 313 385 l 531 385 l 510 667 q 502 796 506 739 q 497 875 499 853 q 471 797 490 853 q 424 668 451 740 l 313 385 z "},"Å":{"ha":833,"x_min":-7,"x_max":739,"o":"m -7 0 l 411 1014 l 622 1014 l 718 0 l 558 0 l 540 251 l 261 251 l 163 0 l -7 0 m 313 385 l 531 385 l 510 667 q 502 796 506 739 q 497 875 499 853 q 471 797 490 853 q 424 668 451 740 l 313 385 m 522 1056 q 400 1101 442 1056 q 369 1222 358 1147 q 438 1343 382 1297 q 575 1389 494 1389 q 697 1343 656 1389 q 728 1222 739 1297 q 660 1101 717 1147 q 522 1056 603 1056 m 536 1140 q 600 1163 574 1140 q 632 1222 626 1185 q 619 1283 639 1260 q 563 1306 600 1306 q 499 1283 525 1306 q 465 1222 472 1260 q 479 1163 460 1185 q 536 1140 499 1140 z "},"Ã":{"ha":833,"x_min":-7,"x_max":799,"o":"m -7 0 l 411 1014 l 622 1014 l 718 0 l 558 0 l 540 251 l 261 251 l 163 0 l -7 0 m 313 385 l 531 385 l 510 667 q 502 796 506 739 q 497 875 499 853 q 471 797 490 853 q 424 668 451 740 l 313 385 m 631 1122 q 563 1136 588 1122 q 524 1168 539 1150 q 494 1200 508 1186 q 457 1214 479 1214 q 425 1201 439 1214 q 408 1167 411 1189 l 403 1129 l 300 1129 l 307 1175 q 363 1282 318 1242 q 468 1322 407 1322 q 535 1308 511 1322 q 575 1276 560 1294 q 605 1244 590 1258 q 642 1231 619 1231 q 674 1242 661 1231 q 689 1275 686 1253 l 696 1315 l 799 1315 l 792 1269 q 737 1163 781 1203 q 631 1122 693 1122 z "},"Æ":{"ha":833,"x_min":-37,"x_max":897,"o":"m -37 0 l 319 1014 l 897 1014 l 875 874 l 633 874 l 589 593 l 796 593 l 774 449 l 567 449 l 517 140 l 760 140 l 736 0 l 351 0 l 392 258 l 208 258 l 121 0 l -37 0 m 249 381 l 413 381 l 490 874 l 417 874 l 249 381 z "},"Ǽ":{"ha":833,"x_min":-37,"x_max":897,"o":"m -37 0 l 319 1014 l 897 1014 l 875 874 l 633 874 l 589 593 l 796 593 l 774 449 l 567 449 l 517 140 l 760 140 l 736 0 l 351 0 l 392 258 l 208 258 l 121 0 l -37 0 m 249 381 l 413 381 l 490 874 l 417 874 l 249 381 m 438 1125 l 614 1319 l 796 1319 l 607 1125 l 438 1125 z "},"B":{"ha":833,"x_min":51,"x_max":810,"o":"m 51 0 l 213 1014 l 517 1014 q 736 944 663 1014 q 790 753 810 875 q 741 634 779 685 q 646 556 703 583 q 519 528 589 528 l 521 538 q 649 510 596 539 q 727 424 703 481 q 739 288 751 367 q 676 135 725 200 q 549 35 626 69 q 374 0 472 0 l 51 0 m 231 138 l 383 138 q 515 179 463 138 q 579 294 567 221 q 552 415 590 369 q 435 460 514 460 l 282 460 l 231 138 m 303 593 l 447 593 q 567 631 519 593 q 625 735 614 669 q 601 839 636 801 q 493 876 565 876 l 347 876 l 303 593 z "},"C":{"ha":833,"x_min":75,"x_max":807,"o":"m 358 -14 q 197 22 263 -14 q 103 126 131 58 q 89 283 75 193 l 160 731 q 224 889 175 822 q 351 992 274 956 q 524 1028 428 1028 q 685 991 621 1028 q 778 888 749 954 q 792 731 807 821 l 631 731 q 609 845 643 806 q 501 885 575 885 q 381 845 428 885 q 321 731 333 806 l 251 283 q 274 169 239 210 q 382 129 308 129 q 501 169 454 129 q 560 283 547 210 l 722 283 q 658 127 708 194 q 532 23 608 60 q 358 -14 456 -14 z "},"Ć":{"ha":833,"x_min":75,"x_max":807,"o":"m 358 -14 q 197 22 263 -14 q 103 126 131 58 q 89 283 75 193 l 160 731 q 224 889 175 822 q 351 992 274 956 q 524 1028 428 1028 q 685 991 621 1028 q 778 888 749 954 q 792 731 807 821 l 631 731 q 609 845 643 806 q 501 885 575 885 q 381 845 428 885 q 321 731 333 806 l 251 283 q 274 169 239 210 q 382 129 308 129 q 501 169 454 129 q 560 283 547 210 l 722 283 q 658 127 708 194 q 532 23 608 60 q 358 -14 456 -14 m 438 1125 l 614 1319 l 796 1319 l 607 1125 l 438 1125 z "},"Č":{"ha":833,"x_min":75,"x_max":838,"o":"m 358 -14 q 197 22 263 -14 q 103 126 131 58 q 89 283 75 193 l 160 731 q 224 889 175 822 q 351 992 274 956 q 524 1028 428 1028 q 685 991 621 1028 q 778 888 749 954 q 792 731 807 821 l 631 731 q 609 845 643 806 q 501 885 575 885 q 381 845 428 885 q 321 731 333 806 l 251 283 q 274 169 239 210 q 382 129 308 129 q 501 169 454 129 q 560 283 547 210 l 722 283 q 658 127 708 194 q 532 23 608 60 q 358 -14 456 -14 m 465 1125 l 304 1319 l 461 1319 l 553 1217 l 672 1319 l 838 1319 l 615 1125 l 465 1125 z "},"Ç":{"ha":833,"x_min":75,"x_max":807,"o":"m 178 -296 l 192 -210 l 294 -210 q 349 -194 326 -210 q 374 -160 372 -178 q 342 -114 379 -132 q 232 -96 304 -96 l 300 31 l 389 31 l 349 -51 q 427 -69 388 -54 q 491 -110 467 -83 q 510 -175 515 -136 q 447 -260 501 -224 q 311 -296 392 -296 l 178 -296 m 358 -14 q 197 22 263 -14 q 103 126 131 58 q 89 283 75 193 l 160 731 q 224 889 175 822 q 351 992 274 956 q 524 1028 428 1028 q 685 991 621 1028 q 778 888 749 954 q 792 731 807 821 l 631 731 q 609 845 643 806 q 501 885 575 885 q 381 845 428 885 q 321 731 333 806 l 251 283 q 274 169 239 210 q 382 129 308 129 q 501 169 454 129 q 560 283 547 210 l 722 283 q 658 127 708 194 q 532 23 608 60 q 358 -14 456 -14 z "},"Ĉ":{"ha":833,"x_min":75,"x_max":807,"o":"m 358 -14 q 197 22 263 -14 q 103 126 131 58 q 89 283 75 193 l 160 731 q 224 889 175 822 q 351 992 274 956 q 524 1028 428 1028 q 685 991 621 1028 q 778 888 749 954 q 792 731 807 821 l 631 731 q 609 845 643 806 q 501 885 575 885 q 381 845 428 885 q 321 731 333 806 l 251 283 q 274 169 239 210 q 382 129 308 129 q 501 169 454 129 q 560 283 547 210 l 722 283 q 658 127 708 194 q 532 23 608 60 q 358 -14 456 -14 m 274 1125 l 496 1319 l 646 1319 l 807 1125 l 650 1125 l 560 1228 l 439 1125 l 274 1125 z "},"Ċ":{"ha":833,"x_min":75,"x_max":807,"o":"m 358 -14 q 197 22 263 -14 q 103 126 131 58 q 89 283 75 193 l 160 731 q 224 889 175 822 q 351 992 274 956 q 524 1028 428 1028 q 685 991 621 1028 q 778 888 749 954 q 792 731 807 821 l 631 731 q 609 845 643 806 q 501 885 575 885 q 381 845 428 885 q 321 731 333 806 l 251 283 q 274 169 239 210 q 382 129 308 129 q 501 169 454 129 q 560 283 547 210 l 722 283 q 658 127 708 194 q 532 23 608 60 q 358 -14 456 -14 m 540 1125 q 465 1151 490 1125 q 446 1222 439 1178 q 487 1293 453 1267 q 572 1319 521 1319 q 648 1293 622 1319 q 665 1222 674 1267 q 626 1151 660 1178 q 540 1125 592 1125 z "},"D":{"ha":833,"x_min":49,"x_max":801,"o":"m 49 0 l 210 1014 l 501 1014 q 673 975 604 1014 q 772 866 742 936 q 786 700 801 796 l 725 315 q 657 149 710 219 q 524 39 604 78 q 340 0 443 0 l 49 0 m 235 149 l 364 149 q 497 193 444 149 q 563 315 550 238 l 624 700 q 597 821 636 776 q 478 865 557 865 l 347 865 l 235 149 z "},"Ð":{"ha":833,"x_min":14,"x_max":801,"o":"m 14 460 l 14 575 l 403 575 l 403 460 l 14 460 m 49 0 l 210 1014 l 501 1014 q 673 975 604 1014 q 772 866 742 936 q 786 700 801 796 l 725 315 q 657 149 710 219 q 524 39 604 78 q 340 0 443 0 l 49 0 m 235 149 l 364 149 q 497 193 444 149 q 563 315 550 238 l 624 700 q 597 821 636 776 q 478 865 557 865 l 347 865 l 235 149 z "},"Ď":{"ha":833,"x_min":49,"x_max":831,"o":"m 49 0 l 210 1014 l 501 1014 q 673 975 604 1014 q 772 866 742 936 q 786 700 801 796 l 725 315 q 657 149 710 219 q 524 39 604 78 q 340 0 443 0 l 49 0 m 235 149 l 364 149 q 497 193 444 149 q 563 315 550 238 l 624 700 q 597 821 636 776 q 478 865 557 865 l 347 865 l 235 149 m 458 1125 l 297 1319 l 454 1319 l 546 1217 l 665 1319 l 831 1319 l 608 1125 l 458 1125 z "},"Đ":{"ha":833,"x_min":14,"x_max":801,"o":"m 14 460 l 14 575 l 403 575 l 403 460 l 14 460 m 49 0 l 210 1014 l 501 1014 q 673 975 604 1014 q 772 866 742 936 q 786 700 801 796 l 725 315 q 657 149 710 219 q 524 39 604 78 q 340 0 443 0 l 49 0 m 235 149 l 364 149 q 497 193 444 149 q 563 315 550 238 l 624 700 q 597 821 636 776 q 478 865 557 865 l 347 865 l 235 149 z "},"E":{"ha":833,"x_min":65,"x_max":828,"o":"m 65 0 l 226 1014 l 828 1014 l 806 872 l 363 872 l 319 596 l 713 596 l 690 454 l 297 454 l 247 142 l 690 142 l 667 0 l 65 0 z "},"É":{"ha":833,"x_min":65,"x_max":828,"o":"m 65 0 l 226 1014 l 828 1014 l 806 872 l 363 872 l 319 596 l 713 596 l 690 454 l 297 454 l 247 142 l 690 142 l 667 0 l 65 0 m 458 1125 l 635 1319 l 817 1319 l 628 1125 l 458 1125 z "},"Ĕ":{"ha":833,"x_min":65,"x_max":829,"o":"m 65 0 l 226 1014 l 828 1014 l 806 872 l 363 872 l 319 596 l 713 596 l 690 454 l 297 454 l 247 142 l 690 142 l 667 0 l 65 0 m 560 1115 q 397 1172 454 1115 q 354 1319 340 1228 l 478 1319 q 497 1243 471 1272 q 572 1214 522 1214 q 659 1243 624 1214 q 701 1319 694 1272 l 829 1319 q 741 1172 815 1228 q 560 1115 667 1115 z "},"Ě":{"ha":833,"x_min":65,"x_max":858,"o":"m 65 0 l 226 1014 l 828 1014 l 806 872 l 363 872 l 319 596 l 713 596 l 690 454 l 297 454 l 247 142 l 690 142 l 667 0 l 65 0 m 486 1125 l 325 1319 l 482 1319 l 574 1217 l 693 1319 l 858 1319 l 636 1125 l 486 1125 z "},"Ê":{"ha":833,"x_min":65,"x_max":828,"o":"m 65 0 l 226 1014 l 828 1014 l 806 872 l 363 872 l 319 596 l 713 596 l 690 454 l 297 454 l 247 142 l 690 142 l 667 0 l 65 0 m 294 1125 l 517 1319 l 667 1319 l 828 1125 l 671 1125 l 581 1228 l 460 1125 l 294 1125 z "},"Ế":{"ha":833,"x_min":65,"x_max":1056,"o":"m 65 0 l 226 1014 l 828 1014 l 806 872 l 363 872 l 319 596 l 713 596 l 690 454 l 297 454 l 247 142 l 690 142 l 667 0 l 65 0 m 708 1253 l 881 1417 l 1056 1417 l 874 1253 l 708 1253 m 263 1083 l 483 1278 l 633 1278 l 794 1083 l 638 1083 l 549 1186 l 428 1083 l 263 1083 z "},"Ệ":{"ha":833,"x_min":65,"x_max":828,"o":"m 267 1125 l 489 1319 l 639 1319 l 800 1125 l 643 1125 l 553 1228 l 432 1125 l 267 1125 m 65 0 l 226 1014 l 828 1014 l 806 872 l 363 872 l 319 596 l 713 596 l 690 454 l 297 454 l 247 142 l 690 142 l 667 0 l 65 0 m 335 -308 q 258 -282 283 -308 q 239 -211 233 -256 q 281 -140 247 -167 q 365 -112 315 -112 q 442 -140 417 -112 q 460 -211 467 -167 q 419 -282 453 -256 q 335 -308 385 -308 z "},"Ề":{"ha":833,"x_min":65,"x_max":914,"o":"m 65 0 l 226 1014 l 828 1014 l 806 872 l 363 872 l 319 596 l 713 596 l 690 454 l 297 454 l 247 142 l 690 142 l 667 0 l 65 0 m 765 1253 l 628 1417 l 788 1417 l 914 1253 l 765 1253 m 263 1083 l 483 1278 l 633 1278 l 794 1083 l 638 1083 l 549 1186 l 428 1083 l 263 1083 z "},"Ể":{"ha":833,"x_min":65,"x_max":944,"o":"m 65 0 l 226 1014 l 828 1014 l 806 872 l 363 872 l 319 596 l 713 596 l 690 454 l 297 454 l 247 142 l 690 142 l 667 0 l 65 0 m 721 1217 l 789 1274 q 803 1289 799 1282 q 808 1303 807 1296 q 785 1325 811 1325 l 694 1325 l 710 1417 l 833 1417 q 916 1390 888 1417 q 938 1318 944 1364 q 924 1283 935 1300 q 899 1253 914 1265 l 856 1217 l 721 1217 m 263 1083 l 483 1278 l 633 1278 l 794 1083 l 638 1083 l 549 1186 l 428 1083 l 263 1083 z "},"Ễ":{"ha":833,"x_min":65,"x_max":828,"o":"m 65 0 l 226 1014 l 828 1014 l 806 872 l 363 872 l 319 596 l 713 596 l 690 454 l 297 454 l 247 142 l 690 142 l 667 0 l 65 0 m 665 1272 q 600 1281 626 1272 q 553 1301 574 1289 q 514 1321 533 1313 q 469 1329 494 1329 q 424 1290 431 1329 l 422 1282 l 319 1282 l 321 1290 q 372 1383 331 1349 q 474 1417 414 1417 q 539 1408 513 1417 q 585 1388 565 1399 q 624 1367 606 1376 q 668 1358 643 1358 q 698 1369 686 1358 q 713 1397 710 1381 l 714 1406 l 817 1406 l 815 1397 q 766 1306 806 1340 q 665 1272 726 1272 m 263 1083 l 433 1232 l 668 1232 l 793 1083 l 633 1083 l 546 1186 l 425 1083 l 263 1083 z "},"Ë":{"ha":833,"x_min":65,"x_max":843,"o":"m 65 0 l 226 1014 l 828 1014 l 806 872 l 363 872 l 319 596 l 713 596 l 690 454 l 297 454 l 247 142 l 690 142 l 667 0 l 65 0 m 722 1125 q 654 1151 676 1125 q 639 1222 632 1178 q 677 1294 646 1268 q 754 1321 708 1321 q 821 1294 799 1321 q 836 1222 843 1268 q 799 1151 831 1178 q 722 1125 768 1125 m 400 1125 q 333 1151 356 1125 q 317 1222 311 1178 q 356 1294 325 1268 q 432 1321 386 1321 q 500 1294 478 1321 q 514 1222 522 1268 q 477 1151 508 1178 q 400 1125 446 1125 z "},"Ė":{"ha":833,"x_min":65,"x_max":828,"o":"m 65 0 l 226 1014 l 828 1014 l 806 872 l 363 872 l 319 596 l 713 596 l 690 454 l 297 454 l 247 142 l 690 142 l 667 0 l 65 0 m 561 1125 q 485 1151 511 1125 q 467 1222 460 1178 q 508 1293 474 1267 q 593 1319 542 1319 q 669 1293 643 1319 q 686 1222 694 1267 q 647 1151 681 1178 q 561 1125 613 1125 z "},"Ẹ":{"ha":833,"x_min":65,"x_max":828,"o":"m 65 0 l 226 1014 l 828 1014 l 806 872 l 363 872 l 319 596 l 713 596 l 690 454 l 297 454 l 247 142 l 690 142 l 667 0 l 65 0 m 335 -308 q 258 -282 283 -308 q 239 -211 233 -256 q 281 -140 247 -167 q 365 -112 315 -112 q 442 -140 417 -112 q 460 -211 467 -167 q 419 -282 453 -256 q 335 -308 385 -308 z "},"È":{"ha":833,"x_min":65,"x_max":828,"o":"m 65 0 l 226 1014 l 828 1014 l 806 872 l 363 872 l 319 596 l 713 596 l 690 454 l 297 454 l 247 142 l 690 142 l 667 0 l 65 0 m 501 1125 l 371 1319 l 542 1319 l 660 1125 l 501 1125 z "},"Ẻ":{"ha":833,"x_min":65,"x_max":828,"o":"m 65 0 l 226 1014 l 828 1014 l 806 872 l 363 872 l 319 596 l 713 596 l 690 454 l 297 454 l 247 142 l 690 142 l 667 0 l 65 0 m 454 1108 l 536 1193 q 556 1217 549 1206 q 564 1236 563 1228 q 529 1261 568 1261 l 424 1261 l 440 1364 l 586 1364 q 676 1335 644 1364 q 699 1254 707 1306 q 685 1212 696 1232 q 660 1175 675 1192 l 596 1108 l 454 1108 z "},"Ē":{"ha":833,"x_min":65,"x_max":828,"o":"m 65 0 l 226 1014 l 828 1014 l 806 872 l 363 872 l 319 596 l 713 596 l 690 454 l 297 454 l 247 142 l 690 142 l 667 0 l 65 0 m 332 1154 l 351 1281 l 821 1281 l 801 1154 l 332 1154 z "},"Ę":{"ha":833,"x_min":65,"x_max":828,"o":"m 500 -296 q 378 -256 419 -296 q 347 -156 338 -217 q 394 -69 354 -112 q 508 14 435 -25 l 619 14 l 586 -10 q 522 -71 544 -43 q 494 -124 499 -99 q 506 -167 490 -149 q 556 -185 522 -185 l 644 -185 l 626 -296 l 500 -296 m 65 0 l 226 1014 l 828 1014 l 806 872 l 363 872 l 319 596 l 713 596 l 690 454 l 297 454 l 247 142 l 690 142 l 667 0 l 65 0 z "},"Ẽ":{"ha":833,"x_min":65,"x_max":828,"o":"m 65 0 l 226 1014 l 828 1014 l 806 872 l 363 872 l 319 596 l 713 596 l 690 454 l 297 454 l 247 142 l 690 142 l 667 0 l 65 0 m 658 1122 q 591 1136 615 1122 q 551 1168 567 1150 q 522 1200 536 1186 q 485 1214 507 1214 q 453 1201 467 1214 q 436 1167 439 1189 l 431 1129 l 328 1129 l 335 1175 q 390 1282 346 1242 q 496 1322 435 1322 q 563 1308 539 1322 q 603 1276 588 1294 q 633 1244 618 1258 q 669 1231 647 1231 q 701 1242 689 1231 q 717 1275 714 1253 l 724 1315 l 826 1315 l 819 1269 q 765 1163 808 1203 q 658 1122 721 1122 z "},"F":{"ha":833,"x_min":56,"x_max":839,"o":"m 56 0 l 217 1015 l 839 1015 l 814 865 l 351 865 l 306 578 l 732 578 l 708 428 l 285 428 l 217 0 l 56 0 z "},"G":{"ha":833,"x_min":75,"x_max":807,"o":"m 358 -14 q 197 22 263 -14 q 103 126 131 58 q 89 283 75 193 l 160 731 q 224 889 175 822 q 351 992 274 956 q 524 1028 428 1028 q 685 991 621 1028 q 778 888 749 954 q 792 731 807 821 l 631 731 q 609 845 643 806 q 501 885 575 885 q 381 845 428 885 q 321 731 333 806 l 251 283 q 274 169 239 210 q 382 128 308 128 q 501 169 454 128 q 560 283 547 210 l 576 392 l 396 392 l 418 533 l 761 533 l 722 283 q 658 127 708 194 q 532 23 608 60 q 358 -14 456 -14 z "},"Ǵ":{"ha":833,"x_min":75,"x_max":807,"o":"m 358 -14 q 197 22 263 -14 q 103 126 131 58 q 89 283 75 193 l 160 731 q 224 889 175 822 q 351 992 274 956 q 524 1028 428 1028 q 685 991 621 1028 q 778 888 749 954 q 792 731 807 821 l 631 731 q 609 845 643 806 q 501 885 575 885 q 381 845 428 885 q 321 731 333 806 l 251 283 q 274 169 239 210 q 382 128 308 128 q 501 169 454 128 q 560 283 547 210 l 576 392 l 396 392 l 418 533 l 761 533 l 722 283 q 658 127 708 194 q 532 23 608 60 q 358 -14 456 -14 m 431 1125 l 607 1319 l 789 1319 l 600 1125 l 431 1125 z "},"Ğ":{"ha":833,"x_min":75,"x_max":807,"o":"m 358 -14 q 197 22 263 -14 q 103 126 131 58 q 89 283 75 193 l 160 731 q 224 889 175 822 q 351 992 274 956 q 524 1028 428 1028 q 685 991 621 1028 q 778 888 749 954 q 792 731 807 821 l 631 731 q 609 845 643 806 q 501 885 575 885 q 381 845 428 885 q 321 731 333 806 l 251 283 q 274 169 239 210 q 382 128 308 128 q 501 169 454 128 q 560 283 547 210 l 576 392 l 396 392 l 418 533 l 761 533 l 722 283 q 658 127 708 194 q 532 23 608 60 q 358 -14 456 -14 m 532 1115 q 369 1172 426 1115 q 326 1319 313 1228 l 450 1319 q 469 1243 443 1272 q 544 1214 494 1214 q 631 1243 596 1214 q 674 1319 667 1272 l 801 1319 q 713 1172 788 1228 q 532 1115 639 1115 z "},"Ǧ":{"ha":833,"x_min":75,"x_max":831,"o":"m 358 -14 q 197 22 263 -14 q 103 126 131 58 q 89 283 75 193 l 160 731 q 224 889 175 822 q 351 992 274 956 q 524 1028 428 1028 q 685 991 621 1028 q 778 888 749 954 q 792 731 807 821 l 631 731 q 609 845 643 806 q 501 885 575 885 q 381 845 428 885 q 321 731 333 806 l 251 283 q 274 169 239 210 q 382 128 308 128 q 501 169 454 128 q 560 283 547 210 l 576 392 l 396 392 l 418 533 l 761 533 l 722 283 q 658 127 708 194 q 532 23 608 60 q 358 -14 456 -14 m 458 1125 l 297 1319 l 454 1319 l 546 1217 l 665 1319 l 831 1319 l 608 1125 l 458 1125 z "},"Ĝ":{"ha":833,"x_min":75,"x_max":807,"o":"m 358 -14 q 197 22 263 -14 q 103 126 131 58 q 89 283 75 193 l 160 731 q 224 889 175 822 q 351 992 274 956 q 524 1028 428 1028 q 685 991 621 1028 q 778 888 749 954 q 792 731 807 821 l 631 731 q 609 845 643 806 q 501 885 575 885 q 381 845 428 885 q 321 731 333 806 l 251 283 q 274 169 239 210 q 382 128 308 128 q 501 169 454 128 q 560 283 547 210 l 576 392 l 396 392 l 418 533 l 761 533 l 722 283 q 658 127 708 194 q 532 23 608 60 q 358 -14 456 -14 m 267 1125 l 489 1319 l 639 1319 l 800 1125 l 643 1125 l 553 1228 l 432 1125 l 267 1125 z "},"Ģ":{"ha":833,"x_min":75,"x_max":807,"o":"m 358 -14 q 197 22 263 -14 q 103 126 131 58 q 89 283 75 193 l 160 731 q 224 889 175 822 q 351 992 274 956 q 524 1028 428 1028 q 685 991 621 1028 q 778 888 749 954 q 792 731 807 821 l 631 731 q 609 845 643 806 q 501 885 575 885 q 381 845 428 885 q 321 731 333 806 l 251 283 q 274 169 239 210 q 382 128 308 128 q 501 169 454 128 q 560 283 547 210 l 576 392 l 396 392 l 418 533 l 761 533 l 722 283 q 658 127 708 194 q 532 23 608 60 q 358 -14 456 -14 m 146 -333 l 310 -132 l 483 -132 l 300 -333 l 146 -333 z "},"Ġ":{"ha":833,"x_min":75,"x_max":807,"o":"m 358 -14 q 197 22 263 -14 q 103 126 131 58 q 89 283 75 193 l 160 731 q 224 889 175 822 q 351 992 274 956 q 524 1028 428 1028 q 685 991 621 1028 q 778 888 749 954 q 792 731 807 821 l 631 731 q 609 845 643 806 q 501 885 575 885 q 381 845 428 885 q 321 731 333 806 l 251 283 q 274 169 239 210 q 382 128 308 128 q 501 169 454 128 q 560 283 547 210 l 576 392 l 396 392 l 418 533 l 761 533 l 722 283 q 658 127 708 194 q 532 23 608 60 q 358 -14 456 -14 m 533 1125 q 458 1151 483 1125 q 439 1222 432 1178 q 480 1293 446 1267 q 565 1319 514 1319 q 641 1293 615 1319 q 658 1222 667 1267 q 619 1151 653 1178 q 533 1125 585 1125 z "},"H":{"ha":833,"x_min":51,"x_max":821,"o":"m 51 0 l 213 1014 l 375 1014 l 308 600 l 593 600 l 658 1014 l 821 1014 l 660 0 l 497 0 l 569 450 l 285 450 l 214 0 l 51 0 z "},"Ħ":{"ha":833,"x_min":51,"x_max":893,"o":"m 69 729 l 88 846 l 893 846 l 874 729 l 69 729 m 51 0 l 213 1014 l 375 1014 l 308 600 l 593 600 l 658 1014 l 821 1014 l 660 0 l 497 0 l 569 450 l 285 450 l 214 0 l 51 0 z "},"Ĥ":{"ha":833,"x_min":51,"x_max":821,"o":"m 51 0 l 213 1014 l 375 1014 l 308 600 l 593 600 l 658 1014 l 821 1014 l 660 0 l 497 0 l 569 450 l 285 450 l 214 0 l 51 0 m 267 1125 l 489 1319 l 639 1319 l 800 1125 l 643 1125 l 553 1228 l 432 1125 l 267 1125 z "},"I":{"ha":833,"x_min":69,"x_max":803,"o":"m 69 0 l 92 143 l 297 143 l 413 871 l 207 871 l 231 1014 l 803 1014 l 781 871 l 575 871 l 460 143 l 665 143 l 642 0 l 69 0 z "},"Í":{"ha":833,"x_min":69,"x_max":803,"o":"m 69 0 l 92 143 l 297 143 l 413 871 l 207 871 l 231 1014 l 803 1014 l 781 871 l 575 871 l 460 143 l 665 143 l 642 0 l 69 0 m 431 1125 l 607 1319 l 789 1319 l 600 1125 l 431 1125 z "},"Ĭ":{"ha":833,"x_min":69,"x_max":803,"o":"m 69 0 l 92 143 l 297 143 l 413 871 l 207 871 l 231 1014 l 803 1014 l 781 871 l 575 871 l 460 143 l 665 143 l 642 0 l 69 0 m 532 1115 q 369 1172 426 1115 q 326 1319 313 1228 l 450 1319 q 469 1243 443 1272 q 544 1214 494 1214 q 631 1243 596 1214 q 674 1319 667 1272 l 801 1319 q 713 1172 788 1228 q 532 1115 639 1115 z "},"Î":{"ha":833,"x_min":69,"x_max":803,"o":"m 69 0 l 92 143 l 297 143 l 413 871 l 207 871 l 231 1014 l 803 1014 l 781 871 l 575 871 l 460 143 l 665 143 l 642 0 l 69 0 m 267 1125 l 489 1319 l 639 1319 l 800 1125 l 643 1125 l 553 1228 l 432 1125 l 267 1125 z "},"Ï":{"ha":833,"x_min":69,"x_max":815,"o":"m 69 0 l 92 143 l 297 143 l 413 871 l 207 871 l 231 1014 l 803 1014 l 781 871 l 575 871 l 460 143 l 665 143 l 642 0 l 69 0 m 694 1125 q 626 1151 649 1125 q 611 1222 604 1178 q 649 1294 618 1268 q 726 1321 681 1321 q 793 1294 771 1321 q 808 1222 815 1268 q 772 1151 803 1178 q 694 1125 740 1125 m 372 1125 q 306 1151 328 1125 q 289 1222 283 1178 q 328 1294 297 1268 q 404 1321 358 1321 q 472 1294 450 1321 q 486 1222 494 1268 q 449 1151 481 1178 q 372 1125 418 1125 z "},"İ":{"ha":833,"x_min":69,"x_max":803,"o":"m 69 0 l 92 143 l 297 143 l 413 871 l 207 871 l 231 1014 l 803 1014 l 781 871 l 575 871 l 460 143 l 665 143 l 642 0 l 69 0 m 533 1125 q 458 1151 483 1125 q 439 1222 432 1178 q 480 1293 446 1267 q 565 1319 514 1319 q 641 1293 615 1319 q 658 1222 667 1267 q 619 1151 653 1178 q 533 1125 585 1125 z "},"Ị":{"ha":833,"x_min":69,"x_max":803,"o":"m 69 0 l 92 143 l 297 143 l 413 871 l 207 871 l 231 1014 l 803 1014 l 781 871 l 575 871 l 460 143 l 665 143 l 642 0 l 69 0 m 313 -308 q 236 -282 261 -308 q 217 -211 211 -256 q 259 -140 225 -167 q 343 -112 293 -112 q 419 -140 394 -112 q 438 -211 444 -167 q 397 -282 431 -256 q 313 -308 363 -308 z "},"Ì":{"ha":833,"x_min":69,"x_max":803,"o":"m 69 0 l 92 143 l 297 143 l 413 871 l 207 871 l 231 1014 l 803 1014 l 781 871 l 575 871 l 460 143 l 665 143 l 642 0 l 69 0 m 474 1125 l 343 1319 l 514 1319 l 632 1125 l 474 1125 z "},"Ỉ":{"ha":833,"x_min":69,"x_max":803,"o":"m 69 0 l 92 143 l 297 143 l 413 871 l 207 871 l 231 1014 l 803 1014 l 781 871 l 575 871 l 460 143 l 665 143 l 642 0 l 69 0 m 478 1108 l 560 1193 q 579 1217 572 1206 q 588 1236 586 1228 q 553 1261 592 1261 l 447 1261 l 464 1364 l 610 1364 q 699 1335 668 1364 q 722 1254 731 1306 q 709 1212 719 1232 q 683 1175 699 1192 l 619 1108 l 478 1108 z "},"Ī":{"ha":833,"x_min":69,"x_max":803,"o":"m 69 0 l 92 143 l 297 143 l 413 871 l 207 871 l 231 1014 l 803 1014 l 781 871 l 575 871 l 460 143 l 665 143 l 642 0 l 69 0 m 304 1154 l 324 1281 l 793 1281 l 774 1154 l 304 1154 z "},"Į":{"ha":833,"x_min":69,"x_max":803,"o":"m 311 -296 q 190 -256 232 -296 q 160 -156 149 -217 q 206 -69 167 -112 q 321 14 246 -25 l 432 14 l 399 -10 q 333 -71 356 -43 q 306 -124 310 -99 q 319 -167 303 -149 q 367 -185 335 -185 l 456 -185 l 439 -296 l 311 -296 m 69 0 l 92 143 l 297 143 l 413 871 l 207 871 l 231 1014 l 803 1014 l 781 871 l 575 871 l 460 143 l 665 143 l 642 0 l 69 0 z "},"Ĩ":{"ha":833,"x_min":69,"x_max":803,"o":"m 69 0 l 92 143 l 297 143 l 413 871 l 207 871 l 231 1014 l 803 1014 l 781 871 l 575 871 l 460 143 l 665 143 l 642 0 l 69 0 m 631 1122 q 563 1136 588 1122 q 524 1168 539 1150 q 494 1200 508 1186 q 457 1214 479 1214 q 425 1201 439 1214 q 408 1167 411 1189 l 403 1129 l 300 1129 l 307 1175 q 363 1282 318 1242 q 468 1322 407 1322 q 535 1308 511 1322 q 575 1276 560 1294 q 605 1244 590 1258 q 642 1231 619 1231 q 674 1242 661 1231 q 689 1275 686 1253 l 696 1315 l 799 1315 l 792 1269 q 737 1163 781 1203 q 631 1122 693 1122 z "},"J":{"ha":833,"x_min":10,"x_max":803,"o":"m 311 -14 q 85 70 160 -14 q 33 297 10 154 l 194 297 q 220 173 183 218 q 335 128 257 128 q 464 172 413 128 q 526 297 515 217 l 617 864 l 381 864 l 404 1014 l 803 1014 l 689 297 q 623 131 675 201 q 492 24 571 61 q 311 -14 413 -14 z "},"Ĵ":{"ha":833,"x_min":10,"x_max":883,"o":"m 311 -14 q 85 70 160 -14 q 33 297 10 154 l 194 297 q 220 173 183 218 q 335 128 257 128 q 464 172 413 128 q 526 297 515 217 l 617 864 l 381 864 l 404 1014 l 803 1014 l 689 297 q 623 131 675 201 q 492 24 571 61 q 311 -14 413 -14 m 350 1125 l 572 1319 l 722 1319 l 883 1125 l 726 1125 l 636 1228 l 515 1125 l 350 1125 z "},"K":{"ha":833,"x_min":50,"x_max":875,"o":"m 50 0 l 211 1014 l 374 1014 l 307 597 l 431 597 l 699 1014 l 875 1014 l 561 519 l 726 0 l 551 0 l 414 451 l 283 451 l 213 0 l 50 0 z "},"Ķ":{"ha":833,"x_min":50,"x_max":875,"o":"m 50 0 l 211 1014 l 374 1014 l 307 597 l 431 597 l 699 1014 l 875 1014 l 561 519 l 726 0 l 551 0 l 414 451 l 283 451 l 213 0 l 50 0 m 140 -333 l 304 -132 l 478 -132 l 294 -333 l 140 -333 z "},"L":{"ha":833,"x_min":86,"x_max":708,"o":"m 86 0 l 247 1014 l 410 1014 l 272 150 l 708 150 l 685 0 l 86 0 z "},"Ĺ":{"ha":833,"x_min":86,"x_max":708,"o":"m 86 0 l 247 1014 l 410 1014 l 272 150 l 708 150 l 685 0 l 86 0 m 243 1125 l 419 1319 l 601 1319 l 413 1125 l 243 1125 z "},"Ľ":{"ha":833,"x_min":86,"x_max":753,"o":"m 86 0 l 247 1014 l 410 1014 l 272 150 l 708 150 l 685 0 l 86 0 m 547 764 l 601 1014 l 753 1014 l 685 764 l 547 764 z "},"Ļ":{"ha":833,"x_min":86,"x_max":708,"o":"m 86 0 l 247 1014 l 410 1014 l 272 150 l 708 150 l 685 0 l 86 0 m 168 -333 l 332 -132 l 506 -132 l 322 -333 l 168 -333 z "},"Ŀ":{"ha":833,"x_min":86,"x_max":725,"o":"m 86 0 l 247 1014 l 410 1014 l 272 150 l 708 150 l 685 0 l 86 0 z "},"Ł":{"ha":833,"x_min":17,"x_max":715,"o":"m 17 314 l 40 468 l 610 783 l 586 629 l 17 314 m 93 0 l 254 1014 l 415 1014 l 278 150 l 715 150 l 692 0 l 93 0 z "},"M":{"ha":833,"x_min":24,"x_max":849,"o":"m 24 0 l 185 1014 l 376 1014 l 425 690 q 436 602 432 643 q 442 542 440 561 q 465 602 449 561 q 501 690 481 643 l 650 1014 l 849 1014 l 688 0 l 535 0 l 588 328 q 615 479 599 399 q 651 641 632 560 q 688 796 669 722 q 721 924 707 869 l 503 439 l 351 439 l 281 924 q 275 799 279 871 q 265 647 271 728 q 249 483 258 565 q 228 328 240 401 l 176 0 l 24 0 z "},"N":{"ha":833,"x_min":46,"x_max":826,"o":"m 46 0 l 207 1014 l 406 1014 l 564 183 q 572 283 567 225 q 583 402 576 340 q 599 513 590 464 l 678 1014 l 826 1014 l 665 0 l 467 0 l 310 831 q 302 738 307 793 q 290 623 297 682 q 275 514 283 564 l 194 0 l 46 0 z "},"Ń":{"ha":833,"x_min":46,"x_max":826,"o":"m 46 0 l 207 1014 l 406 1014 l 564 183 q 572 283 567 225 q 583 402 576 340 q 599 513 590 464 l 678 1014 l 826 1014 l 665 0 l 467 0 l 310 831 q 302 738 307 793 q 290 623 297 682 q 275 514 283 564 l 194 0 l 46 0 m 431 1125 l 607 1319 l 789 1319 l 600 1125 l 431 1125 z "},"Ň":{"ha":833,"x_min":46,"x_max":831,"o":"m 46 0 l 207 1014 l 406 1014 l 564 183 q 572 283 567 225 q 583 402 576 340 q 599 513 590 464 l 678 1014 l 826 1014 l 665 0 l 467 0 l 310 831 q 302 738 307 793 q 290 623 297 682 q 275 514 283 564 l 194 0 l 46 0 m 458 1125 l 297 1319 l 454 1319 l 546 1217 l 665 1319 l 831 1319 l 608 1125 l 458 1125 z "},"Ņ":{"ha":833,"x_min":46,"x_max":826,"o":"m 46 0 l 207 1014 l 406 1014 l 564 183 q 572 283 567 225 q 583 402 576 340 q 599 513 590 464 l 678 1014 l 826 1014 l 665 0 l 467 0 l 310 831 q 302 738 307 793 q 290 623 297 682 q 275 514 283 564 l 194 0 l 46 0 m 140 -333 l 304 -132 l 478 -132 l 294 -333 l 140 -333 z "},"Ŋ":{"ha":833,"x_min":46,"x_max":826,"o":"m 238 -250 l 263 -97 l 350 -97 q 457 -61 414 -97 q 508 38 500 -25 l 310 831 q 302 738 307 793 q 290 623 297 682 q 275 514 283 564 l 194 0 l 46 0 l 207 1014 l 403 1014 l 583 297 q 591 398 586 339 q 603 519 596 457 q 617 631 610 582 l 678 1014 l 826 1014 l 669 26 q 608 -118 657 -56 q 485 -215 560 -181 q 319 -250 411 -250 l 238 -250 z "},"Ñ":{"ha":833,"x_min":46,"x_max":826,"o":"m 46 0 l 207 1014 l 406 1014 l 564 183 q 572 283 567 225 q 583 402 576 340 q 599 513 590 464 l 678 1014 l 826 1014 l 665 0 l 467 0 l 310 831 q 302 738 307 793 q 290 623 297 682 q 275 514 283 564 l 194 0 l 46 0 m 631 1122 q 563 1136 588 1122 q 524 1168 539 1150 q 494 1200 508 1186 q 457 1214 479 1214 q 425 1201 439 1214 q 408 1167 411 1189 l 403 1129 l 300 1129 l 307 1175 q 363 1282 318 1242 q 468 1322 407 1322 q 535 1308 511 1322 q 575 1276 560 1294 q 605 1244 590 1258 q 642 1231 619 1231 q 674 1242 661 1231 q 689 1275 686 1253 l 696 1315 l 799 1315 l 792 1269 q 737 1163 781 1203 q 631 1122 693 1122 z "},"O":{"ha":833,"x_min":75,"x_max":799,"o":"m 353 -14 q 193 22 257 -14 q 102 126 129 58 q 89 283 75 193 l 160 731 q 223 889 175 822 q 347 992 271 956 q 518 1028 422 1028 q 679 992 615 1028 q 771 889 743 956 q 783 731 799 822 l 713 283 q 649 126 699 193 q 525 22 600 58 q 353 -14 450 -14 m 376 129 q 494 169 449 129 q 550 283 539 210 l 621 731 q 601 845 633 806 q 496 885 569 885 q 378 845 422 885 q 321 731 333 806 l 251 283 q 271 169 239 210 q 376 129 303 129 z "},"Ó":{"ha":833,"x_min":75,"x_max":799,"o":"m 353 -14 q 193 22 257 -14 q 102 126 129 58 q 89 283 75 193 l 160 731 q 223 889 175 822 q 347 992 271 956 q 518 1028 422 1028 q 679 992 615 1028 q 771 889 743 956 q 783 731 799 822 l 713 283 q 649 126 699 193 q 525 22 600 58 q 353 -14 450 -14 m 376 129 q 494 169 449 129 q 550 283 539 210 l 621 731 q 601 845 633 806 q 496 885 569 885 q 378 845 422 885 q 321 731 333 806 l 251 283 q 271 169 239 210 q 376 129 303 129 m 431 1125 l 607 1319 l 789 1319 l 600 1125 l 431 1125 z "},"Ŏ":{"ha":833,"x_min":75,"x_max":801,"o":"m 353 -14 q 193 22 257 -14 q 102 126 129 58 q 89 283 75 193 l 160 731 q 223 889 175 822 q 347 992 271 956 q 518 1028 422 1028 q 679 992 615 1028 q 771 889 743 956 q 783 731 799 822 l 713 283 q 649 126 699 193 q 525 22 600 58 q 353 -14 450 -14 m 376 129 q 494 169 449 129 q 550 283 539 210 l 621 731 q 601 845 633 806 q 496 885 569 885 q 378 845 422 885 q 321 731 333 806 l 251 283 q 271 169 239 210 q 376 129 303 129 m 532 1115 q 369 1172 426 1115 q 326 1319 313 1228 l 450 1319 q 469 1243 443 1272 q 544 1214 494 1214 q 631 1243 596 1214 q 674 1319 667 1272 l 801 1319 q 713 1172 788 1228 q 532 1115 639 1115 z "},"Ô":{"ha":833,"x_min":75,"x_max":800,"o":"m 353 -14 q 193 22 257 -14 q 102 126 129 58 q 89 283 75 193 l 160 731 q 223 889 175 822 q 347 992 271 956 q 518 1028 422 1028 q 679 992 615 1028 q 771 889 743 956 q 783 731 799 822 l 713 283 q 649 126 699 193 q 525 22 600 58 q 353 -14 450 -14 m 376 129 q 494 169 449 129 q 550 283 539 210 l 621 731 q 601 845 633 806 q 496 885 569 885 q 378 845 422 885 q 321 731 333 806 l 251 283 q 271 169 239 210 q 376 129 303 129 m 267 1125 l 489 1319 l 639 1319 l 800 1125 l 643 1125 l 553 1228 l 432 1125 l 267 1125 z "},"Ố":{"ha":833,"x_min":75,"x_max":1056,"o":"m 353 -14 q 193 22 257 -14 q 102 126 129 58 q 89 283 75 193 l 160 731 q 223 889 175 822 q 347 992 271 956 q 518 1028 422 1028 q 679 992 615 1028 q 771 889 743 956 q 783 731 799 822 l 713 283 q 649 126 699 193 q 525 22 600 58 q 353 -14 450 -14 m 376 129 q 494 169 449 129 q 550 283 539 210 l 621 731 q 601 845 633 806 q 496 885 569 885 q 378 845 422 885 q 321 731 333 806 l 251 283 q 271 169 239 210 q 376 129 303 129 m 708 1253 l 881 1417 l 1056 1417 l 874 1253 l 708 1253 m 263 1083 l 483 1278 l 633 1278 l 794 1083 l 638 1083 l 549 1186 l 428 1083 l 263 1083 z "},"Ộ":{"ha":833,"x_min":75,"x_max":800,"o":"m 267 1125 l 489 1319 l 639 1319 l 800 1125 l 643 1125 l 553 1228 l 432 1125 l 267 1125 m 353 -14 q 193 22 257 -14 q 102 126 129 58 q 89 283 75 193 l 160 731 q 223 889 175 822 q 347 992 271 956 q 518 1028 422 1028 q 679 992 615 1028 q 771 889 743 956 q 783 731 799 822 l 713 283 q 649 126 699 193 q 525 22 600 58 q 353 -14 450 -14 m 376 129 q 494 169 449 129 q 550 283 539 210 l 621 731 q 601 845 633 806 q 496 885 569 885 q 378 845 422 885 q 321 731 333 806 l 251 283 q 271 169 239 210 q 376 129 303 129 m 307 -308 q 231 -282 256 -308 q 211 -211 206 -256 q 253 -140 219 -167 q 338 -112 288 -112 q 414 -140 389 -112 q 432 -211 439 -167 q 391 -282 425 -256 q 307 -308 357 -308 z "},"Ồ":{"ha":833,"x_min":75,"x_max":914,"o":"m 353 -14 q 193 22 257 -14 q 102 126 129 58 q 89 283 75 193 l 160 731 q 223 889 175 822 q 347 992 271 956 q 518 1028 422 1028 q 679 992 615 1028 q 771 889 743 956 q 783 731 799 822 l 713 283 q 649 126 699 193 q 525 22 600 58 q 353 -14 450 -14 m 376 129 q 494 169 449 129 q 550 283 539 210 l 621 731 q 601 845 633 806 q 496 885 569 885 q 378 845 422 885 q 321 731 333 806 l 251 283 q 271 169 239 210 q 376 129 303 129 m 765 1253 l 628 1417 l 788 1417 l 914 1253 l 765 1253 m 263 1083 l 483 1278 l 633 1278 l 794 1083 l 638 1083 l 549 1186 l 428 1083 l 263 1083 z "},"Ổ":{"ha":833,"x_min":75,"x_max":944,"o":"m 353 -14 q 193 22 257 -14 q 102 126 129 58 q 89 283 75 193 l 160 731 q 223 889 175 822 q 347 992 271 956 q 518 1028 422 1028 q 679 992 615 1028 q 771 889 743 956 q 783 731 799 822 l 713 283 q 649 126 699 193 q 525 22 600 58 q 353 -14 450 -14 m 376 129 q 494 169 449 129 q 550 283 539 210 l 621 731 q 601 845 633 806 q 496 885 569 885 q 378 845 422 885 q 321 731 333 806 l 251 283 q 271 169 239 210 q 376 129 303 129 m 721 1217 l 789 1274 q 803 1289 799 1282 q 808 1303 807 1296 q 785 1325 811 1325 l 694 1325 l 710 1417 l 833 1417 q 916 1390 888 1417 q 938 1318 944 1364 q 924 1283 935 1300 q 899 1253 914 1265 l 856 1217 l 721 1217 m 263 1083 l 483 1278 l 633 1278 l 794 1083 l 638 1083 l 549 1186 l 428 1083 l 263 1083 z "},"Ỗ":{"ha":833,"x_min":75,"x_max":817,"o":"m 353 -14 q 193 22 257 -14 q 102 126 129 58 q 89 283 75 193 l 160 731 q 223 889 175 822 q 347 992 271 956 q 518 1028 422 1028 q 679 992 615 1028 q 771 889 743 956 q 783 731 799 822 l 713 283 q 649 126 699 193 q 525 22 600 58 q 353 -14 450 -14 m 376 129 q 494 169 449 129 q 550 283 539 210 l 621 731 q 601 845 633 806 q 496 885 569 885 q 378 845 422 885 q 321 731 333 806 l 251 283 q 271 169 239 210 q 376 129 303 129 m 665 1272 q 600 1281 626 1272 q 553 1301 574 1289 q 514 1321 533 1313 q 469 1329 494 1329 q 424 1290 431 1329 l 422 1282 l 319 1282 l 321 1290 q 372 1383 331 1349 q 474 1417 414 1417 q 539 1408 513 1417 q 585 1388 565 1399 q 624 1367 606 1376 q 668 1358 643 1358 q 698 1369 686 1358 q 713 1397 710 1381 l 714 1406 l 817 1406 l 815 1397 q 766 1306 806 1340 q 665 1272 726 1272 m 263 1083 l 433 1232 l 668 1232 l 793 1083 l 633 1083 l 546 1186 l 425 1083 l 263 1083 z "},"Ö":{"ha":833,"x_min":75,"x_max":815,"o":"m 353 -14 q 193 22 257 -14 q 102 126 129 58 q 89 283 75 193 l 160 731 q 223 889 175 822 q 347 992 271 956 q 518 1028 422 1028 q 679 992 615 1028 q 771 889 743 956 q 783 731 799 822 l 713 283 q 649 126 699 193 q 525 22 600 58 q 353 -14 450 -14 m 376 129 q 494 169 449 129 q 550 283 539 210 l 621 731 q 601 845 633 806 q 496 885 569 885 q 378 845 422 885 q 321 731 333 806 l 251 283 q 271 169 239 210 q 376 129 303 129 m 694 1125 q 626 1151 649 1125 q 611 1222 604 1178 q 649 1294 618 1268 q 726 1321 681 1321 q 793 1294 771 1321 q 808 1222 815 1268 q 772 1151 803 1178 q 694 1125 740 1125 m 372 1125 q 306 1151 328 1125 q 289 1222 283 1178 q 328 1294 297 1268 q 404 1321 358 1321 q 472 1294 450 1321 q 486 1222 494 1268 q 449 1151 481 1178 q 372 1125 418 1125 z "},"Ọ":{"ha":833,"x_min":75,"x_max":799,"o":"m 353 -14 q 193 22 257 -14 q 102 126 129 58 q 89 283 75 193 l 160 731 q 223 889 175 822 q 347 992 271 956 q 518 1028 422 1028 q 679 992 615 1028 q 771 889 743 956 q 783 731 799 822 l 713 283 q 649 126 699 193 q 525 22 600 58 q 353 -14 450 -14 m 376 129 q 494 169 449 129 q 550 283 539 210 l 621 731 q 601 845 633 806 q 496 885 569 885 q 378 845 422 885 q 321 731 333 806 l 251 283 q 271 169 239 210 q 376 129 303 129 m 321 -308 q 244 -282 269 -308 q 225 -211 219 -256 q 267 -140 233 -167 q 351 -112 301 -112 q 428 -140 403 -112 q 446 -211 453 -167 q 405 -282 439 -256 q 321 -308 371 -308 z "},"Ò":{"ha":833,"x_min":75,"x_max":799,"o":"m 353 -14 q 193 22 257 -14 q 102 126 129 58 q 89 283 75 193 l 160 731 q 223 889 175 822 q 347 992 271 956 q 518 1028 422 1028 q 679 992 615 1028 q 771 889 743 956 q 783 731 799 822 l 713 283 q 649 126 699 193 q 525 22 600 58 q 353 -14 450 -14 m 376 129 q 494 169 449 129 q 550 283 539 210 l 621 731 q 601 845 633 806 q 496 885 569 885 q 378 845 422 885 q 321 731 333 806 l 251 283 q 271 169 239 210 q 376 129 303 129 m 474 1125 l 343 1319 l 514 1319 l 632 1125 l 474 1125 z "},"Ỏ":{"ha":833,"x_min":75,"x_max":799,"o":"m 353 -14 q 193 22 257 -14 q 102 126 129 58 q 89 283 75 193 l 160 731 q 223 889 175 822 q 347 992 271 956 q 518 1028 422 1028 q 679 992 615 1028 q 771 889 743 956 q 783 731 799 822 l 713 283 q 649 126 699 193 q 525 22 600 58 q 353 -14 450 -14 m 376 129 q 494 169 449 129 q 550 283 539 210 l 621 731 q 601 845 633 806 q 496 885 569 885 q 378 845 422 885 q 321 731 333 806 l 251 283 q 271 169 239 210 q 376 129 303 129 m 478 1108 l 560 1193 q 579 1217 572 1206 q 588 1236 586 1228 q 553 1261 592 1261 l 447 1261 l 464 1364 l 610 1364 q 699 1335 668 1364 q 722 1254 731 1306 q 709 1212 719 1232 q 683 1175 699 1192 l 619 1108 l 478 1108 z "},"Ơ":{"ha":833,"x_min":75,"x_max":888,"o":"m 619 861 l 638 972 l 683 972 q 721 985 706 972 q 739 1021 736 999 l 756 1125 l 888 1125 l 871 1017 q 806 903 860 946 q 675 861 753 861 l 619 861 m 353 -14 q 193 22 257 -14 q 102 126 129 58 q 89 283 75 193 l 160 731 q 223 889 175 822 q 347 992 271 956 q 518 1028 422 1028 q 679 992 615 1028 q 771 889 743 956 q 783 731 799 822 l 713 283 q 649 126 699 193 q 525 22 600 58 q 353 -14 450 -14 m 376 129 q 494 169 449 129 q 550 283 539 210 l 621 731 q 601 845 633 806 q 496 885 569 885 q 378 845 422 885 q 321 731 333 806 l 251 283 q 271 169 239 210 q 376 129 303 129 z "},"Ớ":{"ha":833,"x_min":75,"x_max":888,"o":"m 619 861 l 638 972 l 683 972 q 721 985 706 972 q 739 1021 736 999 l 756 1125 l 888 1125 l 871 1017 q 806 903 860 946 q 675 861 753 861 l 619 861 m 353 -14 q 193 22 257 -14 q 102 126 129 58 q 89 283 75 193 l 160 731 q 223 889 175 822 q 347 992 271 956 q 518 1028 422 1028 q 679 992 615 1028 q 771 889 743 956 q 783 731 799 822 l 713 283 q 649 126 699 193 q 525 22 600 58 q 353 -14 450 -14 m 376 129 q 494 169 449 129 q 550 283 539 210 l 621 731 q 601 845 633 806 q 496 885 569 885 q 378 845 422 885 q 321 731 333 806 l 251 283 q 271 169 239 210 q 376 129 303 129 m 417 1125 l 593 1319 l 775 1319 l 586 1125 l 417 1125 z "},"Ợ":{"ha":833,"x_min":75,"x_max":888,"o":"m 619 861 l 638 972 l 683 972 q 721 985 706 972 q 739 1021 736 999 l 756 1125 l 888 1125 l 871 1017 q 806 903 860 946 q 675 861 753 861 l 619 861 m 353 -14 q 193 22 257 -14 q 102 126 129 58 q 89 283 75 193 l 160 731 q 223 889 175 822 q 347 992 271 956 q 518 1028 422 1028 q 679 992 615 1028 q 771 889 743 956 q 783 731 799 822 l 713 283 q 649 126 699 193 q 525 22 600 58 q 353 -14 450 -14 m 376 129 q 494 169 449 129 q 550 283 539 210 l 621 731 q 601 845 633 806 q 496 885 569 885 q 378 845 422 885 q 321 731 333 806 l 251 283 q 271 169 239 210 q 376 129 303 129 m 321 -308 q 244 -282 269 -308 q 225 -211 219 -256 q 267 -140 233 -167 q 351 -112 301 -112 q 428 -140 403 -112 q 446 -211 453 -167 q 405 -282 439 -256 q 321 -308 371 -308 z "},"Ờ":{"ha":833,"x_min":75,"x_max":888,"o":"m 619 861 l 638 972 l 683 972 q 721 985 706 972 q 739 1021 736 999 l 756 1125 l 888 1125 l 871 1017 q 806 903 860 946 q 675 861 753 861 l 619 861 m 353 -14 q 193 22 257 -14 q 102 126 129 58 q 89 283 75 193 l 160 731 q 223 889 175 822 q 347 992 271 956 q 518 1028 422 1028 q 679 992 615 1028 q 771 889 743 956 q 783 731 799 822 l 713 283 q 649 126 699 193 q 525 22 600 58 q 353 -14 450 -14 m 376 129 q 494 169 449 129 q 550 283 539 210 l 621 731 q 601 845 633 806 q 496 885 569 885 q 378 845 422 885 q 321 731 333 806 l 251 283 q 271 169 239 210 q 376 129 303 129 m 460 1125 l 329 1319 l 500 1319 l 618 1125 l 460 1125 z "},"Ở":{"ha":833,"x_min":75,"x_max":888,"o":"m 619 861 l 638 972 l 683 972 q 721 985 706 972 q 739 1021 736 999 l 756 1125 l 888 1125 l 871 1017 q 806 903 860 946 q 675 861 753 861 l 619 861 m 353 -14 q 193 22 257 -14 q 102 126 129 58 q 89 283 75 193 l 160 731 q 223 889 175 822 q 347 992 271 956 q 518 1028 422 1028 q 679 992 615 1028 q 771 889 743 956 q 783 731 799 822 l 713 283 q 649 126 699 193 q 525 22 600 58 q 353 -14 450 -14 m 376 129 q 494 169 449 129 q 550 283 539 210 l 621 731 q 601 845 633 806 q 496 885 569 885 q 378 845 422 885 q 321 731 333 806 l 251 283 q 271 169 239 210 q 376 129 303 129 m 454 1108 l 536 1193 q 556 1217 549 1206 q 564 1236 563 1228 q 529 1261 568 1261 l 424 1261 l 440 1364 l 586 1364 q 676 1335 644 1364 q 699 1254 707 1306 q 685 1212 696 1232 q 660 1175 675 1192 l 596 1108 l 454 1108 z "},"Ỡ":{"ha":833,"x_min":75,"x_max":888,"o":"m 619 861 l 638 972 l 683 972 q 721 985 706 972 q 739 1021 736 999 l 756 1125 l 888 1125 l 871 1017 q 806 903 860 946 q 675 861 753 861 l 619 861 m 353 -14 q 193 22 257 -14 q 102 126 129 58 q 89 283 75 193 l 160 731 q 223 889 175 822 q 347 992 271 956 q 518 1028 422 1028 q 679 992 615 1028 q 771 889 743 956 q 783 731 799 822 l 713 283 q 649 126 699 193 q 525 22 600 58 q 353 -14 450 -14 m 376 129 q 494 169 449 129 q 550 283 539 210 l 621 731 q 601 845 633 806 q 496 885 569 885 q 378 845 422 885 q 321 731 333 806 l 251 283 q 271 169 239 210 q 376 129 303 129 m 617 1122 q 549 1136 574 1122 q 510 1168 525 1150 q 480 1200 494 1186 q 443 1214 465 1214 q 411 1201 425 1214 q 394 1167 397 1189 l 389 1129 l 286 1129 l 293 1175 q 349 1282 304 1242 q 454 1322 393 1322 q 522 1308 497 1322 q 561 1276 546 1294 q 591 1244 576 1258 q 628 1231 606 1231 q 660 1242 647 1231 q 675 1275 672 1253 l 682 1315 l 785 1315 l 778 1269 q 723 1163 767 1203 q 617 1122 679 1122 z "},"Ő":{"ha":833,"x_min":75,"x_max":911,"o":"m 353 -14 q 193 22 257 -14 q 102 126 129 58 q 89 283 75 193 l 160 731 q 223 889 175 822 q 347 992 271 956 q 518 1028 422 1028 q 679 992 615 1028 q 771 889 743 956 q 783 731 799 822 l 713 283 q 649 126 699 193 q 525 22 600 58 q 353 -14 450 -14 m 376 129 q 494 169 449 129 q 550 283 539 210 l 621 731 q 601 845 633 806 q 496 885 569 885 q 378 845 422 885 q 321 731 333 806 l 251 283 q 271 169 239 210 q 376 129 303 129 m 567 1125 l 747 1319 l 911 1319 l 721 1125 l 567 1125 m 290 1125 l 471 1319 l 635 1319 l 444 1125 l 290 1125 z "},"Ō":{"ha":833,"x_min":75,"x_max":799,"o":"m 353 -14 q 193 22 257 -14 q 102 126 129 58 q 89 283 75 193 l 160 731 q 223 889 175 822 q 347 992 271 956 q 518 1028 422 1028 q 679 992 615 1028 q 771 889 743 956 q 783 731 799 822 l 713 283 q 649 126 699 193 q 525 22 600 58 q 353 -14 450 -14 m 376 129 q 494 169 449 129 q 550 283 539 210 l 621 731 q 601 845 633 806 q 496 885 569 885 q 378 845 422 885 q 321 731 333 806 l 251 283 q 271 169 239 210 q 376 129 303 129 m 304 1154 l 324 1281 l 793 1281 l 774 1154 l 304 1154 z "},"Ǫ":{"ha":833,"x_min":75,"x_max":799,"o":"m 404 -296 q 283 -256 324 -296 q 251 -156 242 -217 q 275 -102 256 -131 q 326 -45 294 -74 q 396 6 358 -17 q 382 -6 393 1 q 353 -14 371 -14 q 194 22 258 -14 q 103 126 131 58 q 89 283 75 193 l 160 731 q 224 889 175 822 q 348 992 272 956 q 518 1028 424 1028 q 679 992 615 1028 q 771 889 743 956 q 783 731 799 822 l 713 283 q 655 135 699 200 q 544 32 611 69 l 485 -10 q 423 -70 443 -42 q 399 -122 403 -99 q 410 -167 394 -149 q 458 -185 426 -185 l 547 -185 l 531 -296 l 404 -296 m 376 129 q 494 169 450 129 q 551 283 539 210 l 621 731 q 603 845 635 806 q 496 885 571 885 q 379 845 424 885 q 322 731 335 806 l 251 283 q 272 169 239 210 q 376 129 304 129 z "},"Ø":{"ha":833,"x_min":-33,"x_max":901,"o":"m -33 -56 l 763 1042 l 901 1042 l 106 -56 l -33 -56 m 353 -14 q 193 22 257 -14 q 102 126 129 58 q 89 283 75 193 l 160 731 q 223 889 175 822 q 347 992 271 956 q 518 1028 422 1028 q 678 992 615 1028 q 769 889 742 956 q 783 731 797 822 l 713 283 q 649 126 699 193 q 525 22 600 58 q 353 -14 450 -14 m 376 129 q 496 169 450 129 q 553 283 542 210 l 624 731 q 603 845 636 806 q 496 885 569 885 q 376 845 422 885 q 318 731 331 806 l 247 283 q 269 169 236 210 q 376 129 303 129 z "},"Ǿ":{"ha":833,"x_min":-33,"x_max":901,"o":"m -33 -56 l 763 1042 l 901 1042 l 106 -56 l -33 -56 m 353 -14 q 193 22 257 -14 q 102 126 129 58 q 89 283 75 193 l 160 731 q 223 889 175 822 q 347 992 271 956 q 518 1028 422 1028 q 678 992 615 1028 q 769 889 742 956 q 783 731 797 822 l 713 283 q 649 126 699 193 q 525 22 600 58 q 353 -14 450 -14 m 376 129 q 496 169 450 129 q 553 283 542 210 l 624 731 q 603 845 636 806 q 496 885 569 885 q 376 845 422 885 q 318 731 331 806 l 247 283 q 269 169 236 210 q 376 129 303 129 m 431 1125 l 607 1319 l 789 1319 l 600 1125 l 431 1125 z "},"Õ":{"ha":833,"x_min":75,"x_max":799,"o":"m 353 -14 q 193 22 257 -14 q 102 126 129 58 q 89 283 75 193 l 160 731 q 223 889 175 822 q 347 992 271 956 q 518 1028 422 1028 q 679 992 615 1028 q 771 889 743 956 q 783 731 799 822 l 713 283 q 649 126 699 193 q 525 22 600 58 q 353 -14 450 -14 m 376 129 q 494 169 449 129 q 550 283 539 210 l 621 731 q 601 845 633 806 q 496 885 569 885 q 378 845 422 885 q 321 731 333 806 l 251 283 q 271 169 239 210 q 376 129 303 129 m 631 1122 q 563 1136 588 1122 q 524 1168 539 1150 q 494 1200 508 1186 q 457 1214 479 1214 q 425 1201 439 1214 q 408 1167 411 1189 l 403 1129 l 300 1129 l 307 1175 q 363 1282 318 1242 q 468 1322 407 1322 q 535 1308 511 1322 q 575 1276 560 1294 q 605 1244 590 1258 q 642 1231 619 1231 q 674 1242 661 1231 q 689 1275 686 1253 l 696 1315 l 799 1315 l 792 1269 q 737 1163 781 1203 q 631 1122 693 1122 z "},"Œ":{"ha":833,"x_min":17,"x_max":901,"o":"m 196 -10 q 89 22 131 -10 q 32 115 47 54 q 29 260 17 176 l 108 758 q 156 903 122 843 q 242 996 190 964 q 360 1028 294 1028 q 439 1008 410 1028 q 481 959 468 988 q 493 903 494 931 l 500 903 l 518 1014 l 901 1014 l 879 874 l 643 874 l 599 592 l 800 592 l 776 451 l 576 451 l 526 140 l 763 140 l 740 0 l 357 0 l 376 115 l 369 115 q 338 60 361 89 q 280 10 315 31 q 196 -10 244 -10 m 269 129 q 351 164 318 129 q 394 260 385 199 l 474 758 q 461 854 483 819 q 390 889 439 889 q 308 854 342 889 q 264 758 274 819 l 186 260 q 199 164 176 199 q 269 129 221 129 z "},"P":{"ha":833,"x_min":50,"x_max":842,"o":"m 50 0 l 211 1014 l 547 1014 q 715 976 647 1014 q 812 868 782 938 q 828 704 842 799 q 760 542 813 613 q 628 434 708 472 q 449 396 549 396 l 275 396 l 213 0 l 50 0 m 299 542 l 471 542 q 599 586 547 542 q 663 704 651 631 q 637 824 675 781 q 524 868 599 868 l 350 868 l 299 542 z "},"Þ":{"ha":833,"x_min":51,"x_max":819,"o":"m 51 0 l 213 1014 l 375 1014 l 343 815 l 535 815 q 748 738 676 815 q 799 528 819 660 q 737 375 785 439 q 614 276 689 311 q 444 240 539 240 l 251 240 l 214 0 l 51 0 m 274 379 l 450 379 q 575 419 526 379 q 635 528 624 458 q 609 638 646 599 q 497 676 572 676 l 319 676 l 274 379 z "},"Q":{"ha":833,"x_min":69,"x_max":803,"o":"m 476 -250 l 365 0 l 390 -11 q 372 -12 381 -11 q 353 -14 363 -14 q 191 24 257 -14 q 97 129 125 61 q 83 288 69 197 l 153 726 q 217 885 168 818 q 344 990 267 953 q 518 1028 422 1028 q 681 990 615 1028 q 774 885 746 953 q 788 726 803 818 l 718 288 q 638 108 701 182 q 476 6 575 33 l 492 86 l 643 -250 l 476 -250 m 376 129 q 497 172 450 129 q 557 288 544 214 l 626 726 q 604 844 639 801 q 496 886 569 886 q 376 844 425 886 q 314 726 326 801 l 244 288 q 267 172 232 214 q 376 129 301 129 z "},"R":{"ha":833,"x_min":50,"x_max":821,"o":"m 50 0 l 211 1014 l 531 1014 q 696 977 629 1014 q 792 873 763 940 q 807 715 821 806 q 757 577 796 639 q 658 474 718 515 q 525 419 599 433 l 544 500 l 708 0 l 533 0 l 410 410 l 276 410 l 211 0 l 50 0 m 299 553 l 457 553 q 581 595 531 553 q 642 711 631 638 q 618 828 654 785 q 507 871 582 871 l 350 871 l 299 553 z "},"Ŕ":{"ha":833,"x_min":50,"x_max":821,"o":"m 50 0 l 211 1014 l 531 1014 q 696 977 629 1014 q 792 873 763 940 q 807 715 821 806 q 757 577 796 639 q 658 474 718 515 q 525 419 599 433 l 544 500 l 708 0 l 533 0 l 410 410 l 276 410 l 211 0 l 50 0 m 299 553 l 457 553 q 581 595 531 553 q 642 711 631 638 q 618 828 654 785 q 507 871 582 871 l 350 871 l 299 553 m 431 1125 l 607 1319 l 789 1319 l 600 1125 l 431 1125 z "},"Ř":{"ha":833,"x_min":50,"x_max":831,"o":"m 50 0 l 211 1014 l 531 1014 q 696 977 629 1014 q 792 873 763 940 q 807 715 821 806 q 757 577 796 639 q 658 474 718 515 q 525 419 599 433 l 544 500 l 708 0 l 533 0 l 410 410 l 276 410 l 211 0 l 50 0 m 299 553 l 457 553 q 581 595 531 553 q 642 711 631 638 q 618 828 654 785 q 507 871 582 871 l 350 871 l 299 553 m 458 1125 l 297 1319 l 454 1319 l 546 1217 l 665 1319 l 831 1319 l 608 1125 l 458 1125 z "},"Ŗ":{"ha":833,"x_min":50,"x_max":821,"o":"m 50 0 l 211 1014 l 531 1014 q 696 977 629 1014 q 792 873 763 940 q 807 715 821 806 q 757 577 796 639 q 658 474 718 515 q 525 419 599 433 l 544 500 l 708 0 l 533 0 l 410 410 l 276 410 l 211 0 l 50 0 m 299 553 l 457 553 q 581 595 531 553 q 642 711 631 638 q 618 828 654 785 q 507 871 582 871 l 350 871 l 299 553 m 140 -333 l 304 -132 l 478 -132 l 294 -333 l 140 -333 z "},"S":{"ha":833,"x_min":46,"x_max":811,"o":"m 356 -14 q 124 63 203 -14 q 67 269 46 139 l 228 269 q 258 167 218 204 q 381 129 299 129 q 508 166 458 129 q 568 268 558 203 q 553 365 578 325 q 478 421 529 406 l 361 456 q 199 564 251 486 q 164 747 147 642 q 226 896 178 833 q 349 994 274 958 q 521 1029 425 1029 q 738 953 665 1029 q 792 751 811 878 l 631 751 q 606 850 640 814 q 497 886 572 886 q 381 852 426 886 q 328 758 336 818 q 341 660 318 701 q 415 604 364 619 l 535 568 q 697 459 646 536 q 731 274 747 382 q 666 122 718 186 q 535 22 614 57 q 356 -14 456 -14 z "},"Ś":{"ha":833,"x_min":46,"x_max":811,"o":"m 356 -14 q 124 63 203 -14 q 67 269 46 139 l 228 269 q 258 167 218 204 q 381 129 299 129 q 508 166 458 129 q 568 268 558 203 q 553 365 578 325 q 478 421 529 406 l 361 456 q 199 564 251 486 q 164 747 147 642 q 226 896 178 833 q 349 994 274 958 q 521 1029 425 1029 q 738 953 665 1029 q 792 751 811 878 l 631 751 q 606 850 640 814 q 497 886 572 886 q 381 852 426 886 q 328 758 336 818 q 341 660 318 701 q 415 604 364 619 l 535 568 q 697 459 646 536 q 731 274 747 382 q 666 122 718 186 q 535 22 614 57 q 356 -14 456 -14 m 431 1125 l 607 1319 l 789 1319 l 600 1125 l 431 1125 z "},"Š":{"ha":833,"x_min":46,"x_max":831,"o":"m 356 -14 q 124 63 203 -14 q 67 269 46 139 l 228 269 q 258 167 218 204 q 381 129 299 129 q 508 166 458 129 q 568 268 558 203 q 553 365 578 325 q 478 421 529 406 l 361 456 q 199 564 251 486 q 164 747 147 642 q 226 896 178 833 q 349 994 274 958 q 521 1029 425 1029 q 738 953 665 1029 q 792 751 811 878 l 631 751 q 606 850 640 814 q 497 886 572 886 q 381 852 426 886 q 328 758 336 818 q 341 660 318 701 q 415 604 364 619 l 535 568 q 697 459 646 536 q 731 274 747 382 q 666 122 718 186 q 535 22 614 57 q 356 -14 456 -14 m 458 1125 l 297 1319 l 454 1319 l 546 1217 l 665 1319 l 831 1319 l 608 1125 l 458 1125 z "},"Ş":{"ha":833,"x_min":46,"x_max":811,"o":"m 171 -296 l 185 -210 l 288 -210 q 342 -194 319 -210 q 367 -160 365 -178 q 335 -114 372 -132 q 225 -96 297 -96 l 293 31 l 382 31 l 342 -51 q 420 -69 381 -54 q 484 -110 460 -83 q 503 -175 508 -136 q 440 -260 494 -224 q 304 -296 385 -296 l 171 -296 m 356 -14 q 124 63 203 -14 q 67 269 46 139 l 228 269 q 258 167 218 204 q 381 129 299 129 q 508 166 458 129 q 568 268 558 203 q 553 365 578 325 q 478 421 529 406 l 361 456 q 199 564 251 486 q 164 747 147 642 q 226 896 178 833 q 349 994 274 958 q 521 1029 425 1029 q 738 953 665 1029 q 792 751 811 878 l 631 751 q 606 850 640 814 q 497 886 572 886 q 381 852 426 886 q 328 758 336 818 q 341 660 318 701 q 415 604 364 619 l 535 568 q 697 459 646 536 q 731 274 747 382 q 666 122 718 186 q 535 22 614 57 q 356 -14 456 -14 z "},"Ŝ":{"ha":833,"x_min":46,"x_max":811,"o":"m 356 -14 q 124 63 203 -14 q 67 269 46 139 l 228 269 q 258 167 218 204 q 381 129 299 129 q 508 166 458 129 q 568 268 558 203 q 553 365 578 325 q 478 421 529 406 l 361 456 q 199 564 251 486 q 164 747 147 642 q 226 896 178 833 q 349 994 274 958 q 521 1029 425 1029 q 738 953 665 1029 q 792 751 811 878 l 631 751 q 606 850 640 814 q 497 886 572 886 q 381 852 426 886 q 328 758 336 818 q 341 660 318 701 q 415 604 364 619 l 535 568 q 697 459 646 536 q 731 274 747 382 q 666 122 718 186 q 535 22 614 57 q 356 -14 456 -14 m 267 1125 l 489 1319 l 639 1319 l 800 1125 l 643 1125 l 553 1228 l 432 1125 l 267 1125 z "},"Ș":{"ha":833,"x_min":46,"x_max":811,"o":"m 356 -14 q 124 63 203 -14 q 67 269 46 139 l 228 269 q 258 167 218 204 q 381 129 299 129 q 508 166 458 129 q 568 268 558 203 q 553 365 578 325 q 478 421 529 406 l 361 456 q 199 564 251 486 q 164 747 147 642 q 226 896 178 833 q 349 994 274 958 q 521 1029 425 1029 q 738 953 665 1029 q 792 751 811 878 l 631 751 q 606 850 640 814 q 497 886 572 886 q 381 852 426 886 q 328 758 336 818 q 341 660 318 701 q 415 604 364 619 l 535 568 q 697 459 646 536 q 731 274 747 382 q 666 122 718 186 q 535 22 614 57 q 356 -14 456 -14 m 140 -333 l 304 -132 l 478 -132 l 294 -333 l 140 -333 z "},"ẞ":{"ha":833,"x_min":47,"x_max":846,"o":"m 47 0 l 161 719 q 224 875 175 808 q 348 978 272 942 q 515 1014 424 1014 l 846 1014 l 821 860 l 510 533 l 510 589 q 703 512 639 592 q 747 299 768 432 q 683 142 733 210 q 556 38 633 75 q 382 0 479 0 l 297 0 l 321 140 l 393 140 q 520 185 469 140 q 583 306 571 231 q 558 424 594 381 q 446 468 521 468 l 382 468 l 401 597 l 661 874 l 493 874 q 374 833 422 874 q 314 719 325 792 l 200 0 l 47 0 z "},"Ə":{"ha":833,"x_min":76,"x_max":803,"o":"m 353 -14 q 194 23 258 -14 q 103 127 131 60 q 90 283 76 194 l 135 565 l 593 565 l 619 731 q 601 846 632 806 q 497 886 571 886 q 381 846 425 886 q 324 731 336 806 l 163 731 q 224 888 176 821 q 348 992 272 956 q 518 1028 424 1028 q 733 947 664 1028 q 781 731 803 867 l 711 283 q 649 127 697 194 q 524 23 600 60 q 353 -14 449 -14 m 375 115 q 494 159 453 115 q 549 283 536 203 l 574 443 l 265 443 l 281 456 l 253 283 q 269 158 240 200 q 375 115 299 115 z "},"T":{"ha":833,"x_min":143,"x_max":867,"o":"m 275 0 l 411 865 l 143 865 l 167 1015 l 867 1015 l 842 865 l 574 865 l 436 0 l 275 0 z "},"Ŧ":{"ha":833,"x_min":143,"x_max":867,"o":"m 149 397 l 169 526 l 710 526 l 689 397 l 149 397 m 275 0 l 411 865 l 143 865 l 167 1015 l 867 1015 l 842 865 l 574 865 l 436 0 l 275 0 z "},"Ť":{"ha":833,"x_min":143,"x_max":867,"o":"m 275 0 l 411 865 l 143 865 l 167 1015 l 867 1015 l 842 865 l 574 865 l 436 0 l 275 0 m 458 1125 l 297 1319 l 454 1319 l 546 1217 l 665 1319 l 831 1319 l 608 1125 l 458 1125 z "},"Ţ":{"ha":833,"x_min":143,"x_max":867,"o":"m 240 -296 l 254 -210 l 357 -210 q 413 -194 390 -210 q 436 -160 435 -178 q 404 -114 442 -132 q 294 -96 367 -96 l 363 31 l 436 0 l 411 -51 q 490 -69 450 -54 q 553 -110 529 -83 q 572 -175 578 -136 q 509 -260 564 -224 q 374 -296 454 -296 l 240 -296 m 275 0 l 411 865 l 143 865 l 167 1015 l 867 1015 l 842 865 l 574 865 l 436 0 l 275 0 z "},"Ț":{"ha":833,"x_min":89,"x_max":867,"o":"m 275 0 l 411 865 l 143 865 l 167 1015 l 867 1015 l 842 865 l 574 865 l 436 0 l 275 0 m 89 -333 l 253 -132 l 426 -132 l 243 -333 l 89 -333 z "},"U":{"ha":833,"x_min":69,"x_max":826,"o":"m 353 -14 q 138 67 206 -14 q 92 286 69 147 l 207 1014 l 368 1014 l 253 288 q 272 170 240 213 q 376 128 303 128 q 493 170 449 128 q 550 288 538 213 l 665 1014 l 826 1014 l 711 286 q 649 126 697 193 q 526 22 601 58 q 353 -14 451 -14 z "},"Ú":{"ha":833,"x_min":69,"x_max":826,"o":"m 353 -14 q 138 67 206 -14 q 92 286 69 147 l 207 1014 l 368 1014 l 253 288 q 272 170 240 213 q 376 128 303 128 q 493 170 449 128 q 550 288 538 213 l 665 1014 l 826 1014 l 711 286 q 649 126 697 193 q 526 22 601 58 q 353 -14 451 -14 m 431 1125 l 607 1319 l 789 1319 l 600 1125 l 431 1125 z "},"Ŭ":{"ha":833,"x_min":69,"x_max":826,"o":"m 353 -14 q 138 67 206 -14 q 92 286 69 147 l 207 1014 l 368 1014 l 253 288 q 272 170 240 213 q 376 128 303 128 q 493 170 449 128 q 550 288 538 213 l 665 1014 l 826 1014 l 711 286 q 649 126 697 193 q 526 22 601 58 q 353 -14 451 -14 m 532 1115 q 369 1172 426 1115 q 326 1319 313 1228 l 450 1319 q 469 1243 443 1272 q 544 1214 494 1214 q 631 1243 596 1214 q 674 1319 667 1272 l 801 1319 q 713 1172 788 1228 q 532 1115 639 1115 z "},"Û":{"ha":833,"x_min":69,"x_max":826,"o":"m 353 -14 q 138 67 206 -14 q 92 286 69 147 l 207 1014 l 368 1014 l 253 288 q 272 170 240 213 q 376 128 303 128 q 493 170 449 128 q 550 288 538 213 l 665 1014 l 826 1014 l 711 286 q 649 126 697 193 q 526 22 601 58 q 353 -14 451 -14 m 267 1125 l 489 1319 l 639 1319 l 800 1125 l 643 1125 l 553 1228 l 432 1125 l 267 1125 z "},"Ü":{"ha":833,"x_min":69,"x_max":826,"o":"m 353 -14 q 138 67 206 -14 q 92 286 69 147 l 207 1014 l 368 1014 l 253 288 q 272 170 240 213 q 376 128 303 128 q 493 170 449 128 q 550 288 538 213 l 665 1014 l 826 1014 l 711 286 q 649 126 697 193 q 526 22 601 58 q 353 -14 451 -14 m 694 1125 q 626 1151 649 1125 q 611 1222 604 1178 q 649 1294 618 1268 q 726 1321 681 1321 q 793 1294 771 1321 q 808 1222 815 1268 q 772 1151 803 1178 q 694 1125 740 1125 m 372 1125 q 306 1151 328 1125 q 289 1222 283 1178 q 328 1294 297 1268 q 404 1321 358 1321 q 472 1294 450 1321 q 486 1222 494 1268 q 449 1151 481 1178 q 372 1125 418 1125 z "},"Ụ":{"ha":833,"x_min":69,"x_max":826,"o":"m 353 -14 q 138 67 206 -14 q 92 286 69 147 l 207 1014 l 368 1014 l 253 288 q 272 170 240 213 q 376 128 303 128 q 493 170 449 128 q 550 288 538 213 l 665 1014 l 826 1014 l 711 286 q 649 126 697 193 q 526 22 601 58 q 353 -14 451 -14 m 307 -308 q 231 -282 256 -308 q 211 -211 206 -256 q 253 -140 219 -167 q 338 -112 288 -112 q 414 -140 389 -112 q 432 -211 439 -167 q 391 -282 425 -256 q 307 -308 357 -308 z "},"Ù":{"ha":833,"x_min":69,"x_max":826,"o":"m 353 -14 q 138 67 206 -14 q 92 286 69 147 l 207 1014 l 368 1014 l 253 288 q 272 170 240 213 q 376 128 303 128 q 493 170 449 128 q 550 288 538 213 l 665 1014 l 826 1014 l 711 286 q 649 126 697 193 q 526 22 601 58 q 353 -14 451 -14 m 474 1125 l 343 1319 l 514 1319 l 632 1125 l 474 1125 z "},"Ủ":{"ha":833,"x_min":69,"x_max":826,"o":"m 353 -14 q 138 67 206 -14 q 92 286 69 147 l 207 1014 l 368 1014 l 253 288 q 272 170 240 213 q 376 128 303 128 q 493 170 449 128 q 550 288 538 213 l 665 1014 l 826 1014 l 711 286 q 649 126 697 193 q 526 22 601 58 q 353 -14 451 -14 m 454 1108 l 536 1193 q 556 1217 549 1206 q 564 1236 563 1228 q 529 1261 568 1261 l 424 1261 l 440 1364 l 586 1364 q 676 1335 644 1364 q 699 1254 707 1306 q 685 1212 696 1232 q 660 1175 675 1192 l 596 1108 l 454 1108 z "},"Ư":{"ha":833,"x_min":69,"x_max":985,"o":"m 693 903 l 711 1014 l 781 1014 q 818 1027 803 1014 q 836 1063 833 1040 l 853 1167 l 985 1167 l 967 1058 q 902 945 956 988 q 772 903 849 903 l 693 903 m 353 -14 q 138 67 206 -14 q 92 286 69 147 l 207 1014 l 368 1014 l 253 288 q 272 170 240 213 q 376 128 303 128 q 493 170 449 128 q 550 288 538 213 l 665 1014 l 826 1014 l 711 286 q 649 126 697 193 q 526 22 601 58 q 353 -14 451 -14 z "},"Ứ":{"ha":833,"x_min":69,"x_max":985,"o":"m 693 903 l 711 1014 l 781 1014 q 818 1027 803 1014 q 836 1063 833 1040 l 853 1167 l 985 1167 l 967 1058 q 902 945 956 988 q 772 903 849 903 l 693 903 m 353 -14 q 138 67 206 -14 q 92 286 69 147 l 207 1014 l 368 1014 l 253 288 q 272 170 240 213 q 376 128 303 128 q 493 170 449 128 q 550 288 538 213 l 665 1014 l 826 1014 l 711 286 q 649 126 697 193 q 526 22 601 58 q 353 -14 451 -14 m 431 1125 l 607 1319 l 789 1319 l 600 1125 l 431 1125 z "},"Ự":{"ha":833,"x_min":69,"x_max":985,"o":"m 321 -308 q 244 -282 269 -308 q 225 -211 219 -256 q 267 -140 233 -167 q 351 -112 301 -112 q 428 -140 403 -112 q 446 -211 453 -167 q 405 -282 439 -256 q 321 -308 371 -308 m 693 903 l 711 1014 l 781 1014 q 818 1027 803 1014 q 836 1063 833 1040 l 853 1167 l 985 1167 l 967 1058 q 902 945 956 988 q 772 903 849 903 l 693 903 m 353 -14 q 138 67 206 -14 q 92 286 69 147 l 207 1014 l 368 1014 l 253 288 q 272 170 240 213 q 376 128 303 128 q 493 170 449 128 q 550 288 538 213 l 665 1014 l 826 1014 l 711 286 q 649 126 697 193 q 526 22 601 58 q 353 -14 451 -14 z "},"Ừ":{"ha":833,"x_min":69,"x_max":985,"o":"m 693 903 l 711 1014 l 781 1014 q 818 1027 803 1014 q 836 1063 833 1040 l 853 1167 l 985 1167 l 967 1058 q 902 945 956 988 q 772 903 849 903 l 693 903 m 353 -14 q 138 67 206 -14 q 92 286 69 147 l 207 1014 l 368 1014 l 253 288 q 272 170 240 213 q 376 128 303 128 q 493 170 449 128 q 550 288 538 213 l 665 1014 l 826 1014 l 711 286 q 649 126 697 193 q 526 22 601 58 q 353 -14 451 -14 m 474 1125 l 343 1319 l 514 1319 l 632 1125 l 474 1125 z "},"Ử":{"ha":833,"x_min":69,"x_max":985,"o":"m 693 903 l 711 1014 l 781 1014 q 818 1027 803 1014 q 836 1063 833 1040 l 853 1167 l 985 1167 l 967 1058 q 902 945 956 988 q 772 903 849 903 l 693 903 m 353 -14 q 138 67 206 -14 q 92 286 69 147 l 207 1014 l 368 1014 l 253 288 q 272 170 240 213 q 376 128 303 128 q 493 170 449 128 q 550 288 538 213 l 665 1014 l 826 1014 l 711 286 q 649 126 697 193 q 526 22 601 58 q 353 -14 451 -14 m 454 1108 l 536 1193 q 556 1217 549 1206 q 564 1236 563 1228 q 529 1261 568 1261 l 424 1261 l 440 1364 l 586 1364 q 676 1335 644 1364 q 699 1254 707 1306 q 685 1212 696 1232 q 660 1175 675 1192 l 596 1108 l 454 1108 z "},"Ữ":{"ha":833,"x_min":69,"x_max":985,"o":"m 693 903 l 711 1014 l 781 1014 q 818 1027 803 1014 q 836 1063 833 1040 l 853 1167 l 985 1167 l 967 1058 q 902 945 956 988 q 772 903 849 903 l 693 903 m 353 -14 q 138 67 206 -14 q 92 286 69 147 l 207 1014 l 368 1014 l 253 288 q 272 170 240 213 q 376 128 303 128 q 493 170 449 128 q 550 288 538 213 l 665 1014 l 826 1014 l 711 286 q 649 126 697 193 q 526 22 601 58 q 353 -14 451 -14 m 631 1122 q 563 1136 588 1122 q 524 1168 539 1150 q 494 1200 508 1186 q 457 1214 479 1214 q 425 1201 439 1214 q 408 1167 411 1189 l 403 1129 l 300 1129 l 307 1175 q 363 1282 318 1242 q 468 1322 407 1322 q 535 1308 511 1322 q 575 1276 560 1294 q 605 1244 590 1258 q 642 1231 619 1231 q 674 1242 661 1231 q 689 1275 686 1253 l 696 1315 l 799 1315 l 792 1269 q 737 1163 781 1203 q 631 1122 693 1122 z "},"Ű":{"ha":833,"x_min":69,"x_max":911,"o":"m 353 -14 q 138 67 206 -14 q 92 286 69 147 l 207 1014 l 368 1014 l 253 288 q 272 170 240 213 q 376 128 303 128 q 493 170 449 128 q 550 288 538 213 l 665 1014 l 826 1014 l 711 286 q 649 126 697 193 q 526 22 601 58 q 353 -14 451 -14 m 567 1125 l 747 1319 l 911 1319 l 721 1125 l 567 1125 m 290 1125 l 471 1319 l 635 1319 l 444 1125 l 290 1125 z "},"Ū":{"ha":833,"x_min":69,"x_max":826,"o":"m 353 -14 q 138 67 206 -14 q 92 286 69 147 l 207 1014 l 368 1014 l 253 288 q 272 170 240 213 q 376 128 303 128 q 493 170 449 128 q 550 288 538 213 l 665 1014 l 826 1014 l 711 286 q 649 126 697 193 q 526 22 601 58 q 353 -14 451 -14 m 304 1154 l 324 1281 l 793 1281 l 774 1154 l 304 1154 z "},"Ų":{"ha":833,"x_min":76,"x_max":826,"o":"m 403 -296 q 282 -256 324 -296 q 251 -156 240 -217 q 274 -102 254 -131 q 326 -45 294 -74 q 396 6 358 -17 q 382 -6 393 1 q 353 -14 371 -14 q 194 22 257 -14 q 103 126 131 58 q 90 283 76 193 l 207 1014 l 368 1014 l 253 283 q 272 169 240 210 q 376 129 303 129 q 492 169 449 129 q 549 283 536 210 l 665 1014 l 826 1014 l 711 283 q 653 135 697 200 q 543 32 610 69 l 485 -10 q 422 -70 443 -42 q 397 -122 401 -99 q 410 -167 394 -149 q 458 -185 425 -185 l 547 -185 l 529 -296 l 403 -296 z "},"Ů":{"ha":833,"x_min":69,"x_max":826,"o":"m 353 -14 q 138 67 206 -14 q 92 286 69 147 l 207 1014 l 368 1014 l 253 288 q 272 170 240 213 q 376 128 303 128 q 493 170 449 128 q 550 288 538 213 l 665 1014 l 826 1014 l 711 286 q 649 126 697 193 q 526 22 601 58 q 353 -14 451 -14 m 522 1056 q 400 1101 442 1056 q 369 1222 358 1147 q 438 1343 382 1297 q 575 1389 494 1389 q 697 1343 656 1389 q 728 1222 739 1297 q 660 1101 717 1147 q 522 1056 603 1056 m 536 1140 q 600 1163 574 1140 q 632 1222 626 1185 q 619 1283 639 1260 q 563 1306 600 1306 q 499 1283 525 1306 q 465 1222 472 1260 q 479 1163 460 1185 q 536 1140 499 1140 z "},"Ũ":{"ha":833,"x_min":69,"x_max":826,"o":"m 353 -14 q 138 67 206 -14 q 92 286 69 147 l 207 1014 l 368 1014 l 253 288 q 272 170 240 213 q 376 128 303 128 q 493 170 449 128 q 550 288 538 213 l 665 1014 l 826 1014 l 711 286 q 649 126 697 193 q 526 22 601 58 q 353 -14 451 -14 m 631 1122 q 563 1136 588 1122 q 524 1168 539 1150 q 494 1200 508 1186 q 457 1214 479 1214 q 425 1201 439 1214 q 408 1167 411 1189 l 403 1129 l 300 1129 l 307 1175 q 363 1282 318 1242 q 468 1322 407 1322 q 535 1308 511 1322 q 575 1276 560 1294 q 605 1244 590 1258 q 642 1231 619 1231 q 674 1242 661 1231 q 689 1275 686 1253 l 696 1315 l 799 1315 l 792 1269 q 737 1163 781 1203 q 631 1122 693 1122 z "},"V":{"ha":833,"x_min":154,"x_max":879,"o":"m 250 0 l 154 1014 l 318 1014 l 369 346 q 378 234 375 292 q 381 143 381 176 q 410 234 392 176 q 451 347 429 292 l 713 1014 l 879 1014 l 461 0 l 250 0 z "},"W":{"ha":833,"x_min":71,"x_max":908,"o":"m 71 0 l 125 1014 l 264 1014 l 215 296 q 210 237 214 271 q 203 169 207 203 q 197 111 200 136 q 212 169 204 136 q 228 237 219 203 q 244 296 238 271 l 444 1014 l 590 1014 l 556 296 q 553 237 554 271 q 550 169 551 203 q 547 111 549 136 q 560 169 553 136 q 574 237 567 203 q 589 296 582 271 l 768 1014 l 908 1014 l 635 0 l 451 0 l 488 724 q 492 786 489 753 q 497 853 494 819 q 500 910 499 886 q 488 853 496 886 q 471 786 479 819 q 454 724 463 753 l 256 0 l 71 0 z "},"Ẃ":{"ha":833,"x_min":71,"x_max":908,"o":"m 71 0 l 125 1014 l 264 1014 l 215 296 q 210 237 214 271 q 203 169 207 203 q 197 111 200 136 q 212 169 204 136 q 228 237 219 203 q 244 296 238 271 l 444 1014 l 590 1014 l 556 296 q 553 237 554 271 q 550 169 551 203 q 547 111 549 136 q 560 169 553 136 q 574 237 567 203 q 589 296 582 271 l 768 1014 l 908 1014 l 635 0 l 451 0 l 488 724 q 492 786 489 753 q 497 853 494 819 q 500 910 499 886 q 488 853 496 886 q 471 786 479 819 q 454 724 463 753 l 256 0 l 71 0 m 431 1125 l 607 1319 l 789 1319 l 600 1125 l 431 1125 z "},"Ŵ":{"ha":833,"x_min":71,"x_max":908,"o":"m 71 0 l 125 1014 l 264 1014 l 215 296 q 210 237 214 271 q 203 169 207 203 q 197 111 200 136 q 212 169 204 136 q 228 237 219 203 q 244 296 238 271 l 444 1014 l 590 1014 l 556 296 q 553 237 554 271 q 550 169 551 203 q 547 111 549 136 q 560 169 553 136 q 574 237 567 203 q 589 296 582 271 l 768 1014 l 908 1014 l 635 0 l 451 0 l 488 724 q 492 786 489 753 q 497 853 494 819 q 500 910 499 886 q 488 853 496 886 q 471 786 479 819 q 454 724 463 753 l 256 0 l 71 0 m 267 1125 l 489 1319 l 639 1319 l 800 1125 l 643 1125 l 553 1228 l 432 1125 l 267 1125 z "},"Ẅ":{"ha":833,"x_min":71,"x_max":908,"o":"m 71 0 l 125 1014 l 264 1014 l 215 296 q 210 237 214 271 q 203 169 207 203 q 197 111 200 136 q 212 169 204 136 q 228 237 219 203 q 244 296 238 271 l 444 1014 l 590 1014 l 556 296 q 553 237 554 271 q 550 169 551 203 q 547 111 549 136 q 560 169 553 136 q 574 237 567 203 q 589 296 582 271 l 768 1014 l 908 1014 l 635 0 l 451 0 l 488 724 q 492 786 489 753 q 497 853 494 819 q 500 910 499 886 q 488 853 496 886 q 471 786 479 819 q 454 724 463 753 l 256 0 l 71 0 m 694 1125 q 626 1151 649 1125 q 611 1222 604 1178 q 649 1294 618 1268 q 726 1321 681 1321 q 793 1294 771 1321 q 808 1222 815 1268 q 772 1151 803 1178 q 694 1125 740 1125 m 372 1125 q 306 1151 328 1125 q 289 1222 283 1178 q 328 1294 297 1268 q 404 1321 358 1321 q 472 1294 450 1321 q 486 1222 494 1268 q 449 1151 481 1178 q 372 1125 418 1125 z "},"Ẁ":{"ha":833,"x_min":71,"x_max":908,"o":"m 71 0 l 125 1014 l 264 1014 l 215 296 q 210 237 214 271 q 203 169 207 203 q 197 111 200 136 q 212 169 204 136 q 228 237 219 203 q 244 296 238 271 l 444 1014 l 590 1014 l 556 296 q 553 237 554 271 q 550 169 551 203 q 547 111 549 136 q 560 169 553 136 q 574 237 567 203 q 589 296 582 271 l 768 1014 l 908 1014 l 635 0 l 451 0 l 488 724 q 492 786 489 753 q 497 853 494 819 q 500 910 499 886 q 488 853 496 886 q 471 786 479 819 q 454 724 463 753 l 256 0 l 71 0 m 474 1125 l 343 1319 l 514 1319 l 632 1125 l 474 1125 z "},"X":{"ha":833,"x_min":-18,"x_max":874,"o":"m -18 0 l 347 522 l 160 1014 l 336 1014 l 428 749 q 445 696 436 722 q 458 656 454 669 q 481 696 467 669 q 513 749 494 722 l 692 1014 l 874 1014 l 531 519 l 729 0 l 554 0 l 449 290 q 431 344 439 317 q 418 386 422 371 q 395 344 411 371 q 363 292 379 318 l 165 0 l -18 0 z "},"Y":{"ha":833,"x_min":136,"x_max":897,"o":"m 275 0 l 333 371 l 136 1014 l 301 1014 l 411 646 q 428 571 422 607 q 436 514 435 535 q 461 571 444 535 q 501 646 478 607 l 725 1014 l 897 1014 l 494 371 l 436 0 l 275 0 z "},"Ý":{"ha":833,"x_min":136,"x_max":897,"o":"m 275 0 l 333 371 l 136 1014 l 301 1014 l 411 646 q 428 571 422 607 q 436 514 435 535 q 461 571 444 535 q 501 646 478 607 l 725 1014 l 897 1014 l 494 371 l 436 0 l 275 0 m 431 1125 l 607 1319 l 789 1319 l 600 1125 l 431 1125 z "},"Ŷ":{"ha":833,"x_min":136,"x_max":897,"o":"m 275 0 l 333 371 l 136 1014 l 301 1014 l 411 646 q 428 571 422 607 q 436 514 435 535 q 461 571 444 535 q 501 646 478 607 l 725 1014 l 897 1014 l 494 371 l 436 0 l 275 0 m 267 1125 l 489 1319 l 639 1319 l 800 1125 l 643 1125 l 553 1228 l 432 1125 l 267 1125 z "},"Ÿ":{"ha":833,"x_min":136,"x_max":897,"o":"m 275 0 l 333 371 l 136 1014 l 301 1014 l 411 646 q 428 571 422 607 q 436 514 435 535 q 461 571 444 535 q 501 646 478 607 l 725 1014 l 897 1014 l 494 371 l 436 0 l 275 0 m 694 1125 q 626 1151 649 1125 q 611 1222 604 1178 q 649 1294 618 1268 q 726 1321 681 1321 q 793 1294 771 1321 q 808 1222 815 1268 q 772 1151 803 1178 q 694 1125 740 1125 m 372 1125 q 306 1151 328 1125 q 289 1222 283 1178 q 328 1294 297 1268 q 404 1321 358 1321 q 472 1294 450 1321 q 486 1222 494 1268 q 449 1151 481 1178 q 372 1125 418 1125 z "},"Ỵ":{"ha":833,"x_min":136,"x_max":897,"o":"m 275 0 l 333 371 l 136 1014 l 301 1014 l 411 646 q 428 571 422 607 q 436 514 435 535 q 461 571 444 535 q 501 646 478 607 l 725 1014 l 897 1014 l 494 371 l 436 0 l 275 0 m 321 -308 q 244 -282 269 -308 q 225 -211 219 -256 q 267 -140 233 -167 q 351 -112 301 -112 q 428 -140 403 -112 q 446 -211 453 -167 q 405 -282 439 -256 q 321 -308 371 -308 z "},"Ỳ":{"ha":833,"x_min":136,"x_max":897,"o":"m 275 0 l 333 371 l 136 1014 l 301 1014 l 411 646 q 428 571 422 607 q 436 514 435 535 q 461 571 444 535 q 501 646 478 607 l 725 1014 l 897 1014 l 494 371 l 436 0 l 275 0 m 474 1125 l 343 1319 l 514 1319 l 632 1125 l 474 1125 z "},"Ỷ":{"ha":833,"x_min":136,"x_max":897,"o":"m 275 0 l 333 371 l 136 1014 l 301 1014 l 411 646 q 428 571 422 607 q 436 514 435 535 q 461 571 444 535 q 501 646 478 607 l 725 1014 l 897 1014 l 494 371 l 436 0 l 275 0 m 454 1108 l 536 1193 q 556 1217 549 1206 q 564 1236 563 1228 q 529 1261 568 1261 l 424 1261 l 440 1364 l 586 1364 q 676 1335 644 1364 q 699 1254 707 1306 q 685 1212 696 1232 q 660 1175 675 1192 l 596 1108 l 454 1108 z "},"Ȳ":{"ha":833,"x_min":136,"x_max":897,"o":"m 275 0 l 333 371 l 136 1014 l 301 1014 l 411 646 q 428 571 422 607 q 436 514 435 535 q 461 571 444 535 q 501 646 478 607 l 725 1014 l 897 1014 l 494 371 l 436 0 l 275 0 m 304 1154 l 324 1281 l 793 1281 l 774 1154 l 304 1154 z "},"Ỹ":{"ha":833,"x_min":136,"x_max":897,"o":"m 275 0 l 333 371 l 136 1014 l 301 1014 l 411 646 q 428 571 422 607 q 436 514 435 535 q 461 571 444 535 q 501 646 478 607 l 725 1014 l 897 1014 l 494 371 l 436 0 l 275 0 m 631 1122 q 563 1136 588 1122 q 524 1168 539 1150 q 494 1200 508 1186 q 457 1214 479 1214 q 425 1201 439 1214 q 408 1167 411 1189 l 403 1129 l 300 1129 l 307 1175 q 363 1282 318 1242 q 468 1322 407 1322 q 535 1308 511 1322 q 575 1276 560 1294 q 605 1244 590 1258 q 642 1231 619 1231 q 674 1242 661 1231 q 689 1275 686 1253 l 696 1315 l 799 1315 l 792 1269 q 737 1163 781 1203 q 631 1122 693 1122 z "},"Z":{"ha":833,"x_min":51,"x_max":807,"o":"m 51 0 l 76 156 l 603 864 l 196 864 l 221 1014 l 807 1014 l 781 858 l 254 150 l 683 150 l 660 0 l 51 0 z "},"Ź":{"ha":833,"x_min":51,"x_max":807,"o":"m 51 0 l 76 156 l 603 864 l 196 864 l 221 1014 l 807 1014 l 781 858 l 254 150 l 683 150 l 660 0 l 51 0 m 431 1125 l 607 1319 l 789 1319 l 600 1125 l 431 1125 z "},"Ž":{"ha":833,"x_min":51,"x_max":831,"o":"m 51 0 l 76 156 l 603 864 l 196 864 l 221 1014 l 807 1014 l 781 858 l 254 150 l 683 150 l 660 0 l 51 0 m 458 1125 l 297 1319 l 454 1319 l 546 1217 l 665 1319 l 831 1319 l 608 1125 l 458 1125 z "},"Ż":{"ha":833,"x_min":51,"x_max":807,"o":"m 51 0 l 76 156 l 603 864 l 196 864 l 221 1014 l 807 1014 l 781 858 l 254 150 l 683 150 l 660 0 l 51 0 m 533 1125 q 458 1151 483 1125 q 439 1222 432 1178 q 480 1293 446 1267 q 565 1319 514 1319 q 641 1293 615 1319 q 658 1222 667 1267 q 619 1151 653 1178 q 533 1125 585 1125 z "},"a":{"ha":833,"x_min":67,"x_max":782,"o":"m 293 -14 q 123 65 179 -14 q 89 276 67 143 l 122 488 q 178 642 136 576 q 281 742 219 707 q 419 778 343 778 q 561 725 514 778 q 594 581 608 672 l 564 618 l 601 618 l 621 764 l 782 764 l 661 0 l 503 0 l 526 146 l 490 146 l 532 183 q 452 39 517 92 q 293 -14 388 -14 m 374 126 q 487 168 442 126 q 544 283 532 210 l 575 481 q 555 596 588 554 q 454 638 522 638 q 340 597 383 638 q 282 481 296 556 l 251 283 q 271 167 239 208 q 374 126 303 126 z "},"á":{"ha":833,"x_min":67,"x_max":782,"o":"m 293 -14 q 123 65 179 -14 q 89 276 67 143 l 122 488 q 178 642 136 576 q 281 742 219 707 q 419 778 343 778 q 561 725 514 778 q 594 581 608 672 l 564 618 l 601 618 l 621 764 l 782 764 l 661 0 l 503 0 l 526 146 l 490 146 l 532 183 q 452 39 517 92 q 293 -14 388 -14 m 374 126 q 487 168 442 126 q 544 283 532 210 l 575 481 q 555 596 588 554 q 454 638 522 638 q 340 597 383 638 q 282 481 296 556 l 251 283 q 271 167 239 208 q 374 126 303 126 m 401 896 l 578 1090 l 760 1090 l 571 896 l 401 896 z "},"ă":{"ha":833,"x_min":67,"x_max":782,"o":"m 293 -14 q 123 65 179 -14 q 89 276 67 143 l 122 488 q 178 642 136 576 q 281 742 219 707 q 419 778 343 778 q 561 725 514 778 q 594 581 608 672 l 564 618 l 601 618 l 621 764 l 782 764 l 661 0 l 503 0 l 526 146 l 490 146 l 532 183 q 452 39 517 92 q 293 -14 388 -14 m 374 126 q 487 168 442 126 q 544 283 532 210 l 575 481 q 555 596 588 554 q 454 638 522 638 q 340 597 383 638 q 282 481 296 556 l 251 283 q 271 167 239 208 q 374 126 303 126 m 503 886 q 340 942 397 886 q 297 1090 283 999 l 421 1090 q 440 1014 414 1043 q 515 985 465 985 q 602 1014 567 985 q 644 1090 638 1043 l 772 1090 q 684 942 758 999 q 503 886 610 886 z "},"ắ":{"ha":833,"x_min":67,"x_max":782,"o":"m 293 -14 q 123 65 179 -14 q 89 276 67 143 l 122 488 q 178 642 136 576 q 281 742 219 707 q 419 778 343 778 q 561 725 514 778 q 594 581 608 672 l 564 618 l 601 618 l 621 764 l 782 764 l 661 0 l 503 0 l 526 146 l 490 146 l 532 183 q 452 39 517 92 q 293 -14 388 -14 m 374 126 q 487 168 442 126 q 544 283 532 210 l 575 481 q 555 596 588 554 q 454 638 522 638 q 340 597 383 638 q 282 481 296 556 l 251 283 q 271 167 239 208 q 374 126 303 126 m 496 886 q 328 938 389 886 q 281 1072 267 989 l 400 1072 q 424 1010 394 1032 q 510 988 453 988 q 604 1010 568 988 q 647 1072 640 1032 l 771 1072 q 724 975 763 1017 q 627 910 686 933 q 496 886 568 886 m 435 1071 l 625 1257 l 782 1257 l 582 1071 l 435 1071 z "},"ặ":{"ha":833,"x_min":67,"x_max":782,"o":"m 506 886 q 343 942 400 886 q 300 1090 286 999 l 424 1090 q 442 1014 417 1043 q 518 985 468 985 q 605 1014 569 985 q 647 1090 640 1043 l 775 1090 q 687 942 761 999 q 506 886 613 886 m 293 -14 q 123 65 179 -14 q 89 276 67 143 l 122 488 q 178 642 136 576 q 281 742 219 707 q 419 778 343 778 q 561 725 514 778 q 594 581 608 672 l 564 618 l 601 618 l 621 764 l 782 764 l 661 0 l 503 0 l 526 146 l 490 146 l 532 183 q 452 39 517 92 q 293 -14 388 -14 m 374 126 q 487 168 442 126 q 544 283 532 210 l 575 481 q 555 596 588 554 q 454 638 522 638 q 340 597 383 638 q 282 481 296 556 l 251 283 q 271 167 239 208 q 374 126 303 126 m 314 -308 q 238 -282 263 -308 q 218 -211 213 -256 q 260 -140 226 -167 q 344 -112 294 -112 q 421 -140 396 -112 q 439 -211 446 -167 q 398 -282 432 -256 q 314 -308 364 -308 z "},"ằ":{"ha":833,"x_min":67,"x_max":782,"o":"m 293 -14 q 123 65 179 -14 q 89 276 67 143 l 122 488 q 178 642 136 576 q 281 742 219 707 q 419 778 343 778 q 561 725 514 778 q 594 581 608 672 l 564 618 l 601 618 l 621 764 l 782 764 l 661 0 l 503 0 l 526 146 l 490 146 l 532 183 q 452 39 517 92 q 293 -14 388 -14 m 374 126 q 487 168 442 126 q 544 283 532 210 l 575 481 q 555 596 588 554 q 454 638 522 638 q 340 597 383 638 q 282 481 296 556 l 251 283 q 271 167 239 208 q 374 126 303 126 m 496 886 q 328 938 389 886 q 281 1072 267 989 l 400 1072 q 424 1010 394 1032 q 510 989 453 989 q 604 1010 568 989 q 647 1072 640 1032 l 771 1072 q 724 975 763 1017 q 627 910 686 933 q 496 886 568 886 m 471 1071 l 332 1257 l 483 1257 l 613 1071 l 471 1071 z "},"ẳ":{"ha":833,"x_min":67,"x_max":782,"o":"m 293 -14 q 123 65 179 -14 q 89 276 67 143 l 122 488 q 178 642 136 576 q 281 742 219 707 q 419 778 343 778 q 561 725 514 778 q 594 581 608 672 l 564 618 l 601 618 l 621 764 l 782 764 l 661 0 l 503 0 l 526 146 l 490 146 l 532 183 q 452 39 517 92 q 293 -14 388 -14 m 374 126 q 487 168 442 126 q 544 283 532 210 l 575 481 q 555 596 588 554 q 454 638 522 638 q 340 597 383 638 q 282 481 296 556 l 251 283 q 271 167 239 208 q 374 126 303 126 m 496 886 q 328 938 389 886 q 281 1072 267 989 l 401 1072 q 424 1010 394 1032 q 510 989 453 989 q 606 1010 569 989 q 647 1072 642 1032 l 771 1072 q 724 975 763 1017 q 627 910 686 933 q 496 886 568 886 m 444 1068 l 522 1151 q 544 1188 543 1172 q 513 1218 549 1218 l 429 1218 l 444 1317 l 558 1317 q 654 1287 621 1317 q 679 1208 688 1257 q 666 1169 676 1189 q 640 1132 656 1150 l 582 1068 l 444 1068 z "},"ẵ":{"ha":833,"x_min":67,"x_max":796,"o":"m 293 -14 q 123 65 179 -14 q 89 276 67 143 l 122 488 q 178 642 136 576 q 281 742 219 707 q 419 778 343 778 q 561 725 514 778 q 594 581 608 672 l 564 618 l 601 618 l 621 764 l 782 764 l 661 0 l 503 0 l 526 146 l 490 146 l 532 183 q 452 39 517 92 q 293 -14 388 -14 m 374 126 q 487 168 442 126 q 544 283 532 210 l 575 481 q 555 596 588 554 q 454 638 522 638 q 340 597 383 638 q 282 481 296 556 l 251 283 q 271 167 239 208 q 374 126 303 126 m 497 890 q 333 942 392 890 q 289 1076 275 993 l 404 1076 q 425 1012 397 1035 q 508 989 453 989 q 602 1012 567 989 q 644 1076 638 1035 l 764 1076 q 719 978 756 1021 q 624 913 682 936 q 497 890 567 890 m 628 1121 q 561 1135 585 1121 q 523 1167 538 1149 q 494 1199 508 1185 q 458 1213 481 1213 q 410 1168 417 1213 l 403 1129 l 300 1129 l 306 1167 q 360 1267 315 1229 q 468 1306 406 1306 q 535 1292 511 1306 q 573 1260 558 1278 q 601 1228 588 1242 q 638 1214 615 1214 q 672 1224 658 1214 q 686 1254 685 1235 l 693 1296 l 796 1296 l 790 1260 q 735 1158 781 1196 q 628 1121 690 1121 z "},"ǎ":{"ha":833,"x_min":67,"x_max":803,"o":"m 293 -14 q 123 65 179 -14 q 89 276 67 143 l 122 488 q 178 642 136 576 q 281 742 219 707 q 419 778 343 778 q 561 725 514 778 q 594 581 608 672 l 564 618 l 601 618 l 621 764 l 782 764 l 661 0 l 503 0 l 526 146 l 490 146 l 532 183 q 452 39 517 92 q 293 -14 388 -14 m 374 126 q 487 168 442 126 q 544 283 532 210 l 575 481 q 555 596 588 554 q 454 638 522 638 q 340 597 383 638 q 282 481 296 556 l 251 283 q 271 167 239 208 q 374 126 303 126 m 431 896 l 269 1090 l 426 1090 l 518 988 l 638 1090 l 803 1090 l 581 896 l 431 896 z "},"â":{"ha":833,"x_min":67,"x_max":782,"o":"m 293 -14 q 123 65 179 -14 q 89 276 67 143 l 122 488 q 178 642 136 576 q 281 742 219 707 q 419 778 343 778 q 561 725 514 778 q 594 581 608 672 l 564 618 l 601 618 l 621 764 l 782 764 l 661 0 l 503 0 l 526 146 l 490 146 l 532 183 q 452 39 517 92 q 293 -14 388 -14 m 374 126 q 487 168 442 126 q 544 283 532 210 l 575 481 q 555 596 588 554 q 454 638 522 638 q 340 597 383 638 q 282 481 296 556 l 251 283 q 271 167 239 208 q 374 126 303 126 m 238 896 l 460 1090 l 610 1090 l 771 896 l 614 896 l 524 999 l 403 896 l 238 896 z "},"ấ":{"ha":833,"x_min":67,"x_max":1043,"o":"m 293 -14 q 123 65 179 -14 q 89 276 67 143 l 122 488 q 178 642 136 576 q 281 742 219 707 q 419 778 343 778 q 561 725 514 778 q 594 581 608 672 l 564 618 l 601 618 l 621 764 l 782 764 l 661 0 l 503 0 l 526 146 l 490 146 l 532 183 q 452 39 517 92 q 293 -14 388 -14 m 374 126 q 487 168 442 126 q 544 283 532 210 l 575 481 q 555 596 588 554 q 454 638 522 638 q 340 597 383 638 q 282 481 296 556 l 251 283 q 271 167 239 208 q 374 126 303 126 m 679 1053 l 872 1247 l 1043 1247 l 840 1053 l 679 1053 m 231 896 l 453 1090 l 603 1090 l 764 896 l 607 896 l 515 999 l 396 896 l 231 896 z "},"ậ":{"ha":833,"x_min":67,"x_max":782,"o":"m 238 896 l 460 1090 l 610 1090 l 771 896 l 614 896 l 524 999 l 403 896 l 238 896 m 293 -14 q 123 65 179 -14 q 89 276 67 143 l 122 488 q 178 642 136 576 q 281 742 219 707 q 419 778 343 778 q 561 725 514 778 q 594 581 608 672 l 564 618 l 601 618 l 621 764 l 782 764 l 661 0 l 503 0 l 526 146 l 490 146 l 532 183 q 452 39 517 92 q 293 -14 388 -14 m 374 126 q 487 168 442 126 q 544 283 532 210 l 575 481 q 555 596 588 554 q 454 638 522 638 q 340 597 383 638 q 282 481 296 556 l 251 283 q 271 167 239 208 q 374 126 303 126 m 314 -308 q 238 -282 263 -308 q 218 -211 213 -256 q 260 -140 226 -167 q 344 -112 294 -112 q 421 -140 396 -112 q 439 -211 446 -167 q 398 -282 432 -256 q 314 -308 364 -308 z "},"ầ":{"ha":833,"x_min":67,"x_max":904,"o":"m 293 -14 q 123 65 179 -14 q 89 276 67 143 l 122 488 q 178 642 136 576 q 281 742 219 707 q 419 778 343 778 q 561 725 514 778 q 594 581 608 672 l 564 618 l 601 618 l 621 764 l 782 764 l 661 0 l 503 0 l 526 146 l 490 146 l 532 183 q 452 39 517 92 q 293 -14 388 -14 m 374 126 q 487 168 442 126 q 544 283 532 210 l 575 481 q 555 596 588 554 q 454 638 522 638 q 340 597 383 638 q 282 481 296 556 l 251 283 q 271 167 239 208 q 374 126 303 126 m 751 1053 l 601 1247 l 764 1247 l 904 1053 l 751 1053 m 231 896 l 453 1090 l 603 1090 l 764 896 l 607 896 l 515 999 l 396 896 l 231 896 z "},"ẩ":{"ha":833,"x_min":67,"x_max":933,"o":"m 293 -14 q 123 65 179 -14 q 89 276 67 143 l 122 488 q 178 642 136 576 q 281 742 219 707 q 419 778 343 778 q 561 725 514 778 q 594 581 608 672 l 564 618 l 601 618 l 621 764 l 782 764 l 661 0 l 503 0 l 526 146 l 490 146 l 532 183 q 452 39 517 92 q 293 -14 388 -14 m 374 126 q 487 168 442 126 q 544 283 532 210 l 575 481 q 555 596 588 554 q 454 638 522 638 q 340 597 383 638 q 282 481 296 556 l 251 283 q 271 167 239 208 q 374 126 303 126 m 692 1053 l 769 1135 q 792 1172 790 1157 q 758 1201 796 1201 l 675 1201 l 690 1300 l 806 1300 q 901 1271 868 1300 q 925 1193 933 1242 q 886 1117 918 1151 l 828 1053 l 692 1053 m 231 896 l 453 1090 l 603 1090 l 764 896 l 607 896 l 515 999 l 396 896 l 231 896 z "},"ẫ":{"ha":833,"x_min":67,"x_max":797,"o":"m 293 -14 q 123 65 179 -14 q 89 276 67 143 l 122 488 q 178 642 136 576 q 281 742 219 707 q 419 778 343 778 q 561 725 514 778 q 594 581 608 672 l 564 618 l 601 618 l 621 764 l 782 764 l 661 0 l 503 0 l 526 146 l 490 146 l 532 183 q 452 39 517 92 q 293 -14 388 -14 m 374 126 q 487 168 442 126 q 544 283 532 210 l 575 481 q 555 596 588 554 q 454 638 522 638 q 340 597 383 638 q 282 481 296 556 l 251 283 q 271 167 239 208 q 374 126 303 126 m 631 1136 q 562 1149 586 1136 q 523 1179 538 1163 q 495 1208 508 1196 q 458 1221 482 1221 q 410 1178 418 1221 l 404 1144 l 303 1144 l 307 1176 q 362 1277 317 1239 q 469 1315 407 1315 q 538 1302 514 1315 q 577 1272 563 1289 q 605 1242 592 1256 q 640 1229 618 1229 q 689 1269 682 1229 l 694 1304 l 797 1304 l 793 1275 q 738 1174 782 1213 q 631 1136 693 1136 m 231 896 l 453 1090 l 603 1090 l 764 896 l 607 896 l 515 999 l 396 896 l 231 896 z "},"ä":{"ha":833,"x_min":67,"x_max":786,"o":"m 293 -14 q 123 65 179 -14 q 89 276 67 143 l 122 488 q 178 642 136 576 q 281 742 219 707 q 419 778 343 778 q 561 725 514 778 q 594 581 608 672 l 564 618 l 601 618 l 621 764 l 782 764 l 661 0 l 503 0 l 526 146 l 490 146 l 532 183 q 452 39 517 92 q 293 -14 388 -14 m 374 126 q 487 168 442 126 q 544 283 532 210 l 575 481 q 555 596 588 554 q 454 638 522 638 q 340 597 383 638 q 282 481 296 556 l 251 283 q 271 167 239 208 q 374 126 303 126 m 665 894 q 597 920 619 894 q 582 990 575 946 q 620 1063 589 1036 q 696 1089 651 1089 q 764 1063 742 1089 q 779 990 786 1036 q 742 920 774 946 q 665 894 711 894 m 343 894 q 276 920 299 894 q 260 990 254 946 q 299 1063 268 1036 q 374 1089 329 1089 q 442 1063 419 1089 q 457 990 465 1036 q 420 920 451 946 q 343 894 389 894 z "},"ạ":{"ha":833,"x_min":67,"x_max":782,"o":"m 293 -14 q 123 65 179 -14 q 89 276 67 143 l 122 488 q 178 642 136 576 q 281 742 219 707 q 419 778 343 778 q 561 725 514 778 q 594 581 608 672 l 564 618 l 601 618 l 621 764 l 782 764 l 661 0 l 503 0 l 526 146 l 490 146 l 532 183 q 452 39 517 92 q 293 -14 388 -14 m 374 126 q 487 168 442 126 q 544 283 532 210 l 575 481 q 555 596 588 554 q 454 638 522 638 q 340 597 383 638 q 282 481 296 556 l 251 283 q 271 167 239 208 q 374 126 303 126 m 314 -308 q 238 -282 263 -308 q 218 -211 213 -256 q 260 -140 226 -167 q 344 -112 294 -112 q 421 -140 396 -112 q 439 -211 446 -167 q 398 -282 432 -256 q 314 -308 364 -308 z "},"à":{"ha":833,"x_min":67,"x_max":782,"o":"m 293 -14 q 123 65 179 -14 q 89 276 67 143 l 122 488 q 178 642 136 576 q 281 742 219 707 q 419 778 343 778 q 561 725 514 778 q 594 581 608 672 l 564 618 l 601 618 l 621 764 l 782 764 l 661 0 l 503 0 l 526 146 l 490 146 l 532 183 q 452 39 517 92 q 293 -14 388 -14 m 374 126 q 487 168 442 126 q 544 283 532 210 l 575 481 q 555 596 588 554 q 454 638 522 638 q 340 597 383 638 q 282 481 296 556 l 251 283 q 271 167 239 208 q 374 126 303 126 m 444 896 l 314 1090 l 485 1090 l 603 896 l 444 896 z "},"ả":{"ha":833,"x_min":67,"x_max":782,"o":"m 293 -14 q 123 65 179 -14 q 89 276 67 143 l 122 488 q 178 642 136 576 q 281 742 219 707 q 419 778 343 778 q 561 725 514 778 q 594 581 608 672 l 564 618 l 601 618 l 621 764 l 782 764 l 661 0 l 503 0 l 526 146 l 490 146 l 532 183 q 452 39 517 92 q 293 -14 388 -14 m 374 126 q 487 168 442 126 q 544 283 532 210 l 575 481 q 555 596 588 554 q 454 638 522 638 q 340 597 383 638 q 282 481 296 556 l 251 283 q 271 167 239 208 q 374 126 303 126 m 428 896 l 510 981 q 529 1003 522 993 q 538 1022 536 1014 q 503 1049 542 1049 l 397 1049 l 414 1151 l 560 1151 q 649 1122 618 1151 q 672 1042 681 1092 q 659 999 669 1019 q 633 963 649 978 l 569 896 l 428 896 z "},"ā":{"ha":833,"x_min":67,"x_max":782,"o":"m 293 -14 q 123 65 179 -14 q 89 276 67 143 l 122 488 q 178 642 136 576 q 281 742 219 707 q 419 778 343 778 q 561 725 514 778 q 594 581 608 672 l 564 618 l 601 618 l 621 764 l 782 764 l 661 0 l 503 0 l 526 146 l 490 146 l 532 183 q 452 39 517 92 q 293 -14 388 -14 m 374 126 q 487 168 442 126 q 544 283 532 210 l 575 481 q 555 596 588 554 q 454 638 522 638 q 340 597 383 638 q 282 481 296 556 l 251 283 q 271 167 239 208 q 374 126 303 126 m 274 921 l 293 1047 l 763 1047 l 743 921 l 274 921 z "},"ą":{"ha":833,"x_min":67,"x_max":782,"o":"m 561 -296 q 440 -256 481 -296 q 408 -156 399 -217 q 456 -69 415 -112 q 569 14 496 -25 l 661 0 q 584 -69 608 -40 q 556 -124 560 -99 q 567 -167 551 -149 q 617 -185 583 -185 l 704 -185 l 688 -296 l 561 -296 m 293 -14 q 123 65 179 -14 q 89 276 67 143 l 122 488 q 178 642 136 576 q 281 742 219 707 q 419 778 343 778 q 561 725 514 778 q 594 581 608 672 l 564 618 l 601 618 l 621 764 l 782 764 l 661 0 l 503 0 l 526 146 l 490 146 l 532 183 q 452 39 517 92 q 293 -14 388 -14 m 374 126 q 487 168 442 126 q 544 283 532 210 l 575 481 q 555 596 588 554 q 454 638 522 638 q 340 597 383 638 q 282 481 296 556 l 251 283 q 271 167 239 208 q 374 126 303 126 z "},"å":{"ha":833,"x_min":67,"x_max":782,"o":"m 293 -14 q 123 65 179 -14 q 89 276 67 143 l 122 488 q 178 642 136 576 q 281 742 219 707 q 419 778 343 778 q 561 725 514 778 q 594 581 608 672 l 564 618 l 601 618 l 621 764 l 782 764 l 661 0 l 503 0 l 526 146 l 490 146 l 532 183 q 452 39 517 92 q 293 -14 388 -14 m 374 126 q 487 168 442 126 q 544 283 532 210 l 575 481 q 555 596 588 554 q 454 638 522 638 q 340 597 383 638 q 282 481 296 556 l 251 283 q 271 167 239 208 q 374 126 303 126 m 496 839 q 374 885 415 839 q 343 1006 332 931 q 410 1126 354 1079 q 547 1172 467 1172 q 670 1126 628 1172 q 700 1006 713 1079 q 633 885 689 931 q 496 839 576 839 m 508 924 q 572 946 546 924 q 604 1006 599 968 q 592 1066 611 1043 q 535 1089 572 1089 q 471 1066 497 1089 q 438 1006 444 1043 q 451 946 432 968 q 508 924 471 924 z "},"ã":{"ha":833,"x_min":67,"x_max":782,"o":"m 293 -14 q 123 65 179 -14 q 89 276 67 143 l 122 488 q 178 642 136 576 q 281 742 219 707 q 419 778 343 778 q 561 725 514 778 q 594 581 608 672 l 564 618 l 601 618 l 621 764 l 782 764 l 661 0 l 503 0 l 526 146 l 490 146 l 532 183 q 452 39 517 92 q 293 -14 388 -14 m 374 126 q 487 168 442 126 q 544 283 532 210 l 575 481 q 555 596 588 554 q 454 638 522 638 q 340 597 383 638 q 282 481 296 556 l 251 283 q 271 167 239 208 q 374 126 303 126 m 601 893 q 534 907 558 893 q 494 939 510 921 q 465 971 479 957 q 428 985 450 985 q 396 972 410 985 q 379 938 382 960 l 374 900 l 271 900 l 278 946 q 333 1053 289 1013 q 439 1093 378 1093 q 506 1079 482 1093 q 545 1047 531 1065 q 574 1015 560 1029 q 611 1001 589 1001 q 644 1013 631 1001 q 660 1046 657 1024 l 667 1086 l 769 1086 l 763 1040 q 708 933 751 974 q 601 893 664 893 z "},"æ":{"ha":833,"x_min":3,"x_max":828,"o":"m 174 -14 q 45 41 88 -14 q 17 186 3 96 l 29 264 q 111 402 43 350 q 279 454 179 454 l 363 454 l 379 561 q 372 634 388 610 q 315 658 356 658 q 256 635 281 658 q 224 571 231 613 l 88 571 q 165 721 103 664 q 313 778 226 778 q 399 760 367 778 q 445 718 431 743 q 460 669 460 693 l 468 669 q 498 718 476 693 q 557 760 519 743 q 646 778 594 778 q 783 719 739 778 q 813 561 828 661 l 779 351 l 479 351 l 456 203 q 467 132 449 158 q 522 106 485 106 q 585 127 560 106 q 617 186 611 149 l 753 186 q 674 42 739 97 q 519 -14 610 -14 q 436 3 468 -14 q 390 46 404 21 q 376 94 376 71 l 368 94 q 337 46 361 71 q 272 3 313 21 q 174 -14 232 -14 m 225 106 q 290 132 263 106 q 324 203 317 158 l 347 351 l 264 351 q 201 328 226 351 q 169 264 176 306 l 158 186 q 169 127 151 149 q 225 106 188 106 m 496 454 l 658 454 l 676 561 q 665 633 683 607 q 608 658 647 658 q 545 633 571 658 q 513 561 519 607 l 496 454 z "},"ǽ":{"ha":833,"x_min":3,"x_max":828,"o":"m 174 -14 q 45 41 88 -14 q 17 186 3 96 l 29 264 q 111 402 43 350 q 279 454 179 454 l 363 454 l 379 561 q 372 634 388 610 q 315 658 356 658 q 256 635 281 658 q 224 571 231 613 l 88 571 q 165 721 103 664 q 313 778 226 778 q 399 760 367 778 q 445 718 431 743 q 460 669 460 693 l 468 669 q 498 718 476 693 q 557 760 519 743 q 646 778 594 778 q 783 719 739 778 q 813 561 828 661 l 779 351 l 479 351 l 456 203 q 467 132 449 158 q 522 106 485 106 q 585 127 560 106 q 617 186 611 149 l 753 186 q 674 42 739 97 q 519 -14 610 -14 q 436 3 468 -14 q 390 46 404 21 q 376 94 376 71 l 368 94 q 337 46 361 71 q 272 3 313 21 q 174 -14 232 -14 m 225 106 q 290 132 263 106 q 324 203 317 158 l 347 351 l 264 351 q 201 328 226 351 q 169 264 176 306 l 158 186 q 169 127 151 149 q 225 106 188 106 m 496 454 l 658 454 l 676 561 q 665 633 683 607 q 608 658 647 658 q 545 633 571 658 q 513 561 519 607 l 496 454 m 394 896 l 571 1090 l 753 1090 l 564 896 l 394 896 z "},"b":{"ha":833,"x_min":50,"x_max":765,"o":"m 413 -14 q 271 39 318 -14 q 239 183 224 92 l 268 146 l 233 146 l 210 0 l 50 0 l 211 1014 l 374 1014 l 339 797 l 306 618 l 342 618 l 301 581 q 381 725 315 672 q 539 778 446 778 q 710 699 654 778 q 744 488 765 621 l 711 276 q 656 122 697 188 q 552 22 614 57 q 413 -14 490 -14 m 379 126 q 494 167 449 126 q 550 283 539 208 l 581 481 q 562 597 594 556 q 460 638 529 638 q 347 596 392 638 q 289 481 301 554 l 257 283 q 278 168 246 210 q 379 126 311 126 z "},"c":{"ha":833,"x_min":75,"x_max":771,"o":"m 358 -14 q 196 22 261 -14 q 103 126 131 58 q 89 283 75 193 l 119 481 q 184 639 135 572 q 310 742 233 706 q 485 778 388 778 q 698 704 625 778 q 756 504 771 631 l 594 504 q 565 601 600 567 q 461 636 529 636 q 341 596 388 636 q 282 481 294 556 l 251 283 q 273 169 239 210 q 381 128 307 128 q 494 163 449 128 q 556 260 540 197 l 717 260 q 595 60 692 133 q 358 -14 499 -14 z "},"ć":{"ha":833,"x_min":75,"x_max":771,"o":"m 358 -14 q 196 22 261 -14 q 103 126 131 58 q 89 283 75 193 l 119 481 q 184 639 135 572 q 310 742 233 706 q 485 778 388 778 q 698 704 625 778 q 756 504 771 631 l 594 504 q 565 601 600 567 q 461 636 529 636 q 341 596 388 636 q 282 481 294 556 l 251 283 q 273 169 239 210 q 381 128 307 128 q 494 163 449 128 q 556 260 540 197 l 717 260 q 595 60 692 133 q 358 -14 499 -14 m 400 896 l 576 1090 l 758 1090 l 569 896 l 400 896 z "},"č":{"ha":833,"x_min":75,"x_max":800,"o":"m 358 -14 q 196 22 261 -14 q 103 126 131 58 q 89 283 75 193 l 119 481 q 184 639 135 572 q 310 742 233 706 q 485 778 388 778 q 698 704 625 778 q 756 504 771 631 l 594 504 q 565 601 600 567 q 461 636 529 636 q 341 596 388 636 q 282 481 294 556 l 251 283 q 273 169 239 210 q 381 128 307 128 q 494 163 449 128 q 556 260 540 197 l 717 260 q 595 60 692 133 q 358 -14 499 -14 m 429 896 l 268 1090 l 425 1090 l 517 988 l 636 1090 l 801 1090 l 579 896 l 429 896 z "},"ç":{"ha":833,"x_min":75,"x_max":771,"o":"m 172 -296 l 186 -210 l 289 -210 q 344 -194 322 -210 q 369 -160 367 -178 q 336 -114 374 -132 q 226 -96 299 -96 l 296 31 l 385 31 l 343 -51 q 422 -69 382 -54 q 485 -110 461 -83 q 504 -175 510 -136 q 442 -260 497 -224 q 306 -296 386 -296 l 172 -296 m 358 -14 q 196 22 261 -14 q 103 126 131 58 q 89 283 75 193 l 119 481 q 184 639 135 572 q 310 742 233 706 q 485 778 388 778 q 698 704 625 778 q 756 504 771 631 l 594 504 q 565 601 600 567 q 461 636 529 636 q 341 596 388 636 q 282 481 294 556 l 251 283 q 273 169 239 210 q 381 128 307 128 q 494 163 449 128 q 556 260 540 197 l 717 260 q 595 60 692 133 q 358 -14 499 -14 z "},"ĉ":{"ha":833,"x_min":75,"x_max":771,"o":"m 358 -14 q 196 22 261 -14 q 103 126 131 58 q 89 283 75 193 l 119 481 q 184 639 135 572 q 310 742 233 706 q 485 778 388 778 q 698 704 625 778 q 756 504 771 631 l 594 504 q 565 601 600 567 q 461 636 529 636 q 341 596 388 636 q 282 481 294 556 l 251 283 q 273 169 239 210 q 381 128 307 128 q 494 163 449 128 q 556 260 540 197 l 717 260 q 595 60 692 133 q 358 -14 499 -14 m 231 896 l 453 1090 l 603 1090 l 764 896 l 607 896 l 517 999 l 396 896 l 231 896 z "},"ċ":{"ha":833,"x_min":75,"x_max":771,"o":"m 358 -14 q 196 22 261 -14 q 103 126 131 58 q 89 283 75 193 l 119 481 q 184 639 135 572 q 310 742 233 706 q 485 778 388 778 q 698 704 625 778 q 756 504 771 631 l 594 504 q 565 601 600 567 q 461 636 529 636 q 341 596 388 636 q 282 481 294 556 l 251 283 q 273 169 239 210 q 381 128 307 128 q 494 163 449 128 q 556 260 540 197 l 717 260 q 595 60 692 133 q 358 -14 499 -14 m 497 894 q 422 920 447 894 q 403 990 396 946 q 444 1063 410 1036 q 528 1089 478 1089 q 605 1063 579 1089 q 622 990 631 1036 q 583 920 617 946 q 497 894 549 894 z "},"d":{"ha":833,"x_min":68,"x_max":822,"o":"m 293 -14 q 124 65 179 -14 q 89 276 68 143 l 122 488 q 178 642 136 576 q 281 742 219 707 q 419 778 343 778 q 561 725 514 778 q 594 581 608 672 l 564 618 l 601 618 l 625 797 l 661 1014 l 822 1014 l 661 0 l 503 0 l 526 146 l 490 146 l 532 183 q 452 39 517 92 q 293 -14 388 -14 m 374 126 q 487 168 442 126 q 544 283 532 210 l 575 481 q 555 596 588 554 q 454 638 522 638 q 340 597 383 638 q 282 481 296 556 l 251 283 q 271 167 239 208 q 374 126 303 126 z "},"ð":{"ha":833,"x_min":53,"x_max":761,"o":"m 353 -8 q 183 32 253 -8 q 83 144 114 72 q 67 311 53 217 q 128 473 82 404 q 247 580 175 542 q 404 618 318 618 q 480 603 447 618 q 534 566 513 588 q 564 525 556 544 l 579 525 q 563 572 578 535 q 510 672 547 608 l 446 783 l 204 692 l 224 821 l 386 885 l 311 1014 l 479 1014 l 521 939 l 761 1028 l 743 900 l 581 839 l 656 711 q 738 515 715 614 q 744 326 760 417 q 676 150 729 225 q 540 33 622 75 q 353 -8 457 -8 m 375 131 q 512 180 456 131 q 581 311 568 229 q 574 406 590 365 q 522 468 558 446 q 433 490 486 490 q 298 441 354 490 q 229 311 242 392 q 257 180 217 229 q 375 131 297 131 z "},"ď":{"ha":833,"x_min":35,"x_max":943,"o":"m 765 764 l 806 1014 l 943 1014 l 889 764 l 765 764 m 238 -14 q 83 63 132 -14 q 56 269 35 139 l 90 494 q 185 701 111 625 q 364 778 258 778 q 488 724 447 778 q 514 581 529 671 l 483 618 l 521 618 l 546 797 l 581 1014 l 736 1014 l 575 0 l 422 0 l 446 146 l 410 146 l 451 183 q 379 40 438 93 q 238 -14 321 -14 m 315 121 q 413 162 374 121 q 463 276 451 203 l 496 488 q 483 602 508 561 q 399 643 457 643 q 298 602 339 643 q 246 488 257 561 l 211 276 q 228 162 200 203 q 315 121 256 121 z "},"đ":{"ha":833,"x_min":68,"x_max":914,"o":"m 89 276 l 110 404 q 165 558 124 493 q 267 659 206 624 q 406 694 329 694 q 537 652 490 694 q 582 535 583 610 l 586 535 l 610 714 l 621 782 l 404 782 l 422 896 l 639 896 l 658 1014 l 819 1014 l 800 896 l 914 896 l 896 782 l 783 782 l 658 0 l 500 0 l 524 146 l 521 146 q 438 28 497 71 q 293 -14 378 -14 q 123 65 178 -14 q 89 276 68 143 m 253 283 q 272 167 240 208 q 372 126 303 126 q 485 168 440 126 q 542 283 531 210 l 560 397 q 540 513 572 471 q 440 554 508 554 q 326 513 371 554 q 269 397 282 472 l 253 283 z "},"e":{"ha":833,"x_min":75,"x_max":758,"o":"m 353 -14 q 194 23 258 -14 q 103 127 131 60 q 89 283 75 194 l 119 481 q 184 637 135 569 q 309 741 233 704 q 479 778 385 778 q 639 741 575 778 q 731 637 703 704 q 743 481 758 569 l 722 343 l 254 343 l 244 283 q 265 158 232 201 q 375 115 297 115 q 478 138 438 115 q 535 200 518 160 l 694 200 q 623 88 672 136 q 504 13 574 39 q 353 -14 435 -14 m 581 438 l 588 481 q 569 606 600 563 q 460 650 538 650 q 335 606 382 650 q 276 481 289 561 l 271 449 l 594 450 l 581 438 z "},"é":{"ha":833,"x_min":75,"x_max":758,"o":"m 353 -14 q 194 23 258 -14 q 103 127 131 60 q 89 283 75 194 l 119 481 q 184 637 135 569 q 309 741 233 704 q 479 778 385 778 q 639 741 575 778 q 731 637 703 704 q 743 481 758 569 l 722 343 l 254 343 l 244 283 q 265 158 232 201 q 375 115 297 115 q 478 138 438 115 q 535 200 518 160 l 694 200 q 623 88 672 136 q 504 13 574 39 q 353 -14 435 -14 m 581 438 l 588 481 q 569 606 600 563 q 460 650 538 650 q 335 606 382 650 q 276 481 289 561 l 271 449 l 594 450 l 581 438 m 394 896 l 571 1090 l 753 1090 l 564 896 l 394 896 z "},"ĕ":{"ha":833,"x_min":75,"x_max":765,"o":"m 353 -14 q 194 23 258 -14 q 103 127 131 60 q 89 283 75 194 l 119 481 q 184 637 135 569 q 309 741 233 704 q 479 778 385 778 q 639 741 575 778 q 731 637 703 704 q 743 481 758 569 l 722 343 l 254 343 l 244 283 q 265 158 232 201 q 375 115 297 115 q 478 138 438 115 q 535 200 518 160 l 694 200 q 623 88 672 136 q 504 13 574 39 q 353 -14 435 -14 m 581 438 l 588 481 q 569 606 600 563 q 460 650 538 650 q 335 606 382 650 q 276 481 289 561 l 271 449 l 594 450 l 581 438 m 496 886 q 333 942 390 886 q 290 1090 276 999 l 414 1090 q 433 1014 407 1043 q 508 985 458 985 q 595 1014 560 985 q 638 1090 631 1043 l 765 1090 q 677 942 751 999 q 496 886 603 886 z "},"ě":{"ha":833,"x_min":75,"x_max":796,"o":"m 353 -14 q 194 23 258 -14 q 103 127 131 60 q 89 283 75 194 l 119 481 q 184 637 135 569 q 309 741 233 704 q 479 778 385 778 q 639 741 575 778 q 731 637 703 704 q 743 481 758 569 l 722 343 l 254 343 l 244 283 q 265 158 232 201 q 375 115 297 115 q 478 138 438 115 q 535 200 518 160 l 694 200 q 623 88 672 136 q 504 13 574 39 q 353 -14 435 -14 m 581 438 l 588 481 q 569 606 600 563 q 460 650 538 650 q 335 606 382 650 q 276 481 289 561 l 271 449 l 594 450 l 581 438 m 424 896 l 263 1090 l 419 1090 l 511 988 l 631 1090 l 796 1090 l 574 896 l 424 896 z "},"ê":{"ha":833,"x_min":75,"x_max":764,"o":"m 353 -14 q 194 23 258 -14 q 103 127 131 60 q 89 283 75 194 l 119 481 q 184 637 135 569 q 309 741 233 704 q 479 778 385 778 q 639 741 575 778 q 731 637 703 704 q 743 481 758 569 l 722 343 l 254 343 l 244 283 q 265 158 232 201 q 375 115 297 115 q 478 138 438 115 q 535 200 518 160 l 694 200 q 623 88 672 136 q 504 13 574 39 q 353 -14 435 -14 m 581 438 l 588 481 q 569 606 600 563 q 460 650 538 650 q 335 606 382 650 q 276 481 289 561 l 271 449 l 594 450 l 581 438 m 231 896 l 453 1090 l 603 1090 l 764 896 l 607 896 l 517 999 l 396 896 l 231 896 z "},"ế":{"ha":833,"x_min":75,"x_max":1043,"o":"m 353 -14 q 194 23 258 -14 q 103 127 131 60 q 89 283 75 194 l 119 481 q 184 637 135 569 q 309 741 233 704 q 479 778 385 778 q 639 741 575 778 q 731 637 703 704 q 743 481 758 569 l 722 343 l 254 343 l 244 283 q 265 158 232 201 q 375 115 297 115 q 478 138 438 115 q 535 200 518 160 l 694 200 q 623 88 672 136 q 504 13 574 39 q 353 -14 435 -14 m 581 438 l 588 481 q 569 606 600 563 q 460 650 538 650 q 335 606 382 650 q 276 481 289 561 l 271 449 l 594 450 l 581 438 m 679 1053 l 872 1247 l 1043 1247 l 840 1053 l 679 1053 m 231 896 l 453 1090 l 603 1090 l 764 896 l 607 896 l 515 999 l 396 896 l 231 896 z "},"ệ":{"ha":833,"x_min":75,"x_max":769,"o":"m 236 896 l 458 1090 l 608 1090 l 769 896 l 613 896 l 522 999 l 401 896 l 236 896 m 353 -14 q 194 23 258 -14 q 103 127 131 60 q 89 283 75 194 l 119 481 q 184 637 135 569 q 309 741 233 704 q 479 778 385 778 q 639 741 575 778 q 731 637 703 704 q 743 481 758 569 l 722 343 l 254 343 l 244 283 q 265 158 232 201 q 375 115 297 115 q 478 138 438 115 q 535 200 518 160 l 694 200 q 623 88 672 136 q 504 13 574 39 q 353 -14 435 -14 m 581 438 l 588 481 q 569 606 600 563 q 460 650 538 650 q 335 606 382 650 q 276 481 289 561 l 271 449 l 594 450 l 581 438 m 307 -308 q 231 -282 256 -308 q 211 -211 206 -256 q 253 -140 219 -167 q 338 -112 288 -112 q 414 -140 389 -112 q 432 -211 439 -167 q 391 -282 425 -256 q 307 -308 357 -308 z "},"ề":{"ha":833,"x_min":75,"x_max":904,"o":"m 353 -14 q 194 23 258 -14 q 103 127 131 60 q 89 283 75 194 l 119 481 q 184 637 135 569 q 309 741 233 704 q 479 778 385 778 q 639 741 575 778 q 731 637 703 704 q 743 481 758 569 l 722 343 l 254 343 l 244 283 q 265 158 232 201 q 375 115 297 115 q 478 138 438 115 q 535 200 518 160 l 694 200 q 623 88 672 136 q 504 13 574 39 q 353 -14 435 -14 m 581 438 l 588 481 q 569 606 600 563 q 460 650 538 650 q 335 606 382 650 q 276 481 289 561 l 271 449 l 594 450 l 581 438 m 751 1053 l 601 1247 l 764 1247 l 904 1053 l 751 1053 m 231 896 l 453 1090 l 603 1090 l 764 896 l 607 896 l 515 999 l 396 896 l 231 896 z "},"ể":{"ha":833,"x_min":75,"x_max":933,"o":"m 353 -14 q 194 23 258 -14 q 103 127 131 60 q 89 283 75 194 l 119 481 q 184 637 135 569 q 309 741 233 704 q 479 778 385 778 q 639 741 575 778 q 731 637 703 704 q 743 481 758 569 l 722 343 l 254 343 l 244 283 q 265 158 232 201 q 375 115 297 115 q 478 138 438 115 q 535 200 518 160 l 694 200 q 623 88 672 136 q 504 13 574 39 q 353 -14 435 -14 m 581 438 l 588 481 q 569 606 600 563 q 460 650 538 650 q 335 606 382 650 q 276 481 289 561 l 271 449 l 594 450 l 581 438 m 692 1053 l 769 1135 q 792 1172 790 1157 q 758 1201 796 1201 l 675 1201 l 690 1300 l 806 1300 q 901 1271 868 1300 q 925 1193 933 1242 q 886 1117 918 1151 l 828 1053 l 692 1053 m 231 896 l 453 1090 l 603 1090 l 764 896 l 607 896 l 515 999 l 396 896 l 231 896 z "},"ễ":{"ha":833,"x_min":75,"x_max":797,"o":"m 353 -14 q 194 23 258 -14 q 103 127 131 60 q 89 283 75 194 l 119 481 q 184 637 135 569 q 309 741 233 704 q 479 778 385 778 q 639 741 575 778 q 731 637 703 704 q 743 481 758 569 l 722 343 l 254 343 l 244 283 q 265 158 232 201 q 375 115 297 115 q 478 138 438 115 q 535 200 518 160 l 694 200 q 623 88 672 136 q 504 13 574 39 q 353 -14 435 -14 m 581 438 l 588 481 q 569 606 600 563 q 460 650 538 650 q 335 606 382 650 q 276 481 289 561 l 271 449 l 594 450 l 581 438 m 631 1136 q 562 1149 586 1136 q 523 1179 538 1163 q 495 1208 508 1196 q 458 1221 482 1221 q 410 1178 418 1221 l 404 1144 l 303 1144 l 307 1176 q 362 1277 317 1239 q 469 1315 407 1315 q 538 1302 514 1315 q 577 1272 563 1289 q 605 1242 592 1256 q 640 1229 618 1229 q 689 1269 682 1229 l 694 1304 l 797 1304 l 793 1275 q 738 1174 782 1213 q 631 1136 693 1136 m 231 896 l 453 1090 l 603 1090 l 764 896 l 607 896 l 515 999 l 396 896 l 231 896 z "},"ë":{"ha":833,"x_min":75,"x_max":779,"o":"m 353 -14 q 194 23 258 -14 q 103 127 131 60 q 89 283 75 194 l 119 481 q 184 637 135 569 q 309 741 233 704 q 479 778 385 778 q 639 741 575 778 q 731 637 703 704 q 743 481 758 569 l 722 343 l 254 343 l 244 283 q 265 158 232 201 q 375 115 297 115 q 478 138 438 115 q 535 200 518 160 l 694 200 q 623 88 672 136 q 504 13 574 39 q 353 -14 435 -14 m 581 438 l 588 481 q 569 606 600 563 q 460 650 538 650 q 335 606 382 650 q 276 481 289 561 l 271 449 l 594 450 l 581 438 m 658 894 q 590 920 613 894 q 575 990 568 946 q 613 1063 582 1036 q 689 1089 644 1089 q 757 1063 735 1089 q 772 990 779 1036 q 735 920 767 946 q 658 894 704 894 m 336 894 q 269 920 292 894 q 253 990 247 946 q 292 1063 261 1036 q 367 1089 322 1089 q 435 1063 413 1089 q 450 990 458 1036 q 413 920 444 946 q 336 894 382 894 z "},"ė":{"ha":833,"x_min":75,"x_max":758,"o":"m 353 -14 q 194 23 258 -14 q 103 127 131 60 q 89 283 75 194 l 119 481 q 184 637 135 569 q 309 741 233 704 q 479 778 385 778 q 639 741 575 778 q 731 637 703 704 q 743 481 758 569 l 722 343 l 254 343 l 244 283 q 265 158 232 201 q 375 115 297 115 q 478 138 438 115 q 535 200 518 160 l 694 200 q 623 88 672 136 q 504 13 574 39 q 353 -14 435 -14 m 581 438 l 588 481 q 569 606 600 563 q 460 650 538 650 q 335 606 382 650 q 276 481 289 561 l 271 449 l 594 450 l 581 438 m 497 894 q 422 920 447 894 q 403 990 396 946 q 444 1063 410 1036 q 528 1089 478 1089 q 605 1063 579 1089 q 622 990 631 1036 q 583 920 617 946 q 497 894 549 894 z "},"ẹ":{"ha":833,"x_min":75,"x_max":758,"o":"m 353 -14 q 194 23 258 -14 q 103 127 131 60 q 89 283 75 194 l 119 481 q 184 637 135 569 q 309 741 233 704 q 479 778 385 778 q 639 741 575 778 q 731 637 703 704 q 743 481 758 569 l 722 343 l 254 343 l 244 283 q 265 158 232 201 q 375 115 297 115 q 478 138 438 115 q 535 200 518 160 l 694 200 q 623 88 672 136 q 504 13 574 39 q 353 -14 435 -14 m 581 438 l 588 481 q 569 606 600 563 q 460 650 538 650 q 335 606 382 650 q 276 481 289 561 l 271 449 l 594 450 l 581 438 m 307 -308 q 231 -282 256 -308 q 211 -211 206 -256 q 253 -140 219 -167 q 338 -112 288 -112 q 414 -140 389 -112 q 432 -211 439 -167 q 391 -282 425 -256 q 307 -308 357 -308 z "},"è":{"ha":833,"x_min":75,"x_max":758,"o":"m 353 -14 q 194 23 258 -14 q 103 127 131 60 q 89 283 75 194 l 119 481 q 184 637 135 569 q 309 741 233 704 q 479 778 385 778 q 639 741 575 778 q 731 637 703 704 q 743 481 758 569 l 722 343 l 254 343 l 244 283 q 265 158 232 201 q 375 115 297 115 q 478 138 438 115 q 535 200 518 160 l 694 200 q 623 88 672 136 q 504 13 574 39 q 353 -14 435 -14 m 581 438 l 588 481 q 569 606 600 563 q 460 650 538 650 q 335 606 382 650 q 276 481 289 561 l 271 449 l 594 450 l 581 438 m 438 896 l 307 1090 l 478 1090 l 596 896 l 438 896 z "},"ẻ":{"ha":833,"x_min":75,"x_max":758,"o":"m 353 -14 q 194 23 258 -14 q 103 127 131 60 q 89 283 75 194 l 119 481 q 184 637 135 569 q 309 741 233 704 q 479 778 385 778 q 639 741 575 778 q 731 637 703 704 q 743 481 758 569 l 722 343 l 254 343 l 244 283 q 265 158 232 201 q 375 115 297 115 q 478 138 438 115 q 535 200 518 160 l 694 200 q 623 88 672 136 q 504 13 574 39 q 353 -14 435 -14 m 581 438 l 588 481 q 569 606 600 563 q 460 650 538 650 q 335 606 382 650 q 276 481 289 561 l 271 449 l 594 450 l 581 438 m 421 896 l 503 981 q 522 1003 515 993 q 531 1022 529 1014 q 496 1049 535 1049 l 390 1049 l 407 1151 l 553 1151 q 642 1122 611 1151 q 665 1042 674 1092 q 652 999 663 1019 q 626 963 642 978 l 563 896 l 421 896 z "},"ē":{"ha":833,"x_min":75,"x_max":758,"o":"m 353 -14 q 194 23 258 -14 q 103 127 131 60 q 89 283 75 194 l 119 481 q 184 637 135 569 q 309 741 233 704 q 479 778 385 778 q 639 741 575 778 q 731 637 703 704 q 743 481 758 569 l 722 343 l 254 343 l 244 283 q 265 158 232 201 q 375 115 297 115 q 478 138 438 115 q 535 200 518 160 l 694 200 q 623 88 672 136 q 504 13 574 39 q 353 -14 435 -14 m 581 438 l 588 481 q 569 606 600 563 q 460 650 538 650 q 335 606 382 650 q 276 481 289 561 l 271 449 l 594 450 l 581 438 m 267 921 l 286 1047 l 756 1047 l 736 921 l 267 921 z "},"ę":{"ha":833,"x_min":75,"x_max":758,"o":"m 401 -296 q 281 -256 322 -296 q 250 -156 239 -217 q 294 -74 256 -117 q 401 10 332 -32 q 384 -6 397 1 q 353 -14 371 -14 q 194 23 258 -14 q 103 127 131 60 q 89 283 75 194 l 119 481 q 184 637 135 569 q 309 741 233 704 q 479 778 385 778 q 639 741 575 778 q 731 637 703 704 q 743 481 758 569 l 722 343 l 254 343 l 244 283 q 265 158 232 201 q 375 115 297 115 q 478 138 438 115 q 535 200 518 160 l 694 200 q 635 101 675 144 q 539 29 594 57 l 489 -10 q 424 -71 446 -43 q 396 -124 401 -99 q 409 -167 393 -149 q 457 -185 425 -185 l 546 -185 l 529 -296 l 401 -296 m 576 413 l 588 481 q 569 606 600 563 q 460 650 538 650 q 335 606 382 650 q 276 481 289 561 l 271 449 l 619 450 l 576 413 z "},"ẽ":{"ha":833,"x_min":75,"x_max":763,"o":"m 353 -14 q 194 23 258 -14 q 103 127 131 60 q 89 283 75 194 l 119 481 q 184 637 135 569 q 309 741 233 704 q 479 778 385 778 q 639 741 575 778 q 731 637 703 704 q 743 481 758 569 l 722 343 l 254 343 l 244 283 q 265 158 232 201 q 375 115 297 115 q 478 138 438 115 q 535 200 518 160 l 694 200 q 623 88 672 136 q 504 13 574 39 q 353 -14 435 -14 m 581 438 l 588 481 q 569 606 600 563 q 460 650 538 650 q 335 606 382 650 q 276 481 289 561 l 271 449 l 594 450 l 581 438 m 594 893 q 527 907 551 893 q 488 939 503 921 q 458 971 472 957 q 421 985 443 985 q 389 972 403 985 q 372 938 375 960 l 367 900 l 264 900 l 271 946 q 326 1053 282 1013 q 432 1093 371 1093 q 499 1079 475 1093 q 538 1047 524 1065 q 567 1015 553 1029 q 604 1001 582 1001 q 637 1013 624 1001 q 653 1046 650 1024 l 660 1086 l 763 1086 l 756 1040 q 701 933 744 974 q 594 893 657 893 z "},"ə":{"ha":833,"x_min":76,"x_max":757,"o":"m 353 -14 q 194 23 257 -14 q 103 127 131 60 q 90 283 76 194 l 113 421 l 576 421 l 585 481 q 567 606 599 563 q 457 649 535 649 q 356 626 394 649 q 299 564 317 604 l 139 564 q 265 719 174 661 q 479 778 357 778 q 638 741 575 778 q 729 637 701 704 q 742 481 757 569 l 711 283 q 649 127 697 194 q 524 23 600 60 q 353 -14 449 -14 m 374 115 q 497 159 451 115 q 554 283 542 203 l 560 315 l 240 315 l 254 328 l 247 283 q 265 159 233 203 q 374 115 296 115 z "},"f":{"ha":833,"x_min":-74,"x_max":874,"o":"m -74 -250 l -51 -112 l 96 -112 q 187 -85 153 -112 q 229 -4 221 -57 l 314 535 l 100 535 l 124 682 l 336 682 l 353 786 q 403 907 364 856 q 503 986 442 958 q 640 1014 564 1014 l 874 1014 l 851 871 l 619 871 q 548 849 575 871 q 515 782 521 826 l 499 682 l 796 682 l 772 535 l 475 535 l 390 -7 q 288 -185 372 -119 q 76 -250 204 -250 l -74 -250 z "},"g":{"ha":833,"x_min":78,"x_max":782,"o":"m 114 -250 l 136 -112 l 367 -112 q 458 -85 425 -112 q 500 -4 492 -57 l 511 64 l 536 206 l 501 206 l 542 239 q 464 97 526 149 q 307 46 401 46 q 134 124 190 46 q 99 336 78 203 l 122 488 q 178 642 136 576 q 283 742 219 707 q 424 778 346 778 q 563 726 517 778 q 596 585 610 675 l 565 618 l 600 618 l 621 764 l 782 764 l 660 -7 q 558 -185 642 -119 q 347 -250 475 -250 l 114 -250 m 383 186 q 497 228 451 186 q 556 343 543 269 l 576 481 q 556 596 589 554 q 454 638 522 638 q 340 597 385 638 q 283 481 296 556 l 263 343 q 281 227 250 268 q 383 186 313 186 z "},"ǵ":{"ha":833,"x_min":78,"x_max":782,"o":"m 114 -250 l 136 -112 l 367 -112 q 458 -85 425 -112 q 500 -4 492 -57 l 511 64 l 536 206 l 501 206 l 542 239 q 464 97 526 149 q 307 46 401 46 q 134 124 190 46 q 99 336 78 203 l 122 488 q 178 642 136 576 q 283 742 219 707 q 424 778 346 778 q 563 726 517 778 q 596 585 610 675 l 565 618 l 600 618 l 621 764 l 782 764 l 660 -7 q 558 -185 642 -119 q 347 -250 475 -250 l 114 -250 m 383 186 q 497 228 451 186 q 556 343 543 269 l 576 481 q 556 596 589 554 q 454 638 522 638 q 340 597 385 638 q 283 481 296 556 l 263 343 q 281 227 250 268 q 383 186 313 186 m 396 896 l 572 1090 l 754 1090 l 565 896 l 396 896 z "},"ğ":{"ha":833,"x_min":78,"x_max":782,"o":"m 114 -250 l 136 -112 l 367 -112 q 458 -85 425 -112 q 500 -4 492 -57 l 511 64 l 536 206 l 501 206 l 542 239 q 464 97 526 149 q 307 46 401 46 q 134 124 190 46 q 99 336 78 203 l 122 488 q 178 642 136 576 q 283 742 219 707 q 424 778 346 778 q 563 726 517 778 q 596 585 610 675 l 565 618 l 600 618 l 621 764 l 782 764 l 660 -7 q 558 -185 642 -119 q 347 -250 475 -250 l 114 -250 m 383 186 q 497 228 451 186 q 556 343 543 269 l 576 481 q 556 596 589 554 q 454 638 522 638 q 340 597 385 638 q 283 481 296 556 l 263 343 q 281 227 250 268 q 383 186 313 186 m 492 886 q 329 942 386 886 q 286 1090 272 999 l 410 1090 q 428 1014 403 1043 q 504 985 454 985 q 591 1014 556 985 q 633 1090 626 1043 l 761 1090 q 673 942 747 999 q 492 886 599 886 z "},"ǧ":{"ha":833,"x_min":78,"x_max":792,"o":"m 114 -250 l 136 -112 l 367 -112 q 458 -85 425 -112 q 500 -4 492 -57 l 511 64 l 536 206 l 501 206 l 542 239 q 464 97 526 149 q 307 46 401 46 q 134 124 190 46 q 99 336 78 203 l 122 488 q 178 642 136 576 q 283 742 219 707 q 424 778 346 778 q 563 726 517 778 q 596 585 610 675 l 565 618 l 600 618 l 621 764 l 782 764 l 660 -7 q 558 -185 642 -119 q 347 -250 475 -250 l 114 -250 m 383 186 q 497 228 451 186 q 556 343 543 269 l 576 481 q 556 596 589 554 q 454 638 522 638 q 340 597 385 638 q 283 481 296 556 l 263 343 q 281 227 250 268 q 383 186 313 186 m 419 896 l 258 1090 l 415 1090 l 507 988 l 626 1090 l 792 1090 l 569 896 l 419 896 z "},"ĝ":{"ha":833,"x_min":78,"x_max":782,"o":"m 114 -250 l 136 -112 l 367 -112 q 458 -85 425 -112 q 500 -4 492 -57 l 511 64 l 536 206 l 501 206 l 542 239 q 464 97 526 149 q 307 46 401 46 q 134 124 190 46 q 99 336 78 203 l 122 488 q 178 642 136 576 q 283 742 219 707 q 424 778 346 778 q 563 726 517 778 q 596 585 610 675 l 565 618 l 600 618 l 621 764 l 782 764 l 660 -7 q 558 -185 642 -119 q 347 -250 475 -250 l 114 -250 m 383 186 q 497 228 451 186 q 556 343 543 269 l 576 481 q 556 596 589 554 q 454 638 522 638 q 340 597 385 638 q 283 481 296 556 l 263 343 q 281 227 250 268 q 383 186 313 186 m 226 896 l 449 1090 l 599 1090 l 760 896 l 603 896 l 513 999 l 392 896 l 226 896 z "},"ģ":{"ha":833,"x_min":78,"x_max":782,"o":"m 114 -250 l 136 -112 l 367 -112 q 458 -85 425 -112 q 500 -4 492 -57 l 511 64 l 536 206 l 501 206 l 542 239 q 464 97 526 149 q 307 46 401 46 q 134 124 190 46 q 99 336 78 203 l 122 488 q 178 642 136 576 q 283 742 219 707 q 424 778 346 778 q 563 726 517 778 q 596 585 610 675 l 565 618 l 600 618 l 621 764 l 782 764 l 660 -7 q 558 -185 642 -119 q 347 -250 475 -250 l 114 -250 m 383 186 q 497 228 451 186 q 556 343 543 269 l 576 481 q 556 596 589 554 q 454 638 522 638 q 340 597 385 638 q 283 481 296 556 l 263 343 q 281 227 250 268 q 383 186 313 186 m 719 1222 l 557 896 l 356 896 l 588 1222 l 719 1222 z "},"ġ":{"ha":833,"x_min":78,"x_max":782,"o":"m 114 -250 l 136 -112 l 367 -112 q 458 -85 425 -112 q 500 -4 492 -57 l 511 64 l 536 206 l 501 206 l 542 239 q 464 97 526 149 q 307 46 401 46 q 134 124 190 46 q 99 336 78 203 l 122 488 q 178 642 136 576 q 283 742 219 707 q 424 778 346 778 q 563 726 517 778 q 596 585 610 675 l 565 618 l 600 618 l 621 764 l 782 764 l 660 -7 q 558 -185 642 -119 q 347 -250 475 -250 l 114 -250 m 383 186 q 497 228 451 186 q 556 343 543 269 l 576 481 q 556 596 589 554 q 454 638 522 638 q 340 597 385 638 q 283 481 296 556 l 263 343 q 281 227 250 268 q 383 186 313 186 m 493 894 q 417 920 443 894 q 399 990 392 946 q 440 1063 406 1036 q 524 1089 474 1089 q 601 1063 575 1089 q 618 990 626 1036 q 578 920 613 946 q 493 894 544 894 z "},"h":{"ha":833,"x_min":50,"x_max":764,"o":"m 50 0 l 211 1014 l 374 1014 l 333 764 l 307 618 l 349 618 l 301 581 q 380 726 317 674 q 538 778 443 778 q 708 704 651 778 q 743 504 764 631 l 664 0 l 501 0 l 579 488 q 558 599 590 560 q 460 639 526 639 q 347 597 392 639 q 289 481 301 556 l 213 0 l 50 0 z "},"ħ":{"ha":833,"x_min":50,"x_max":750,"o":"m 63 782 l 81 896 l 192 896 l 211 1014 l 374 1014 l 354 896 l 572 896 l 556 782 l 336 782 l 321 681 l 294 535 l 297 535 q 380 653 321 611 q 524 694 439 694 q 694 621 638 694 q 731 421 750 547 l 664 0 l 501 0 l 565 404 q 544 516 576 476 q 446 556 513 556 q 333 514 378 556 q 275 397 288 472 l 213 0 l 50 0 l 175 782 l 63 782 z "},"ĥ":{"ha":833,"x_min":22,"x_max":764,"o":"m 50 0 l 211 1014 l 374 1014 l 333 764 l 307 618 l 349 618 l 301 581 q 380 726 317 674 q 538 778 443 778 q 708 704 651 778 q 743 504 764 631 l 664 0 l 501 0 l 579 488 q 558 599 590 560 q 460 639 526 639 q 347 597 392 639 q 289 481 301 556 l 213 0 l 50 0 m 22 1118 l 244 1313 l 394 1313 l 556 1118 l 399 1118 l 308 1221 l 188 1118 l 22 1118 z "},"i":{"ha":833,"x_min":44,"x_max":732,"o":"m 44 0 l 68 147 l 335 147 l 410 618 l 176 618 l 200 764 l 588 764 l 490 147 l 732 147 l 708 0 l 44 0 m 521 894 q 445 920 471 894 q 426 990 419 946 q 467 1063 433 1036 q 551 1089 501 1089 q 628 1063 603 1089 q 646 990 654 1036 q 606 920 640 946 q 521 894 572 894 z "},"ı":{"ha":833,"x_min":44,"x_max":732,"o":"m 44 0 l 68 147 l 335 147 l 410 618 l 176 618 l 200 764 l 588 764 l 490 147 l 732 147 l 708 0 l 44 0 z "},"í":{"ha":833,"x_min":44,"x_max":776,"o":"m 44 0 l 68 147 l 335 147 l 410 618 l 176 618 l 200 764 l 588 764 l 490 147 l 732 147 l 708 0 l 44 0 m 418 896 l 594 1090 l 776 1090 l 588 896 l 418 896 z "},"ĭ":{"ha":833,"x_min":44,"x_max":789,"o":"m 44 0 l 68 147 l 335 147 l 410 618 l 176 618 l 200 764 l 588 764 l 490 147 l 732 147 l 708 0 l 44 0 m 519 886 q 357 942 414 886 q 314 1090 300 999 l 438 1090 q 456 1014 431 1043 q 532 985 482 985 q 619 1014 583 985 q 661 1090 654 1043 l 789 1090 q 701 942 775 999 q 519 886 626 886 z "},"î":{"ha":833,"x_min":44,"x_max":788,"o":"m 44 0 l 68 147 l 335 147 l 410 618 l 176 618 l 200 764 l 588 764 l 490 147 l 732 147 l 708 0 l 44 0 m 254 896 l 476 1090 l 626 1090 l 788 896 l 631 896 l 540 999 l 419 896 l 254 896 z "},"ï":{"ha":833,"x_min":44,"x_max":804,"o":"m 44 0 l 68 147 l 335 147 l 410 618 l 176 618 l 200 764 l 588 764 l 490 147 l 732 147 l 708 0 l 44 0 m 682 894 q 614 920 636 894 q 599 990 592 946 q 637 1063 606 1036 q 713 1089 668 1089 q 781 1063 758 1089 q 796 990 803 1036 q 759 920 790 946 q 682 894 728 894 m 360 894 q 293 920 315 894 q 276 990 271 946 q 315 1063 285 1036 q 390 1089 346 1089 q 459 1063 436 1089 q 474 990 482 1036 q 437 920 468 946 q 360 894 406 894 z "},"ị":{"ha":833,"x_min":44,"x_max":732,"o":"m 44 0 l 68 147 l 335 147 l 410 618 l 176 618 l 200 764 l 588 764 l 490 147 l 732 147 l 708 0 l 44 0 m 521 894 q 445 920 471 894 q 426 990 419 946 q 467 1063 433 1036 q 551 1089 501 1089 q 628 1063 603 1089 q 646 990 654 1036 q 606 920 640 946 q 521 894 572 894 m 331 -308 q 254 -282 279 -308 q 235 -211 229 -256 q 277 -140 243 -167 q 361 -112 311 -112 q 438 -140 413 -112 q 456 -211 463 -167 q 415 -282 449 -256 q 331 -308 381 -308 z "},"ì":{"ha":833,"x_min":44,"x_max":732,"o":"m 44 0 l 68 147 l 335 147 l 410 618 l 176 618 l 200 764 l 588 764 l 490 147 l 732 147 l 708 0 l 44 0 m 461 896 l 331 1090 l 501 1090 l 619 896 l 461 896 z "},"ỉ":{"ha":833,"x_min":44,"x_max":732,"o":"m 44 0 l 68 147 l 335 147 l 410 618 l 176 618 l 200 764 l 588 764 l 490 147 l 732 147 l 708 0 l 44 0 m 444 896 l 526 981 q 546 1003 539 993 q 554 1022 553 1014 q 519 1049 558 1049 l 414 1049 l 431 1151 l 576 1151 q 666 1122 635 1151 q 689 1042 697 1092 q 676 999 686 1019 q 650 963 665 978 l 586 896 l 444 896 z "},"ī":{"ha":833,"x_min":44,"x_max":779,"o":"m 44 0 l 68 147 l 335 147 l 410 618 l 176 618 l 200 764 l 588 764 l 490 147 l 732 147 l 708 0 l 44 0 m 290 921 l 310 1047 l 779 1047 l 760 921 l 290 921 z "},"į":{"ha":833,"x_min":44,"x_max":732,"o":"m 336 -296 q 214 -256 256 -296 q 183 -156 172 -217 q 231 -69 190 -112 q 344 14 271 -25 l 456 14 l 422 -10 q 357 -71 379 -43 q 331 -124 335 -99 q 342 -167 326 -149 q 390 -185 358 -185 l 479 -185 l 463 -296 l 336 -296 m 44 0 l 68 147 l 335 147 l 410 618 l 176 618 l 200 764 l 588 764 l 490 147 l 732 147 l 708 0 l 44 0 m 521 894 q 445 920 471 894 q 426 990 419 946 q 467 1063 433 1036 q 553 1089 501 1089 q 628 1063 603 1089 q 647 990 654 1036 q 606 920 640 946 q 521 894 572 894 z "},"ĩ":{"ha":833,"x_min":44,"x_max":786,"o":"m 44 0 l 68 147 l 335 147 l 410 618 l 176 618 l 200 764 l 588 764 l 490 147 l 732 147 l 708 0 l 44 0 m 618 893 q 551 907 575 893 q 511 939 526 921 q 481 971 496 957 q 444 985 467 985 q 413 972 426 985 q 396 938 399 960 l 390 900 l 288 900 l 294 946 q 350 1053 306 1013 q 456 1093 394 1093 q 523 1079 499 1093 q 562 1047 547 1065 q 591 1015 576 1029 q 628 1001 606 1001 q 660 1013 647 1001 q 676 1046 674 1024 l 683 1086 l 786 1086 l 779 1040 q 724 933 768 974 q 618 893 681 893 z "},"j":{"ha":833,"x_min":14,"x_max":754,"o":"m 14 -250 l 39 -100 l 236 -100 q 356 -60 310 -100 q 414 51 403 -21 l 503 614 l 193 614 l 217 764 l 689 764 l 575 49 q 513 -110 561 -43 q 389 -214 464 -178 q 218 -250 314 -250 l 14 -250 m 621 894 q 545 920 571 894 q 526 990 519 946 q 567 1063 533 1036 q 651 1089 601 1089 q 728 1063 703 1089 q 746 990 754 1036 q 706 920 740 946 q 621 894 672 894 z "},"ȷ":{"ha":833,"x_min":14,"x_max":689,"o":"m 14 -250 l 39 -100 l 236 -100 q 356 -60 310 -100 q 414 51 403 -21 l 503 614 l 193 614 l 217 764 l 689 764 l 575 49 q 513 -110 561 -43 q 389 -214 464 -178 q 218 -250 314 -250 l 14 -250 z "},"ĵ":{"ha":833,"x_min":14,"x_max":804,"o":"m 14 -250 l 39 -100 l 236 -100 q 356 -60 310 -100 q 414 51 403 -21 l 503 614 l 193 614 l 217 764 l 689 764 l 575 49 q 513 -110 561 -43 q 389 -214 464 -178 q 218 -250 314 -250 l 14 -250 m 271 896 l 493 1090 l 643 1090 l 804 896 l 647 896 l 557 999 l 436 896 l 271 896 z "},"k":{"ha":833,"x_min":54,"x_max":835,"o":"m 54 0 l 215 1014 l 378 1014 l 289 460 l 406 460 l 649 764 l 835 764 l 538 389 l 718 0 l 538 0 l 393 322 l 268 322 l 217 0 l 54 0 z "},"ķ":{"ha":833,"x_min":54,"x_max":835,"o":"m 54 0 l 215 1014 l 378 1014 l 289 460 l 406 460 l 649 764 l 835 764 l 538 389 l 718 0 l 538 0 l 393 322 l 268 322 l 217 0 l 54 0 m 140 -333 l 304 -132 l 478 -132 l 294 -333 l 140 -333 z "},"ĸ":{"ha":833,"x_min":57,"x_max":835,"o":"m 57 0 l 178 764 l 339 764 l 290 460 l 406 460 l 649 764 l 835 764 l 539 390 l 718 0 l 536 0 l 392 322 l 269 322 l 218 0 l 57 0 z "},"l":{"ha":833,"x_min":122,"x_max":735,"o":"m 461 0 q 294 66 350 0 q 256 240 239 132 l 356 868 l 122 868 l 146 1014 l 540 1014 l 418 240 q 431 172 411 197 q 493 146 451 146 l 735 146 l 713 0 l 461 0 z "},"ĺ":{"ha":833,"x_min":122,"x_max":735,"o":"m 461 0 q 294 66 350 0 q 256 240 239 132 l 356 868 l 122 868 l 146 1014 l 540 1014 l 418 240 q 431 172 411 197 q 493 146 451 146 l 735 146 l 713 0 l 461 0 m 365 1125 l 542 1319 l 724 1319 l 535 1125 l 365 1125 z "},"ľ":{"ha":833,"x_min":122,"x_max":876,"o":"m 461 0 q 294 66 350 0 q 256 240 239 132 l 356 868 l 122 868 l 146 1014 l 540 1014 l 418 240 q 431 172 411 197 q 493 146 451 146 l 735 146 l 713 0 l 461 0 m 669 764 l 724 1014 l 875 1014 l 807 764 l 669 764 z "},"ļ":{"ha":833,"x_min":122,"x_max":735,"o":"m 461 0 q 294 66 350 0 q 256 240 239 132 l 356 868 l 122 868 l 146 1014 l 540 1014 l 418 240 q 431 172 411 197 q 493 146 451 146 l 735 146 l 713 0 l 461 0 m 143 -333 l 307 -132 l 481 -132 l 297 -333 l 143 -333 z "},"ŀ":{"ha":833,"x_min":94,"x_max":865,"o":"m 433 0 q 267 66 322 0 q 228 240 211 132 l 328 868 l 94 868 l 118 1014 l 513 1014 l 390 240 q 403 172 383 197 q 465 146 424 146 l 707 146 l 685 0 l 433 0 z "},"ł":{"ha":833,"x_min":122,"x_max":735,"o":"m 139 319 l 139 468 l 658 778 l 658 629 l 139 319 m 461 0 q 294 66 350 0 q 256 240 239 132 l 356 868 l 122 868 l 146 1014 l 540 1014 l 418 240 q 431 172 411 197 q 493 146 451 146 l 735 146 l 713 0 l 461 0 z "},"m":{"ha":833,"x_min":15,"x_max":803,"o":"m 15 0 l 136 764 l 271 764 l 254 664 l 283 664 l 257 636 q 309 740 268 701 q 407 778 350 778 q 496 728 469 778 q 508 594 522 679 l 488 664 l 538 664 l 513 636 q 565 740 524 701 q 667 778 607 778 q 770 724 738 778 q 789 582 803 671 l 696 0 l 553 0 l 643 576 q 636 639 650 617 q 589 661 622 661 q 535 640 557 661 q 507 578 514 618 l 415 0 l 296 0 l 388 576 q 380 640 394 618 q 332 661 365 661 q 278 640 299 661 q 251 578 257 618 l 160 0 l 15 0 z "},"n":{"ha":833,"x_min":50,"x_max":764,"o":"m 50 0 l 171 764 l 331 764 l 307 618 l 349 618 l 301 581 q 380 726 317 674 q 538 778 443 778 q 708 704 651 778 q 743 504 764 631 l 664 0 l 501 0 l 579 488 q 558 599 590 560 q 460 639 526 639 q 347 597 392 639 q 289 481 301 556 l 213 0 l 50 0 z "},"ń":{"ha":833,"x_min":50,"x_max":764,"o":"m 50 0 l 171 764 l 331 764 l 307 618 l 349 618 l 301 581 q 380 726 317 674 q 538 778 443 778 q 708 704 651 778 q 743 504 764 631 l 664 0 l 501 0 l 579 488 q 558 599 590 560 q 460 639 526 639 q 347 597 392 639 q 289 481 301 556 l 213 0 l 50 0 m 353 896 l 529 1090 l 711 1090 l 522 896 l 353 896 z "},"ŉ":{"ha":833,"x_min":-124,"x_max":764,"o":"m 50 0 l 171 764 l 331 764 l 307 618 l 349 618 l 301 581 q 380 726 317 674 q 538 778 443 778 q 708 704 651 778 q 743 504 764 631 l 664 0 l 501 0 l 579 488 q 558 599 590 560 q 460 639 526 639 q 347 597 392 639 q 289 481 301 556 l 213 0 l 50 0 m -124 896 l 40 1097 l 214 1097 l 31 896 l -124 896 z "},"ň":{"ha":833,"x_min":50,"x_max":796,"o":"m 50 0 l 171 764 l 331 764 l 307 618 l 349 618 l 301 581 q 380 726 317 674 q 538 778 443 778 q 708 704 651 778 q 743 504 764 631 l 664 0 l 501 0 l 579 488 q 558 599 590 560 q 460 639 526 639 q 347 597 392 639 q 289 481 301 556 l 213 0 l 50 0 m 424 896 l 263 1090 l 419 1090 l 511 988 l 631 1090 l 796 1090 l 574 896 l 424 896 z "},"ņ":{"ha":833,"x_min":50,"x_max":764,"o":"m 50 0 l 171 764 l 331 764 l 307 618 l 349 618 l 301 581 q 380 726 317 674 q 538 778 443 778 q 708 704 651 778 q 743 504 764 631 l 664 0 l 501 0 l 579 488 q 558 599 590 560 q 460 639 526 639 q 347 597 392 639 q 289 481 301 556 l 213 0 l 50 0 m 140 -333 l 304 -132 l 478 -132 l 294 -333 l 140 -333 z "},"ŋ":{"ha":833,"x_min":53,"x_max":763,"o":"m 236 -250 l 260 -97 l 346 -97 q 453 -61 410 -97 q 506 38 496 -25 l 578 488 q 558 599 589 560 q 460 639 526 639 q 347 597 392 639 q 290 481 303 556 l 214 0 l 53 0 l 174 764 l 332 764 l 308 618 l 350 618 l 303 581 q 381 726 318 674 q 538 778 443 778 q 707 704 651 778 q 742 504 763 631 l 665 26 q 604 -118 653 -56 q 481 -215 556 -181 q 315 -250 407 -250 l 236 -250 z "},"ñ":{"ha":833,"x_min":50,"x_max":764,"o":"m 50 0 l 171 764 l 331 764 l 307 618 l 349 618 l 301 581 q 380 726 317 674 q 538 778 443 778 q 708 704 651 778 q 743 504 764 631 l 664 0 l 501 0 l 579 488 q 558 599 590 560 q 460 639 526 639 q 347 597 392 639 q 289 481 301 556 l 213 0 l 50 0 m 594 893 q 527 907 551 893 q 488 939 503 921 q 458 971 472 957 q 421 985 443 985 q 389 972 403 985 q 372 938 375 960 l 367 900 l 264 900 l 271 946 q 326 1053 282 1013 q 432 1093 371 1093 q 499 1079 475 1093 q 538 1047 524 1065 q 567 1015 553 1029 q 604 1001 582 1001 q 637 1013 624 1001 q 653 1046 650 1024 l 660 1086 l 763 1086 l 756 1040 q 701 933 744 974 q 594 893 657 893 z "},"o":{"ha":833,"x_min":75,"x_max":758,"o":"m 353 -14 q 193 22 257 -14 q 102 126 129 58 q 89 283 75 193 l 119 481 q 183 639 135 572 q 308 742 232 706 q 479 778 383 778 q 640 742 576 778 q 731 639 703 706 q 744 481 758 572 l 713 283 q 649 126 699 193 q 525 22 600 58 q 353 -14 450 -14 m 376 128 q 494 168 449 128 q 550 283 539 208 l 581 481 q 562 597 594 557 q 456 636 529 636 q 340 597 385 636 q 282 481 294 557 l 251 283 q 272 168 239 208 q 376 128 304 128 z "},"ó":{"ha":833,"x_min":75,"x_max":758,"o":"m 353 -14 q 193 22 257 -14 q 102 126 129 58 q 89 283 75 193 l 119 481 q 183 639 135 572 q 308 742 232 706 q 479 778 383 778 q 640 742 576 778 q 731 639 703 706 q 744 481 758 572 l 713 283 q 649 126 699 193 q 525 22 600 58 q 353 -14 450 -14 m 376 128 q 494 168 449 128 q 550 283 539 208 l 581 481 q 562 597 594 557 q 456 636 529 636 q 340 597 385 636 q 282 481 294 557 l 251 283 q 272 168 239 208 q 376 128 304 128 m 394 896 l 571 1090 l 753 1090 l 564 896 l 394 896 z "},"ŏ":{"ha":833,"x_min":75,"x_max":765,"o":"m 353 -14 q 193 22 257 -14 q 102 126 129 58 q 89 283 75 193 l 119 481 q 183 639 135 572 q 308 742 232 706 q 479 778 383 778 q 640 742 576 778 q 731 639 703 706 q 744 481 758 572 l 713 283 q 649 126 699 193 q 525 22 600 58 q 353 -14 450 -14 m 376 128 q 494 168 449 128 q 550 283 539 208 l 581 481 q 562 597 594 557 q 456 636 529 636 q 340 597 385 636 q 282 481 294 557 l 251 283 q 272 168 239 208 q 376 128 304 128 m 496 886 q 333 942 390 886 q 290 1090 276 999 l 414 1090 q 433 1014 407 1043 q 508 985 458 985 q 595 1014 560 985 q 638 1090 631 1043 l 765 1090 q 677 942 751 999 q 496 886 603 886 z "},"ô":{"ha":833,"x_min":75,"x_max":764,"o":"m 353 -14 q 193 22 257 -14 q 102 126 129 58 q 89 283 75 193 l 119 481 q 183 639 135 572 q 308 742 232 706 q 479 778 383 778 q 640 742 576 778 q 731 639 703 706 q 744 481 758 572 l 713 283 q 649 126 699 193 q 525 22 600 58 q 353 -14 450 -14 m 376 128 q 494 168 449 128 q 550 283 539 208 l 581 481 q 562 597 594 557 q 456 636 529 636 q 340 597 385 636 q 282 481 294 557 l 251 283 q 272 168 239 208 q 376 128 304 128 m 231 896 l 453 1090 l 603 1090 l 764 896 l 607 896 l 517 999 l 396 896 l 231 896 z "},"ố":{"ha":833,"x_min":75,"x_max":1043,"o":"m 353 -14 q 193 22 257 -14 q 102 126 129 58 q 89 283 75 193 l 119 481 q 183 639 135 572 q 308 742 232 706 q 479 778 383 778 q 640 742 576 778 q 731 639 703 706 q 744 481 758 572 l 713 283 q 649 126 699 193 q 525 22 600 58 q 353 -14 450 -14 m 376 128 q 494 168 449 128 q 550 283 539 208 l 581 481 q 562 597 594 557 q 456 636 529 636 q 340 597 385 636 q 282 481 294 557 l 251 283 q 272 168 239 208 q 376 128 304 128 m 679 1053 l 872 1247 l 1043 1247 l 840 1053 l 679 1053 m 231 896 l 453 1090 l 603 1090 l 764 896 l 607 896 l 515 999 l 396 896 l 231 896 z "},"ộ":{"ha":833,"x_min":75,"x_max":764,"o":"m 231 896 l 453 1090 l 603 1090 l 764 896 l 607 896 l 517 999 l 396 896 l 231 896 m 353 -14 q 193 22 257 -14 q 102 126 129 58 q 89 283 75 193 l 119 481 q 183 639 135 572 q 308 742 232 706 q 479 778 383 778 q 640 742 576 778 q 731 639 703 706 q 744 481 758 572 l 713 283 q 649 126 699 193 q 525 22 600 58 q 353 -14 450 -14 m 376 128 q 494 168 449 128 q 550 283 539 208 l 581 481 q 562 597 594 557 q 456 636 529 636 q 340 597 385 636 q 282 481 294 557 l 251 283 q 272 168 239 208 q 376 128 304 128 m 321 -308 q 244 -282 269 -308 q 225 -211 219 -256 q 267 -140 233 -167 q 351 -112 301 -112 q 428 -140 403 -112 q 446 -211 453 -167 q 405 -282 439 -256 q 321 -308 371 -308 z "},"ồ":{"ha":833,"x_min":75,"x_max":904,"o":"m 353 -14 q 193 22 257 -14 q 102 126 129 58 q 89 283 75 193 l 119 481 q 183 639 135 572 q 308 742 232 706 q 479 778 383 778 q 640 742 576 778 q 731 639 703 706 q 744 481 758 572 l 713 283 q 649 126 699 193 q 525 22 600 58 q 353 -14 450 -14 m 376 128 q 494 168 449 128 q 550 283 539 208 l 581 481 q 562 597 594 557 q 456 636 529 636 q 340 597 385 636 q 282 481 294 557 l 251 283 q 272 168 239 208 q 376 128 304 128 m 751 1053 l 601 1247 l 764 1247 l 904 1053 l 751 1053 m 231 896 l 453 1090 l 603 1090 l 764 896 l 607 896 l 515 999 l 396 896 l 231 896 z "},"ổ":{"ha":833,"x_min":75,"x_max":933,"o":"m 353 -14 q 193 22 257 -14 q 102 126 129 58 q 89 283 75 193 l 119 481 q 183 639 135 572 q 308 742 232 706 q 479 778 383 778 q 640 742 576 778 q 731 639 703 706 q 744 481 758 572 l 713 283 q 649 126 699 193 q 525 22 600 58 q 353 -14 450 -14 m 376 128 q 494 168 449 128 q 550 283 539 208 l 581 481 q 562 597 594 557 q 456 636 529 636 q 340 597 385 636 q 282 481 294 557 l 251 283 q 272 168 239 208 q 376 128 304 128 m 692 1053 l 769 1135 q 792 1172 790 1157 q 758 1201 796 1201 l 675 1201 l 690 1300 l 806 1300 q 901 1271 868 1300 q 925 1193 933 1242 q 886 1117 918 1151 l 828 1053 l 692 1053 m 231 896 l 453 1090 l 603 1090 l 764 896 l 607 896 l 515 999 l 396 896 l 231 896 z "},"ỗ":{"ha":833,"x_min":75,"x_max":797,"o":"m 353 -14 q 193 22 257 -14 q 102 126 129 58 q 89 283 75 193 l 119 481 q 183 639 135 572 q 308 742 232 706 q 479 778 383 778 q 640 742 576 778 q 731 639 703 706 q 744 481 758 572 l 713 283 q 649 126 699 193 q 525 22 600 58 q 353 -14 450 -14 m 376 128 q 494 168 449 128 q 550 283 539 208 l 581 481 q 562 597 594 557 q 456 636 529 636 q 340 597 385 636 q 282 481 294 557 l 251 283 q 272 168 239 208 q 376 128 304 128 m 631 1136 q 562 1149 586 1136 q 523 1179 538 1163 q 495 1208 508 1196 q 458 1221 482 1221 q 410 1178 418 1221 l 404 1144 l 303 1144 l 307 1176 q 362 1277 317 1239 q 469 1315 407 1315 q 538 1302 514 1315 q 577 1272 563 1289 q 605 1242 592 1256 q 640 1229 618 1229 q 689 1269 682 1229 l 694 1304 l 797 1304 l 793 1275 q 738 1174 782 1213 q 631 1136 693 1136 m 231 896 l 453 1090 l 603 1090 l 764 896 l 607 896 l 515 999 l 396 896 l 231 896 z "},"ö":{"ha":833,"x_min":75,"x_max":779,"o":"m 353 -14 q 193 22 257 -14 q 102 126 129 58 q 89 283 75 193 l 119 481 q 183 639 135 572 q 308 742 232 706 q 479 778 383 778 q 640 742 576 778 q 731 639 703 706 q 744 481 758 572 l 713 283 q 649 126 699 193 q 525 22 600 58 q 353 -14 450 -14 m 376 128 q 494 168 449 128 q 550 283 539 208 l 581 481 q 562 597 594 557 q 456 636 529 636 q 340 597 385 636 q 282 481 294 557 l 251 283 q 272 168 239 208 q 376 128 304 128 m 658 894 q 590 920 613 894 q 575 990 568 946 q 613 1063 582 1036 q 689 1089 644 1089 q 757 1063 735 1089 q 772 990 779 1036 q 735 920 767 946 q 658 894 704 894 m 336 894 q 269 920 292 894 q 253 990 247 946 q 292 1063 261 1036 q 367 1089 322 1089 q 435 1063 413 1089 q 450 990 458 1036 q 413 920 444 946 q 336 894 382 894 z "},"ọ":{"ha":833,"x_min":75,"x_max":758,"o":"m 353 -14 q 193 22 257 -14 q 102 126 129 58 q 89 283 75 193 l 119 481 q 183 639 135 572 q 308 742 232 706 q 479 778 383 778 q 640 742 576 778 q 731 639 703 706 q 744 481 758 572 l 713 283 q 649 126 699 193 q 525 22 600 58 q 353 -14 450 -14 m 376 128 q 494 168 449 128 q 550 283 539 208 l 581 481 q 562 597 594 557 q 456 636 529 636 q 340 597 385 636 q 282 481 294 557 l 251 283 q 272 168 239 208 q 376 128 304 128 m 321 -308 q 244 -282 269 -308 q 225 -211 219 -256 q 267 -140 233 -167 q 351 -112 301 -112 q 428 -140 403 -112 q 446 -211 453 -167 q 405 -282 439 -256 q 321 -308 371 -308 z "},"ò":{"ha":833,"x_min":75,"x_max":758,"o":"m 353 -14 q 193 22 257 -14 q 102 126 129 58 q 89 283 75 193 l 119 481 q 183 639 135 572 q 308 742 232 706 q 479 778 383 778 q 640 742 576 778 q 731 639 703 706 q 744 481 758 572 l 713 283 q 649 126 699 193 q 525 22 600 58 q 353 -14 450 -14 m 376 128 q 494 168 449 128 q 550 283 539 208 l 581 481 q 562 597 594 557 q 456 636 529 636 q 340 597 385 636 q 282 481 294 557 l 251 283 q 272 168 239 208 q 376 128 304 128 m 438 896 l 307 1090 l 478 1090 l 596 896 l 438 896 z "},"ỏ":{"ha":833,"x_min":75,"x_max":758,"o":"m 353 -14 q 193 22 257 -14 q 102 126 129 58 q 89 283 75 193 l 119 481 q 183 639 135 572 q 308 742 232 706 q 479 778 383 778 q 640 742 576 778 q 731 639 703 706 q 744 481 758 572 l 713 283 q 649 126 699 193 q 525 22 600 58 q 353 -14 450 -14 m 376 128 q 494 168 449 128 q 550 283 539 208 l 581 481 q 562 597 594 557 q 456 636 529 636 q 340 597 385 636 q 282 481 294 557 l 251 283 q 272 168 239 208 q 376 128 304 128 m 421 896 l 503 981 q 522 1003 515 993 q 531 1022 529 1014 q 496 1049 535 1049 l 390 1049 l 407 1151 l 553 1151 q 642 1122 611 1151 q 665 1042 674 1092 q 652 999 663 1019 q 626 963 642 978 l 563 896 l 421 896 z "},"ơ":{"ha":833,"x_min":75,"x_max":854,"o":"m 569 625 l 586 736 l 650 736 q 688 749 674 736 q 706 785 703 761 l 722 889 l 854 889 l 838 781 q 772 667 826 710 q 642 625 718 625 l 569 625 m 353 -14 q 193 22 257 -14 q 102 126 129 58 q 89 283 75 193 l 119 481 q 183 639 135 572 q 308 742 232 706 q 479 778 383 778 q 640 742 576 778 q 731 639 703 706 q 744 481 758 572 l 713 283 q 649 126 699 193 q 525 22 600 58 q 353 -14 450 -14 m 376 128 q 494 168 449 128 q 550 283 539 208 l 581 481 q 562 597 594 557 q 456 636 529 636 q 340 597 385 636 q 282 481 294 557 l 251 283 q 272 168 239 208 q 376 128 304 128 z "},"ớ":{"ha":833,"x_min":75,"x_max":854,"o":"m 569 625 l 586 736 l 650 736 q 688 749 674 736 q 706 785 703 761 l 722 889 l 854 889 l 838 781 q 772 667 826 710 q 642 625 718 625 l 569 625 m 353 -14 q 193 22 257 -14 q 102 126 129 58 q 89 283 75 193 l 119 481 q 183 639 135 572 q 308 742 232 706 q 479 778 383 778 q 640 742 576 778 q 731 639 703 706 q 744 481 758 572 l 713 283 q 649 126 699 193 q 525 22 600 58 q 353 -14 450 -14 m 376 128 q 494 168 449 128 q 550 283 539 208 l 581 481 q 562 597 594 557 q 456 636 529 636 q 340 597 385 636 q 282 481 294 557 l 251 283 q 272 168 239 208 q 376 128 304 128 m 381 896 l 557 1090 l 739 1090 l 550 896 l 381 896 z "},"ợ":{"ha":833,"x_min":75,"x_max":854,"o":"m 569 625 l 586 736 l 650 736 q 688 749 674 736 q 706 785 703 761 l 722 889 l 854 889 l 838 781 q 772 667 826 710 q 642 625 718 625 l 569 625 m 353 -14 q 193 22 257 -14 q 102 126 129 58 q 89 283 75 193 l 119 481 q 183 639 135 572 q 308 742 232 706 q 479 778 383 778 q 640 742 576 778 q 731 639 703 706 q 744 481 758 572 l 713 283 q 649 126 699 193 q 525 22 600 58 q 353 -14 450 -14 m 376 128 q 494 168 449 128 q 550 283 539 208 l 581 481 q 562 597 594 557 q 456 636 529 636 q 340 597 385 636 q 282 481 294 557 l 251 283 q 272 168 239 208 q 376 128 304 128 m 321 -308 q 244 -282 269 -308 q 225 -211 219 -256 q 267 -140 233 -167 q 351 -112 301 -112 q 428 -140 403 -112 q 446 -211 453 -167 q 405 -282 439 -256 q 321 -308 371 -308 z "},"ờ":{"ha":833,"x_min":75,"x_max":854,"o":"m 569 625 l 586 736 l 650 736 q 688 749 674 736 q 706 785 703 761 l 722 889 l 854 889 l 838 781 q 772 667 826 710 q 642 625 718 625 l 569 625 m 353 -14 q 193 22 257 -14 q 102 126 129 58 q 89 283 75 193 l 119 481 q 183 639 135 572 q 308 742 232 706 q 479 778 383 778 q 640 742 576 778 q 731 639 703 706 q 744 481 758 572 l 713 283 q 649 126 699 193 q 525 22 600 58 q 353 -14 450 -14 m 376 128 q 494 168 449 128 q 550 283 539 208 l 581 481 q 562 597 594 557 q 456 636 529 636 q 340 597 385 636 q 282 481 294 557 l 251 283 q 272 168 239 208 q 376 128 304 128 m 424 896 l 293 1090 l 464 1090 l 582 896 l 424 896 z "},"ở":{"ha":833,"x_min":75,"x_max":854,"o":"m 569 625 l 586 736 l 650 736 q 688 749 674 736 q 706 785 703 761 l 722 889 l 854 889 l 838 781 q 772 667 826 710 q 642 625 718 625 l 569 625 m 353 -14 q 193 22 257 -14 q 102 126 129 58 q 89 283 75 193 l 119 481 q 183 639 135 572 q 308 742 232 706 q 479 778 383 778 q 640 742 576 778 q 731 639 703 706 q 744 481 758 572 l 713 283 q 649 126 699 193 q 525 22 600 58 q 353 -14 450 -14 m 376 128 q 494 168 449 128 q 550 283 539 208 l 581 481 q 562 597 594 557 q 456 636 529 636 q 340 597 385 636 q 282 481 294 557 l 251 283 q 272 168 239 208 q 376 128 304 128 m 421 896 l 503 981 q 522 1003 515 993 q 531 1022 529 1014 q 496 1049 535 1049 l 390 1049 l 407 1151 l 553 1151 q 642 1122 611 1151 q 665 1042 674 1092 q 652 999 663 1019 q 626 963 642 978 l 563 896 l 421 896 z "},"ỡ":{"ha":833,"x_min":75,"x_max":854,"o":"m 569 625 l 586 736 l 650 736 q 688 749 674 736 q 706 785 703 761 l 722 889 l 854 889 l 838 781 q 772 667 826 710 q 642 625 718 625 l 569 625 m 353 -14 q 193 22 257 -14 q 102 126 129 58 q 89 283 75 193 l 119 481 q 183 639 135 572 q 308 742 232 706 q 479 778 383 778 q 640 742 576 778 q 731 639 703 706 q 744 481 758 572 l 713 283 q 649 126 699 193 q 525 22 600 58 q 353 -14 450 -14 m 376 128 q 494 168 449 128 q 550 283 539 208 l 581 481 q 562 597 594 557 q 456 636 529 636 q 340 597 385 636 q 282 481 294 557 l 251 283 q 272 168 239 208 q 376 128 304 128 m 581 893 q 513 907 538 893 q 474 939 489 921 q 444 971 458 957 q 407 985 429 985 q 375 972 389 985 q 358 938 361 960 l 353 900 l 250 900 l 257 946 q 313 1053 268 1013 q 418 1093 357 1093 q 485 1079 461 1093 q 524 1047 510 1065 q 553 1015 539 1029 q 590 1001 568 1001 q 623 1013 610 1001 q 639 1046 636 1024 l 646 1086 l 749 1086 l 742 1040 q 687 933 731 974 q 581 893 643 893 z "},"ő":{"ha":833,"x_min":75,"x_max":874,"o":"m 353 -14 q 193 22 257 -14 q 102 126 129 58 q 89 283 75 193 l 119 481 q 183 639 135 572 q 308 742 232 706 q 479 778 383 778 q 640 742 576 778 q 731 639 703 706 q 744 481 758 572 l 713 283 q 649 126 699 193 q 525 22 600 58 q 353 -14 450 -14 m 376 128 q 494 168 449 128 q 550 283 539 208 l 581 481 q 562 597 594 557 q 456 636 529 636 q 340 597 385 636 q 282 481 294 557 l 251 283 q 272 168 239 208 q 376 128 304 128 m 531 896 l 711 1090 l 874 1090 l 683 896 l 531 896 m 256 896 l 436 1090 l 599 1090 l 408 896 l 256 896 z "},"ō":{"ha":833,"x_min":75,"x_max":758,"o":"m 353 -14 q 193 22 257 -14 q 102 126 129 58 q 89 283 75 193 l 119 481 q 183 639 135 572 q 308 742 232 706 q 479 778 383 778 q 640 742 576 778 q 731 639 703 706 q 744 481 758 572 l 713 283 q 649 126 699 193 q 525 22 600 58 q 353 -14 450 -14 m 376 128 q 494 168 449 128 q 550 283 539 208 l 581 481 q 562 597 594 557 q 456 636 529 636 q 340 597 385 636 q 282 481 294 557 l 251 283 q 272 168 239 208 q 376 128 304 128 m 267 921 l 286 1047 l 756 1047 l 736 921 l 267 921 z "},"ǫ":{"ha":833,"x_min":75,"x_max":758,"o":"m 400 -296 q 279 -256 321 -296 q 249 -156 238 -217 q 290 -76 254 -117 q 403 11 326 -36 q 392 0 401 6 q 372 -10 383 -6 q 353 -14 361 -14 q 193 22 257 -14 q 102 126 129 58 q 89 283 75 193 l 119 481 q 183 639 135 572 q 308 742 232 706 q 479 778 383 778 q 640 742 576 778 q 731 639 703 706 q 744 481 758 572 l 713 283 q 656 138 699 201 q 547 35 613 74 l 488 -10 q 422 -71 444 -43 q 394 -124 400 -99 q 408 -167 392 -149 q 456 -185 424 -185 l 544 -185 l 528 -296 l 400 -296 m 376 128 q 494 168 449 128 q 550 283 539 208 l 581 481 q 562 597 594 557 q 456 636 529 636 q 340 597 385 636 q 282 481 294 557 l 251 283 q 272 168 239 208 q 376 128 304 128 z "},"ø":{"ha":833,"x_min":-25,"x_max":858,"o":"m -25 -42 l 717 819 l 858 819 l 117 -42 l -25 -42 m 353 -14 q 193 22 257 -14 q 102 126 129 58 q 89 283 75 193 l 119 481 q 183 639 135 572 q 308 742 232 706 q 479 778 383 778 q 640 742 576 778 q 732 639 704 706 q 744 481 760 572 l 713 283 q 649 126 699 193 q 525 22 600 58 q 353 -14 450 -14 m 376 128 q 500 169 451 128 q 560 283 549 211 l 592 481 q 567 595 603 554 q 456 636 532 636 q 332 595 381 636 q 272 481 283 554 l 240 283 q 265 169 229 211 q 376 128 300 128 z "},"ǿ":{"ha":833,"x_min":-25,"x_max":858,"o":"m -25 -42 l 717 819 l 858 819 l 117 -42 l -25 -42 m 353 -14 q 193 22 257 -14 q 102 126 129 58 q 89 283 75 193 l 119 481 q 183 639 135 572 q 308 742 232 706 q 479 778 383 778 q 640 742 576 778 q 732 639 704 706 q 744 481 760 572 l 713 283 q 649 126 699 193 q 525 22 600 58 q 353 -14 450 -14 m 376 128 q 500 169 451 128 q 560 283 549 211 l 592 481 q 567 595 603 554 q 456 636 532 636 q 332 595 381 636 q 272 481 283 554 l 240 283 q 265 169 229 211 q 376 128 300 128 m 394 896 l 571 1090 l 753 1090 l 564 896 l 394 896 z "},"õ":{"ha":833,"x_min":75,"x_max":763,"o":"m 353 -14 q 193 22 257 -14 q 102 126 129 58 q 89 283 75 193 l 119 481 q 183 639 135 572 q 308 742 232 706 q 479 778 383 778 q 640 742 576 778 q 731 639 703 706 q 744 481 758 572 l 713 283 q 649 126 699 193 q 525 22 600 58 q 353 -14 450 -14 m 376 128 q 494 168 449 128 q 550 283 539 208 l 581 481 q 562 597 594 557 q 456 636 529 636 q 340 597 385 636 q 282 481 294 557 l 251 283 q 272 168 239 208 q 376 128 304 128 m 594 893 q 527 907 551 893 q 488 939 503 921 q 458 971 472 957 q 421 985 443 985 q 389 972 403 985 q 372 938 375 960 l 367 900 l 264 900 l 271 946 q 326 1053 282 1013 q 432 1093 371 1093 q 499 1079 475 1093 q 538 1047 524 1065 q 567 1015 553 1029 q 604 1001 582 1001 q 637 1013 624 1001 q 653 1046 650 1024 l 660 1086 l 763 1086 l 756 1040 q 701 933 744 974 q 594 893 657 893 z "},"œ":{"ha":833,"x_min":4,"x_max":828,"o":"m 186 -14 q 49 45 94 -14 q 19 203 4 104 l 76 561 q 156 719 92 661 q 313 778 221 778 q 399 760 367 778 q 444 718 431 743 q 458 669 458 693 l 465 669 q 494 718 472 693 q 553 760 515 743 q 646 778 592 778 q 783 719 738 778 q 813 561 828 661 l 779 347 l 479 347 l 456 203 q 467 131 449 157 q 522 106 485 106 q 580 126 556 106 q 614 183 604 147 l 750 183 q 666 40 729 93 q 519 -14 603 -14 q 433 3 465 -14 q 387 46 400 21 q 374 94 374 71 l 367 94 q 338 46 360 71 q 278 3 315 21 q 186 -14 240 -14 m 224 106 q 287 131 261 106 q 319 203 313 157 l 376 561 q 366 633 383 607 q 311 658 349 658 q 246 633 272 658 q 213 561 219 607 l 156 203 q 167 131 149 157 q 224 106 186 106 m 496 453 l 658 453 l 676 561 q 665 633 683 607 q 608 658 647 658 q 545 633 571 658 q 513 561 519 607 l 496 453 z "},"p":{"ha":833,"x_min":10,"x_max":765,"o":"m 10 -250 l 171 764 l 331 764 l 307 618 l 342 618 l 301 581 q 381 725 315 672 q 540 778 446 778 q 710 699 656 778 q 744 488 765 621 l 711 276 q 656 123 697 189 q 553 22 615 57 q 414 -14 492 -14 q 272 39 319 -14 q 239 183 224 92 l 268 146 l 232 146 l 207 -33 l 172 -250 l 10 -250 m 381 126 q 494 167 450 126 q 550 283 539 208 l 581 481 q 563 597 594 557 q 460 638 531 638 q 347 596 393 638 q 289 481 301 554 l 257 283 q 279 168 246 210 q 381 126 313 126 z "},"þ":{"ha":833,"x_min":7,"x_max":761,"o":"m 7 -250 l 58 76 l 218 76 l 165 -250 l 7 -250 m 408 -14 q 267 39 314 -14 q 235 183 219 92 l 265 146 l 229 146 l 206 0 l 47 0 l 208 1014 l 369 1014 l 335 797 l 301 618 l 339 618 l 297 581 q 377 725 313 672 q 535 778 442 778 q 706 699 650 778 q 740 488 761 621 l 707 276 q 651 122 693 188 q 548 22 610 57 q 408 -14 486 -14 m 375 126 q 490 167 446 126 q 546 283 535 208 l 578 481 q 558 597 590 556 q 456 638 525 638 q 342 596 388 638 q 285 481 297 554 l 254 283 q 274 168 242 210 q 375 126 307 126 z "},"q":{"ha":833,"x_min":67,"x_max":782,"o":"m 458 -250 l 493 -33 l 526 146 l 490 146 l 529 183 q 451 39 515 92 q 293 -14 388 -14 q 122 65 178 -14 q 88 276 67 143 l 121 488 q 176 642 135 576 q 281 742 218 707 q 419 778 343 778 q 560 725 514 778 q 592 581 607 672 l 564 618 l 599 618 l 622 764 l 782 764 l 621 -250 l 458 -250 m 372 126 q 486 168 440 126 q 543 283 532 210 l 575 481 q 554 596 588 554 q 453 638 521 638 q 339 597 383 638 q 282 481 294 557 l 251 283 q 271 167 239 208 q 372 126 303 126 z "},"r":{"ha":833,"x_min":75,"x_max":801,"o":"m 75 0 l 196 764 l 350 764 l 326 618 l 367 618 l 304 528 q 389 715 324 651 q 561 778 454 778 q 743 702 685 778 q 781 492 801 626 l 772 439 l 604 439 l 611 481 q 591 600 624 558 q 488 642 558 642 q 372 599 417 642 q 313 481 326 557 l 238 0 l 75 0 z "},"ŕ":{"ha":833,"x_min":75,"x_max":801,"o":"m 75 0 l 196 764 l 350 764 l 326 618 l 367 618 l 304 528 q 389 715 324 651 q 561 778 454 778 q 743 702 685 778 q 781 492 801 626 l 772 439 l 604 439 l 611 481 q 591 600 624 558 q 488 642 558 642 q 372 599 417 642 q 313 481 326 557 l 238 0 l 75 0 m 422 896 l 599 1090 l 781 1090 l 592 896 l 422 896 z "},"ř":{"ha":833,"x_min":75,"x_max":824,"o":"m 75 0 l 196 764 l 350 764 l 326 618 l 367 618 l 304 528 q 389 715 324 651 q 561 778 454 778 q 743 702 685 778 q 781 492 801 626 l 772 439 l 604 439 l 611 481 q 591 600 624 558 q 488 642 558 642 q 372 599 417 642 q 313 481 326 557 l 238 0 l 75 0 m 451 896 l 290 1090 l 447 1090 l 539 988 l 658 1090 l 824 1090 l 601 896 l 451 896 z "},"ŗ":{"ha":833,"x_min":-89,"x_max":801,"o":"m 75 0 l 196 764 l 350 764 l 326 618 l 367 618 l 304 528 q 389 715 324 651 q 561 778 454 778 q 743 702 685 778 q 781 492 801 626 l 772 439 l 604 439 l 611 481 q 591 600 624 558 q 488 642 558 642 q 372 599 417 642 q 313 481 326 557 l 238 0 l 75 0 m -89 -333 l 75 -132 l 249 -132 l 65 -333 l -89 -333 z "},"s":{"ha":833,"x_min":57,"x_max":764,"o":"m 322 -14 q 125 46 193 -14 q 67 203 57 106 l 229 203 q 258 142 228 165 q 343 119 289 119 l 403 119 q 507 147 469 119 q 551 218 544 174 q 533 286 558 260 q 449 321 507 313 l 354 335 q 180 402 232 353 q 143 553 128 451 q 240 719 160 660 q 457 778 319 778 l 510 778 q 699 722 633 778 q 756 571 764 665 l 594 571 q 567 624 594 603 q 489 644 540 644 l 436 644 q 341 621 374 644 q 301 553 308 597 q 316 491 296 513 q 390 461 336 469 l 488 446 q 672 376 617 428 q 711 221 726 324 q 610 48 693 110 q 381 -14 526 -14 l 322 -14 z "},"ś":{"ha":833,"x_min":57,"x_max":767,"o":"m 322 -14 q 125 46 193 -14 q 67 203 57 106 l 229 203 q 258 142 228 165 q 343 119 289 119 l 403 119 q 507 147 469 119 q 551 218 544 174 q 533 286 558 260 q 449 321 507 313 l 354 335 q 180 402 232 353 q 143 553 128 451 q 240 719 160 660 q 457 778 319 778 l 510 778 q 699 722 633 778 q 756 571 764 665 l 594 571 q 567 624 594 603 q 489 644 540 644 l 436 644 q 341 621 374 644 q 301 553 308 597 q 316 491 296 513 q 390 461 336 469 l 488 446 q 672 376 617 428 q 711 221 726 324 q 610 48 693 110 q 381 -14 526 -14 l 322 -14 m 408 896 l 585 1090 l 767 1090 l 578 896 l 408 896 z "},"š":{"ha":833,"x_min":57,"x_max":810,"o":"m 322 -14 q 125 46 193 -14 q 67 203 57 106 l 229 203 q 258 142 228 165 q 343 119 289 119 l 403 119 q 507 147 469 119 q 551 218 544 174 q 533 286 558 260 q 449 321 507 313 l 354 335 q 180 402 232 353 q 143 553 128 451 q 240 719 160 660 q 457 778 319 778 l 510 778 q 699 722 633 778 q 756 571 764 665 l 594 571 q 567 624 594 603 q 489 644 540 644 l 436 644 q 341 621 374 644 q 301 553 308 597 q 316 491 296 513 q 390 461 336 469 l 488 446 q 672 376 617 428 q 711 221 726 324 q 610 48 693 110 q 381 -14 526 -14 l 322 -14 m 438 896 l 276 1090 l 433 1090 l 525 988 l 644 1090 l 810 1090 l 588 896 l 438 896 z "},"ş":{"ha":833,"x_min":57,"x_max":764,"o":"m 289 -296 l 289 -210 l 393 -210 q 444 -194 425 -210 q 464 -160 464 -178 q 424 -114 464 -132 q 313 -96 385 -96 l 361 31 l 450 31 l 422 -51 q 503 -69 461 -54 q 573 -110 544 -83 q 601 -175 601 -136 q 552 -260 601 -224 q 422 -296 503 -296 l 289 -296 m 322 -14 q 125 46 193 -14 q 67 203 57 106 l 229 203 q 258 142 228 165 q 343 119 289 119 l 403 119 q 507 147 469 119 q 551 218 544 174 q 533 286 558 260 q 449 321 507 313 l 354 335 q 180 402 232 353 q 143 553 128 451 q 240 719 160 660 q 457 778 319 778 l 510 778 q 699 722 633 778 q 756 571 764 665 l 594 571 q 567 624 594 603 q 489 644 540 644 l 436 644 q 341 621 374 644 q 301 553 308 597 q 316 491 296 513 q 390 461 336 469 l 488 446 q 672 376 617 428 q 711 221 726 324 q 610 48 693 110 q 381 -14 526 -14 l 322 -14 z "},"ŝ":{"ha":833,"x_min":57,"x_max":778,"o":"m 322 -14 q 125 46 193 -14 q 67 203 57 106 l 229 203 q 258 142 228 165 q 343 119 289 119 l 403 119 q 507 147 469 119 q 551 218 544 174 q 533 286 558 260 q 449 321 507 313 l 354 335 q 180 402 232 353 q 143 553 128 451 q 240 719 160 660 q 457 778 319 778 l 510 778 q 699 722 633 778 q 756 571 764 665 l 594 571 q 567 624 594 603 q 489 644 540 644 l 436 644 q 341 621 374 644 q 301 553 308 597 q 316 491 296 513 q 390 461 336 469 l 488 446 q 672 376 617 428 q 711 221 726 324 q 610 48 693 110 q 381 -14 526 -14 l 322 -14 m 244 896 l 467 1090 l 617 1090 l 778 896 l 621 896 l 531 999 l 410 896 l 244 896 z "},"ș":{"ha":833,"x_min":57,"x_max":764,"o":"m 322 -14 q 125 46 193 -14 q 67 203 57 106 l 229 203 q 258 142 228 165 q 343 119 289 119 l 403 119 q 507 147 469 119 q 551 218 544 174 q 533 286 558 260 q 449 321 507 313 l 354 335 q 180 402 232 353 q 143 553 128 451 q 240 719 160 660 q 457 778 319 778 l 510 778 q 699 722 633 778 q 756 571 764 665 l 594 571 q 567 624 594 603 q 489 644 540 644 l 436 644 q 341 621 374 644 q 301 553 308 597 q 316 491 296 513 q 390 461 336 469 l 488 446 q 672 376 617 428 q 711 221 726 324 q 610 48 693 110 q 381 -14 526 -14 l 322 -14 m 132 -333 l 296 -132 l 469 -132 l 286 -333 l 132 -333 z "},"ß":{"ha":833,"x_min":-183,"x_max":810,"o":"m -183 -250 l -161 -112 l -94 -112 q 1 -85 -35 -112 q 46 -4 38 -57 l 164 731 q 226 887 178 819 q 351 991 275 954 q 525 1028 428 1028 q 683 996 618 1028 q 779 906 749 964 q 796 764 810 847 q 745 640 785 693 q 643 558 706 588 q 501 531 581 529 l 504 551 q 645 521 589 553 q 726 430 701 489 q 739 289 751 371 q 675 139 725 204 q 548 37 625 74 q 375 0 471 0 l 292 0 l 314 140 l 386 140 q 513 183 463 140 q 574 299 563 226 q 549 413 586 372 q 436 454 511 454 l 372 454 l 393 583 l 453 583 q 569 625 522 583 q 625 733 615 667 q 601 847 636 806 q 494 888 567 888 q 376 846 424 888 q 315 731 328 804 l 199 -7 q 97 -185 181 -119 q -114 -250 14 -250 l -183 -250 z "},"ſ":{"ha":833,"x_min":-74,"x_max":874,"o":"m -74 -250 l -51 -112 l 96 -112 q 187 -85 153 -112 q 229 -4 221 -57 l 353 786 q 403 907 364 856 q 503 986 442 958 q 640 1014 564 1014 l 874 1014 l 851 871 l 619 871 q 548 849 575 871 q 515 782 521 826 l 390 -7 q 288 -185 372 -119 q 76 -250 204 -250 l -74 -250 z "},"t":{"ha":833,"x_min":101,"x_max":792,"o":"m 439 0 q 281 59 332 0 q 247 222 231 118 l 310 618 l 101 618 l 124 764 l 333 764 l 367 972 l 528 972 l 494 764 l 792 764 l 768 618 l 472 618 l 410 222 q 471 146 397 146 l 679 146 l 657 0 l 439 0 z "},"ŧ":{"ha":833,"x_min":99,"x_max":792,"o":"m 99 321 l 119 449 l 679 449 l 658 321 l 99 321 m 439 0 q 281 59 332 0 q 247 222 231 118 l 310 618 l 101 618 l 124 764 l 333 764 l 367 972 l 528 972 l 494 764 l 792 764 l 768 618 l 472 618 l 410 222 q 471 146 397 146 l 679 146 l 657 0 l 439 0 z "},"ť":{"ha":833,"x_min":101,"x_max":899,"o":"m 592 861 l 746 1078 l 899 1078 l 731 861 l 592 861 m 439 0 q 281 59 332 0 q 247 222 231 118 l 310 618 l 101 618 l 124 764 l 333 764 l 367 972 l 528 972 l 494 764 l 792 764 l 768 618 l 472 618 l 410 222 q 471 146 397 146 l 679 146 l 657 0 l 439 0 z "},"ţ":{"ha":833,"x_min":101,"x_max":792,"o":"m 358 -296 l 358 -210 l 463 -210 q 514 -194 494 -210 q 533 -160 533 -178 q 494 -114 533 -132 q 382 -96 454 -96 l 431 31 l 519 31 l 492 -51 q 572 -69 531 -54 q 642 -110 614 -83 q 671 -175 671 -136 q 622 -260 671 -224 q 492 -296 572 -296 l 358 -296 m 439 0 q 281 59 332 0 q 247 222 231 118 l 310 618 l 101 618 l 124 764 l 333 764 l 367 972 l 528 972 l 494 764 l 792 764 l 768 618 l 472 618 l 410 222 q 471 146 397 146 l 679 146 l 657 0 l 439 0 z "},"ț":{"ha":833,"x_min":101,"x_max":792,"o":"m 439 0 q 281 59 332 0 q 247 222 231 118 l 310 618 l 101 618 l 124 764 l 333 764 l 367 972 l 528 972 l 494 764 l 792 764 l 768 618 l 472 618 l 410 222 q 471 146 397 146 l 679 146 l 657 0 l 439 0 m 140 -333 l 304 -132 l 478 -132 l 294 -333 l 140 -333 z "},"u":{"ha":833,"x_min":71,"x_max":785,"o":"m 351 -14 q 140 67 210 -14 q 93 286 71 147 l 168 764 l 331 764 l 256 288 q 275 169 243 211 q 375 128 307 128 q 489 169 443 128 q 547 288 535 211 l 622 764 l 785 764 l 708 286 q 646 126 694 194 q 522 22 597 58 q 351 -14 446 -14 z "},"ú":{"ha":833,"x_min":71,"x_max":785,"o":"m 351 -14 q 140 67 210 -14 q 93 286 71 147 l 168 764 l 331 764 l 256 288 q 275 169 243 211 q 375 128 307 128 q 489 169 443 128 q 547 288 535 211 l 622 764 l 785 764 l 708 286 q 646 126 694 194 q 522 22 597 58 q 351 -14 446 -14 m 394 896 l 571 1090 l 753 1090 l 564 896 l 394 896 z "},"ŭ":{"ha":833,"x_min":71,"x_max":785,"o":"m 351 -14 q 140 67 210 -14 q 93 286 71 147 l 168 764 l 331 764 l 256 288 q 275 169 243 211 q 375 128 307 128 q 489 169 443 128 q 547 288 535 211 l 622 764 l 785 764 l 708 286 q 646 126 694 194 q 522 22 597 58 q 351 -14 446 -14 m 496 886 q 333 942 390 886 q 290 1090 276 999 l 414 1090 q 433 1014 407 1043 q 508 985 458 985 q 595 1014 560 985 q 638 1090 631 1043 l 765 1090 q 677 942 751 999 q 496 886 603 886 z "},"û":{"ha":833,"x_min":71,"x_max":785,"o":"m 351 -14 q 140 67 210 -14 q 93 286 71 147 l 168 764 l 331 764 l 256 288 q 275 169 243 211 q 375 128 307 128 q 489 169 443 128 q 547 288 535 211 l 622 764 l 785 764 l 708 286 q 646 126 694 194 q 522 22 597 58 q 351 -14 446 -14 m 231 896 l 453 1090 l 603 1090 l 764 896 l 607 896 l 517 999 l 396 896 l 231 896 z "},"ü":{"ha":833,"x_min":71,"x_max":785,"o":"m 351 -14 q 140 67 210 -14 q 93 286 71 147 l 168 764 l 331 764 l 256 288 q 275 169 243 211 q 375 128 307 128 q 489 169 443 128 q 547 288 535 211 l 622 764 l 785 764 l 708 286 q 646 126 694 194 q 522 22 597 58 q 351 -14 446 -14 m 658 894 q 590 920 613 894 q 575 990 568 946 q 613 1063 582 1036 q 689 1089 644 1089 q 757 1063 735 1089 q 772 990 779 1036 q 735 920 767 946 q 658 894 704 894 m 336 894 q 269 920 292 894 q 253 990 247 946 q 292 1063 261 1036 q 367 1089 322 1089 q 435 1063 413 1089 q 450 990 458 1036 q 413 920 444 946 q 336 894 382 894 z "},"ụ":{"ha":833,"x_min":71,"x_max":785,"o":"m 351 -14 q 140 67 210 -14 q 93 286 71 147 l 168 764 l 331 764 l 256 288 q 275 169 243 211 q 375 128 307 128 q 489 169 443 128 q 547 288 535 211 l 622 764 l 785 764 l 708 286 q 646 126 694 194 q 522 22 597 58 q 351 -14 446 -14 m 307 -308 q 231 -282 256 -308 q 211 -211 206 -256 q 253 -140 219 -167 q 338 -112 288 -112 q 414 -140 389 -112 q 432 -211 439 -167 q 391 -282 425 -256 q 307 -308 357 -308 z "},"ù":{"ha":833,"x_min":71,"x_max":785,"o":"m 351 -14 q 140 67 210 -14 q 93 286 71 147 l 168 764 l 331 764 l 256 288 q 275 169 243 211 q 375 128 307 128 q 489 169 443 128 q 547 288 535 211 l 622 764 l 785 764 l 708 286 q 646 126 694 194 q 522 22 597 58 q 351 -14 446 -14 m 438 896 l 307 1090 l 478 1090 l 596 896 l 438 896 z "},"ủ":{"ha":833,"x_min":71,"x_max":785,"o":"m 351 -14 q 140 67 210 -14 q 93 286 71 147 l 168 764 l 331 764 l 256 288 q 275 169 243 211 q 375 128 307 128 q 489 169 443 128 q 547 288 535 211 l 622 764 l 785 764 l 708 286 q 646 126 694 194 q 522 22 597 58 q 351 -14 446 -14 m 421 896 l 503 981 q 522 1003 515 993 q 531 1022 529 1014 q 496 1049 535 1049 l 390 1049 l 407 1151 l 553 1151 q 642 1122 611 1151 q 665 1042 674 1092 q 652 999 663 1019 q 626 963 642 978 l 563 896 l 421 896 z "},"ư":{"ha":833,"x_min":71,"x_max":939,"o":"m 93 283 l 168 764 l 331 764 l 254 282 q 272 168 243 208 q 363 128 300 128 q 468 168 426 128 q 522 282 510 208 l 597 764 l 735 764 q 773 776 758 764 q 792 813 788 789 l 808 917 l 939 917 l 922 808 q 865 695 911 738 q 742 653 818 653 l 683 283 q 622 124 669 192 q 503 22 575 57 q 340 -14 431 -14 q 138 65 204 -14 q 93 283 71 144 z "},"ứ":{"ha":833,"x_min":71,"x_max":939,"o":"m 93 283 l 168 764 l 331 764 l 254 282 q 272 168 243 208 q 363 128 300 128 q 468 168 426 128 q 522 282 510 208 l 597 764 l 735 764 q 773 776 758 764 q 792 813 788 789 l 808 917 l 939 917 l 922 808 q 865 695 911 738 q 742 653 818 653 l 683 283 q 622 124 669 192 q 503 22 575 57 q 340 -14 431 -14 q 138 65 204 -14 q 93 283 71 144 m 382 896 l 558 1090 l 740 1090 l 551 896 l 382 896 z "},"ự":{"ha":833,"x_min":71,"x_max":939,"o":"m 93 283 l 168 764 l 331 764 l 254 282 q 272 168 243 208 q 363 128 300 128 q 468 168 426 128 q 522 282 510 208 l 597 764 l 735 764 q 773 776 758 764 q 792 813 788 789 l 808 917 l 939 917 l 922 808 q 865 695 911 738 q 742 653 818 653 l 683 283 q 622 124 669 192 q 503 22 575 57 q 340 -14 431 -14 q 138 65 204 -14 q 93 283 71 144 m 294 -308 q 218 -282 243 -308 q 199 -211 193 -256 q 241 -140 207 -167 q 325 -112 275 -112 q 401 -140 376 -112 q 419 -211 426 -167 q 378 -282 413 -256 q 294 -308 344 -308 z "},"ừ":{"ha":833,"x_min":71,"x_max":939,"o":"m 93 283 l 168 764 l 331 764 l 254 282 q 272 168 243 208 q 363 128 300 128 q 468 168 426 128 q 522 282 510 208 l 597 764 l 735 764 q 773 776 758 764 q 792 813 788 789 l 808 917 l 939 917 l 922 808 q 865 695 911 738 q 742 653 818 653 l 683 283 q 622 124 669 192 q 503 22 575 57 q 340 -14 431 -14 q 138 65 204 -14 q 93 283 71 144 m 425 896 l 294 1090 l 465 1090 l 583 896 l 425 896 z "},"ử":{"ha":833,"x_min":71,"x_max":939,"o":"m 93 283 l 168 764 l 331 764 l 254 282 q 272 168 243 208 q 363 128 300 128 q 468 168 426 128 q 522 282 510 208 l 597 764 l 735 764 q 773 776 758 764 q 792 813 788 789 l 808 917 l 939 917 l 922 808 q 865 695 911 738 q 742 653 818 653 l 683 283 q 622 124 669 192 q 503 22 575 57 q 340 -14 431 -14 q 138 65 204 -14 q 93 283 71 144 m 421 896 l 503 981 q 522 1003 515 993 q 531 1022 529 1014 q 496 1049 535 1049 l 390 1049 l 407 1151 l 553 1151 q 642 1122 611 1151 q 665 1042 674 1092 q 652 999 663 1019 q 626 963 642 978 l 563 896 l 421 896 z "},"ữ":{"ha":833,"x_min":71,"x_max":939,"o":"m 93 283 l 168 764 l 331 764 l 254 282 q 272 168 243 208 q 363 128 300 128 q 468 168 426 128 q 522 282 510 208 l 597 764 l 735 764 q 773 776 758 764 q 792 813 788 789 l 808 917 l 939 917 l 922 808 q 865 695 911 738 q 742 653 818 653 l 683 283 q 622 124 669 192 q 503 22 575 57 q 340 -14 431 -14 q 138 65 204 -14 q 93 283 71 144 m 582 893 q 515 907 539 893 q 475 939 490 921 q 445 971 460 957 q 408 985 431 985 q 376 972 390 985 q 360 938 363 960 l 354 900 l 251 900 l 258 946 q 314 1053 269 1013 q 419 1093 358 1093 q 487 1079 463 1093 q 526 1047 511 1065 q 555 1015 540 1029 q 592 1001 569 1001 q 624 1013 611 1001 q 640 1046 638 1024 l 647 1086 l 750 1086 l 743 1040 q 688 933 732 974 q 582 893 644 893 z "},"ű":{"ha":833,"x_min":71,"x_max":874,"o":"m 351 -14 q 140 67 210 -14 q 93 286 71 147 l 168 764 l 331 764 l 256 288 q 275 169 243 211 q 375 128 307 128 q 489 169 443 128 q 547 288 535 211 l 622 764 l 785 764 l 708 286 q 646 126 694 194 q 522 22 597 58 q 351 -14 446 -14 m 531 896 l 711 1090 l 874 1090 l 683 896 l 531 896 m 256 896 l 436 1090 l 599 1090 l 408 896 l 256 896 z "},"ū":{"ha":833,"x_min":71,"x_max":785,"o":"m 351 -14 q 140 67 210 -14 q 93 286 71 147 l 168 764 l 331 764 l 256 288 q 275 169 243 211 q 375 128 307 128 q 489 169 443 128 q 547 288 535 211 l 622 764 l 785 764 l 708 286 q 646 126 694 194 q 522 22 597 58 q 351 -14 446 -14 m 267 921 l 286 1047 l 756 1047 l 736 921 l 267 921 z "},"ų":{"ha":833,"x_min":71,"x_max":785,"o":"m 400 -296 q 279 -256 321 -296 q 249 -156 238 -217 q 290 -76 254 -117 q 403 11 326 -36 q 392 0 401 6 q 372 -10 383 -6 q 353 -14 361 -14 q 140 67 210 -14 q 93 283 71 147 l 168 764 l 331 764 l 254 283 q 274 168 243 208 q 376 128 304 128 q 492 168 449 128 q 546 283 535 208 l 622 764 l 785 764 l 708 283 q 653 138 694 201 q 547 35 613 74 l 488 -10 q 422 -71 444 -43 q 394 -124 400 -99 q 408 -167 392 -149 q 456 -185 424 -185 l 544 -185 l 528 -296 l 400 -296 z "},"ů":{"ha":833,"x_min":71,"x_max":785,"o":"m 351 -14 q 140 67 210 -14 q 93 286 71 147 l 168 764 l 331 764 l 256 288 q 275 169 243 211 q 375 128 307 128 q 489 169 443 128 q 547 288 535 211 l 622 764 l 785 764 l 708 286 q 646 126 694 194 q 522 22 597 58 q 351 -14 446 -14 m 489 839 q 367 885 408 839 q 336 1006 325 931 q 403 1126 347 1079 q 540 1172 460 1172 q 663 1126 621 1172 q 693 1006 706 1079 q 626 885 682 931 q 489 839 569 839 m 501 924 q 565 946 539 924 q 597 1006 592 968 q 585 1066 604 1043 q 528 1089 565 1089 q 464 1066 490 1089 q 431 1006 438 1043 q 444 946 425 968 q 501 924 464 924 z "},"ũ":{"ha":833,"x_min":71,"x_max":785,"o":"m 351 -14 q 140 67 210 -14 q 93 286 71 147 l 168 764 l 331 764 l 256 288 q 275 169 243 211 q 375 128 307 128 q 489 169 443 128 q 547 288 535 211 l 622 764 l 785 764 l 708 286 q 646 126 694 194 q 522 22 597 58 q 351 -14 446 -14 m 594 893 q 527 907 551 893 q 488 939 503 921 q 458 971 472 957 q 421 985 443 985 q 389 972 403 985 q 372 938 375 960 l 367 900 l 264 900 l 271 946 q 326 1053 282 1013 q 432 1093 371 1093 q 499 1079 475 1093 q 538 1047 524 1065 q 567 1015 553 1029 q 604 1001 582 1001 q 637 1013 624 1001 q 653 1046 650 1024 l 660 1086 l 763 1086 l 756 1040 q 701 933 744 974 q 594 893 657 893 z "},"v":{"ha":833,"x_min":122,"x_max":831,"o":"m 251 0 l 122 764 l 285 764 l 357 288 q 369 201 364 244 q 376 132 374 157 q 404 201 386 157 q 442 288 422 244 l 661 764 l 831 764 l 461 0 l 251 0 z "},"w":{"ha":833,"x_min":89,"x_max":860,"o":"m 89 0 l 93 764 l 225 764 l 215 278 q 213 194 214 240 q 210 119 211 149 q 231 194 218 149 q 256 278 244 240 l 408 764 l 542 764 l 540 278 q 540 194 540 240 q 538 118 539 149 q 558 194 544 149 q 582 278 571 240 l 729 764 l 860 764 l 618 0 l 449 0 l 454 485 q 454 569 454 524 q 456 643 454 615 q 433 569 447 615 q 408 485 419 524 l 258 0 l 89 0 z "},"ẃ":{"ha":833,"x_min":89,"x_max":860,"o":"m 89 0 l 93 764 l 225 764 l 215 278 q 213 194 214 240 q 210 119 211 149 q 231 194 218 149 q 256 278 244 240 l 408 764 l 542 764 l 540 278 q 540 194 540 240 q 538 118 539 149 q 558 194 544 149 q 582 278 571 240 l 729 764 l 860 764 l 618 0 l 449 0 l 454 485 q 454 569 454 524 q 456 643 454 615 q 433 569 447 615 q 408 485 419 524 l 258 0 l 89 0 m 394 896 l 571 1090 l 753 1090 l 564 896 l 394 896 z "},"ŵ":{"ha":833,"x_min":89,"x_max":860,"o":"m 89 0 l 93 764 l 225 764 l 215 278 q 213 194 214 240 q 210 119 211 149 q 231 194 218 149 q 256 278 244 240 l 408 764 l 542 764 l 540 278 q 540 194 540 240 q 538 118 539 149 q 558 194 544 149 q 582 278 571 240 l 729 764 l 860 764 l 618 0 l 449 0 l 454 485 q 454 569 454 524 q 456 643 454 615 q 433 569 447 615 q 408 485 419 524 l 258 0 l 89 0 m 231 896 l 453 1090 l 603 1090 l 764 896 l 607 896 l 517 999 l 396 896 l 231 896 z "},"ẅ":{"ha":833,"x_min":89,"x_max":860,"o":"m 89 0 l 93 764 l 225 764 l 215 278 q 213 194 214 240 q 210 119 211 149 q 231 194 218 149 q 256 278 244 240 l 408 764 l 542 764 l 540 278 q 540 194 540 240 q 538 118 539 149 q 558 194 544 149 q 582 278 571 240 l 729 764 l 860 764 l 618 0 l 449 0 l 454 485 q 454 569 454 524 q 456 643 454 615 q 433 569 447 615 q 408 485 419 524 l 258 0 l 89 0 m 658 894 q 590 920 613 894 q 575 990 568 946 q 613 1063 582 1036 q 689 1089 644 1089 q 757 1063 735 1089 q 772 990 779 1036 q 735 920 767 946 q 658 894 704 894 m 336 894 q 269 920 292 894 q 253 990 247 946 q 292 1063 261 1036 q 367 1089 322 1089 q 435 1063 413 1089 q 450 990 458 1036 q 413 920 444 946 q 336 894 382 894 z "},"ẁ":{"ha":833,"x_min":89,"x_max":860,"o":"m 89 0 l 93 764 l 225 764 l 215 278 q 213 194 214 240 q 210 119 211 149 q 231 194 218 149 q 256 278 244 240 l 408 764 l 542 764 l 540 278 q 540 194 540 240 q 538 118 539 149 q 558 194 544 149 q 582 278 571 240 l 729 764 l 860 764 l 618 0 l 449 0 l 454 485 q 454 569 454 524 q 456 643 454 615 q 433 569 447 615 q 408 485 419 524 l 258 0 l 89 0 m 438 896 l 307 1090 l 478 1090 l 596 896 l 438 896 z "},"x":{"ha":833,"x_min":-3,"x_max":818,"o":"m -3 0 l 324 399 l 136 764 l 317 764 l 408 565 q 423 528 415 549 q 433 496 431 508 q 452 528 440 508 q 476 565 464 549 l 631 764 l 818 764 l 514 389 l 714 0 l 533 0 l 431 219 q 415 257 424 236 q 404 292 407 278 q 384 257 396 278 q 358 219 372 236 l 185 0 l -3 0 z "},"y":{"ha":833,"x_min":76,"x_max":779,"o":"m 111 -250 l 132 -112 l 364 -112 q 456 -85 422 -112 q 497 -4 490 -57 l 508 67 l 533 215 l 492 215 l 539 253 q 461 108 525 161 q 303 56 397 56 q 133 129 190 56 q 97 329 76 203 l 167 764 l 328 764 l 261 346 q 283 234 250 274 q 381 194 315 194 q 494 236 449 194 q 551 353 540 278 l 617 764 l 779 764 l 657 -7 q 556 -185 640 -119 q 344 -250 472 -250 l 111 -250 z "},"ý":{"ha":833,"x_min":76,"x_max":779,"o":"m 111 -250 l 132 -112 l 364 -112 q 456 -85 422 -112 q 497 -4 490 -57 l 508 67 l 533 215 l 492 215 l 539 253 q 461 108 525 161 q 303 56 397 56 q 133 129 190 56 q 97 329 76 203 l 167 764 l 328 764 l 261 346 q 283 234 250 274 q 381 194 315 194 q 494 236 449 194 q 551 353 540 278 l 617 764 l 779 764 l 657 -7 q 556 -185 640 -119 q 344 -250 472 -250 l 111 -250 m 394 896 l 571 1090 l 753 1090 l 564 896 l 394 896 z "},"ŷ":{"ha":833,"x_min":76,"x_max":779,"o":"m 111 -250 l 132 -112 l 364 -112 q 456 -85 422 -112 q 497 -4 490 -57 l 508 67 l 533 215 l 492 215 l 539 253 q 461 108 525 161 q 303 56 397 56 q 133 129 190 56 q 97 329 76 203 l 167 764 l 328 764 l 261 346 q 283 234 250 274 q 381 194 315 194 q 494 236 449 194 q 551 353 540 278 l 617 764 l 779 764 l 657 -7 q 556 -185 640 -119 q 344 -250 472 -250 l 111 -250 m 231 896 l 453 1090 l 603 1090 l 764 896 l 607 896 l 517 999 l 396 896 l 231 896 z "},"ÿ":{"ha":833,"x_min":76,"x_max":779,"o":"m 111 -250 l 132 -112 l 364 -112 q 456 -85 422 -112 q 497 -4 490 -57 l 508 67 l 533 215 l 492 215 l 539 253 q 461 108 525 161 q 303 56 397 56 q 133 129 190 56 q 97 329 76 203 l 167 764 l 328 764 l 261 346 q 283 234 250 274 q 381 194 315 194 q 494 236 449 194 q 551 353 540 278 l 617 764 l 779 764 l 657 -7 q 556 -185 640 -119 q 344 -250 472 -250 l 111 -250 m 658 894 q 590 920 613 894 q 575 990 568 946 q 613 1063 582 1036 q 689 1089 644 1089 q 757 1063 735 1089 q 772 990 779 1036 q 735 920 767 946 q 658 894 704 894 m 336 894 q 269 920 292 894 q 253 990 247 946 q 292 1063 261 1036 q 367 1089 322 1089 q 435 1063 413 1089 q 450 990 458 1036 q 413 920 444 946 q 336 894 382 894 z "},"ỵ":{"ha":833,"x_min":76,"x_max":779,"o":"m 111 -250 l 132 -112 l 364 -112 q 456 -85 422 -112 q 497 -4 490 -57 l 508 67 l 533 215 l 492 215 l 539 253 q 461 108 525 161 q 303 56 397 56 q 133 129 190 56 q 97 329 76 203 l 167 764 l 328 764 l 261 346 q 283 234 250 274 q 381 194 315 194 q 494 236 449 194 q 551 353 540 278 l 617 764 l 779 764 l 657 -7 q 556 -185 640 -119 q 344 -250 472 -250 l 111 -250 m 647 -364 q 571 -337 596 -364 q 551 -267 546 -311 q 594 -195 560 -222 q 678 -168 628 -168 q 754 -195 729 -168 q 772 -267 779 -222 q 731 -337 765 -311 q 647 -364 697 -364 z "},"ỳ":{"ha":833,"x_min":76,"x_max":779,"o":"m 111 -250 l 132 -112 l 364 -112 q 456 -85 422 -112 q 497 -4 490 -57 l 508 67 l 533 215 l 492 215 l 539 253 q 461 108 525 161 q 303 56 397 56 q 133 129 190 56 q 97 329 76 203 l 167 764 l 328 764 l 261 346 q 283 234 250 274 q 381 194 315 194 q 494 236 449 194 q 551 353 540 278 l 617 764 l 779 764 l 657 -7 q 556 -185 640 -119 q 344 -250 472 -250 l 111 -250 m 438 896 l 307 1090 l 478 1090 l 596 896 l 438 896 z "},"ỷ":{"ha":833,"x_min":76,"x_max":779,"o":"m 111 -250 l 132 -112 l 364 -112 q 456 -85 422 -112 q 497 -4 490 -57 l 508 67 l 533 215 l 492 215 l 539 253 q 461 108 525 161 q 303 56 397 56 q 133 129 190 56 q 97 329 76 203 l 167 764 l 328 764 l 261 346 q 283 234 250 274 q 381 194 315 194 q 494 236 449 194 q 551 353 540 278 l 617 764 l 779 764 l 657 -7 q 556 -185 640 -119 q 344 -250 472 -250 l 111 -250 m 431 896 l 513 981 q 532 1003 525 993 q 540 1022 539 1014 q 506 1049 544 1049 l 400 1049 l 417 1151 l 563 1151 q 652 1122 621 1151 q 675 1042 683 1092 q 662 999 672 1019 q 636 963 651 978 l 572 896 l 431 896 z "},"ȳ":{"ha":833,"x_min":76,"x_max":779,"o":"m 111 -250 l 132 -112 l 364 -112 q 456 -85 422 -112 q 497 -4 490 -57 l 508 67 l 533 215 l 492 215 l 539 253 q 461 108 525 161 q 303 56 397 56 q 133 129 190 56 q 97 329 76 203 l 167 764 l 328 764 l 261 346 q 283 234 250 274 q 381 194 315 194 q 494 236 449 194 q 551 353 540 278 l 617 764 l 779 764 l 657 -7 q 556 -185 640 -119 q 344 -250 472 -250 l 111 -250 m 267 921 l 286 1047 l 756 1047 l 736 921 l 267 921 z "},"ỹ":{"ha":833,"x_min":76,"x_max":779,"o":"m 111 -250 l 132 -112 l 364 -112 q 456 -85 422 -112 q 497 -4 490 -57 l 508 67 l 533 215 l 492 215 l 539 253 q 461 108 525 161 q 303 56 397 56 q 133 129 190 56 q 97 329 76 203 l 167 764 l 328 764 l 261 346 q 283 234 250 274 q 381 194 315 194 q 494 236 449 194 q 551 353 540 278 l 617 764 l 779 764 l 657 -7 q 556 -185 640 -119 q 344 -250 472 -250 l 111 -250 m 594 893 q 527 907 551 893 q 488 939 503 921 q 458 971 472 957 q 421 985 443 985 q 389 972 403 985 q 372 938 375 960 l 367 900 l 264 900 l 271 946 q 326 1053 282 1013 q 432 1093 371 1093 q 499 1079 475 1093 q 538 1047 524 1065 q 567 1015 553 1029 q 604 1001 582 1001 q 637 1013 624 1001 q 653 1046 650 1024 l 660 1086 l 763 1086 l 756 1040 q 701 933 744 974 q 594 893 657 893 z "},"z":{"ha":833,"x_min":51,"x_max":765,"o":"m 51 0 l 75 150 l 550 621 l 163 621 l 185 764 l 765 764 l 742 614 l 263 143 l 682 143 l 660 0 l 51 0 z "},"ź":{"ha":833,"x_min":51,"x_max":765,"o":"m 51 0 l 75 150 l 550 621 l 163 621 l 185 764 l 765 764 l 742 614 l 263 143 l 682 143 l 660 0 l 51 0 m 394 896 l 571 1090 l 753 1090 l 564 896 l 394 896 z "},"ž":{"ha":833,"x_min":51,"x_max":796,"o":"m 51 0 l 75 150 l 550 621 l 163 621 l 185 764 l 765 764 l 742 614 l 263 143 l 682 143 l 660 0 l 51 0 m 424 896 l 263 1090 l 419 1090 l 511 988 l 631 1090 l 796 1090 l 574 896 l 424 896 z "},"ż":{"ha":833,"x_min":51,"x_max":765,"o":"m 51 0 l 75 150 l 550 621 l 163 621 l 185 764 l 765 764 l 742 614 l 263 143 l 682 143 l 660 0 l 51 0 m 497 894 q 422 920 447 894 q 403 990 396 946 q 444 1063 410 1036 q 528 1089 478 1089 q 605 1063 579 1089 q 622 990 631 1036 q 583 920 617 946 q 497 894 549 894 z "},"ª":{"ha":833,"x_min":286,"x_max":681,"o":"m 544 632 l 557 708 l 553 708 l 583 903 q 569 944 588 929 q 515 960 550 960 q 460 947 483 960 q 429 914 436 935 l 342 914 q 408 997 358 967 q 525 1028 457 1028 q 640 994 600 1028 q 671 903 681 961 l 628 632 l 544 632 m 413 625 q 318 658 350 625 q 294 746 286 690 q 349 833 303 800 q 464 865 394 865 l 593 865 l 583 803 l 456 803 q 406 788 425 803 q 382 747 386 774 q 396 705 378 721 q 446 689 414 689 q 525 711 493 689 q 563 771 557 733 l 578 771 l 568 708 l 553 708 q 494 647 532 669 q 413 625 457 625 z "},"º":{"ha":833,"x_min":296,"x_max":676,"o":"m 453 621 q 335 665 375 621 q 306 776 296 708 l 321 869 q 386 981 333 939 q 517 1024 439 1024 q 635 981 594 1024 q 665 869 676 939 l 650 776 q 585 665 640 708 q 453 621 531 621 m 465 694 q 530 717 503 694 q 563 776 557 740 l 578 869 q 563 928 583 906 q 506 950 543 950 q 442 928 468 950 q 410 869 415 906 l 394 776 q 408 717 389 740 q 465 694 428 694 z "},"А":{"ha":833,"x_min":-7,"x_max":718,"o":"m -7 0 l 411 1014 l 622 1014 l 718 0 l 558 0 l 540 251 l 261 251 l 163 0 l -7 0 m 313 385 l 531 385 l 510 667 q 502 796 506 739 q 497 875 499 853 q 471 797 490 853 q 424 668 451 740 l 313 385 z "},"Б":{"ha":833,"x_min":53,"x_max":811,"o":"m 53 0 l 214 1014 l 811 1014 l 788 864 l 349 864 l 307 604 l 461 604 q 629 567 561 604 q 726 462 697 529 q 742 303 756 394 q 676 143 728 211 q 545 38 625 75 q 365 0 465 0 l 53 0 m 233 140 l 388 140 q 515 184 464 140 q 576 301 565 228 q 553 421 590 378 q 439 464 515 464 l 285 464 l 233 140 z "},"В":{"ha":833,"x_min":51,"x_max":810,"o":"m 51 0 l 213 1014 l 517 1014 q 736 944 663 1014 q 790 753 810 875 q 741 634 779 685 q 646 556 703 583 q 519 528 589 528 l 521 538 q 649 510 596 539 q 727 424 703 481 q 739 288 751 367 q 676 135 725 200 q 549 35 626 69 q 374 0 472 0 l 51 0 m 231 138 l 383 138 q 515 179 463 138 q 579 294 567 221 q 552 415 590 369 q 435 460 514 460 l 282 460 l 231 138 m 303 593 l 447 593 q 567 631 519 593 q 625 735 614 669 q 601 839 636 801 q 493 876 565 876 l 347 876 l 303 593 z "},"Г":{"ha":833,"x_min":82,"x_max":846,"o":"m 82 0 l 243 1014 l 846 1014 l 822 864 l 381 864 l 244 0 l 82 0 z "},"Ѓ":{"ha":833,"x_min":82,"x_max":846,"o":"m 82 0 l 243 1014 l 846 1014 l 822 864 l 381 864 l 244 0 l 82 0 m 438 1125 l 614 1319 l 796 1319 l 607 1125 l 438 1125 z "},"Ґ":{"ha":833,"x_min":82,"x_max":867,"o":"m 82 0 l 243 1014 l 692 1014 l 713 1146 l 867 1146 l 822 864 l 381 864 l 244 0 l 82 0 z "},"Д":{"ha":833,"x_min":-58,"x_max":810,"o":"m -58 -194 l -7 139 l 47 139 q 92 210 68 165 q 138 315 117 256 q 171 440 160 374 l 271 1014 l 810 1014 l 669 139 l 761 139 l 708 -194 l 561 -194 l 592 0 l 119 0 l 89 -194 l -58 -194 m 210 139 l 514 139 l 631 874 l 400 874 l 325 440 q 293 313 314 372 q 250 208 272 253 q 210 139 228 163 z "},"Е":{"ha":833,"x_min":65,"x_max":828,"o":"m 65 0 l 226 1014 l 828 1014 l 806 872 l 363 872 l 319 596 l 713 596 l 690 454 l 297 454 l 247 142 l 690 142 l 667 0 l 65 0 z "},"Ё":{"ha":833,"x_min":65,"x_max":843,"o":"m 65 0 l 226 1014 l 828 1014 l 806 872 l 363 872 l 319 596 l 713 596 l 690 454 l 297 454 l 247 142 l 690 142 l 667 0 l 65 0 m 722 1125 q 654 1151 676 1125 q 639 1222 632 1178 q 677 1294 646 1268 q 754 1321 708 1321 q 821 1294 799 1321 q 836 1222 843 1268 q 799 1151 831 1178 q 722 1125 768 1125 m 400 1125 q 333 1151 356 1125 q 317 1222 311 1178 q 356 1294 325 1268 q 432 1321 386 1321 q 500 1294 478 1321 q 514 1222 522 1268 q 477 1151 508 1178 q 400 1125 446 1125 z "},"Ж":{"ha":833,"x_min":-46,"x_max":904,"o":"m -46 0 l 197 522 l 126 1014 l 269 1014 l 325 558 l 382 558 l 454 1014 l 576 1014 l 503 558 l 554 558 l 756 1014 l 904 1014 l 678 515 l 757 0 l 615 0 l 550 475 l 490 475 l 418 0 l 297 0 l 368 475 l 315 475 l 103 0 l -46 0 z "},"З":{"ha":833,"x_min":33,"x_max":818,"o":"m 344 -14 q 115 61 196 -14 q 46 263 33 136 l 208 263 q 249 164 206 200 q 368 128 292 128 q 507 172 451 128 q 575 286 563 217 q 544 400 586 357 q 418 443 501 443 l 283 443 l 307 589 l 440 589 q 534 610 493 589 q 601 667 575 632 q 635 746 628 703 q 606 849 646 813 q 488 886 567 886 q 363 847 415 886 q 297 743 311 808 l 135 743 q 205 893 153 829 q 336 992 257 957 q 514 1028 415 1028 q 740 962 663 1028 q 799 776 818 896 q 748 650 788 706 q 646 563 708 594 q 504 533 583 532 l 507 554 q 647 523 590 556 q 729 431 704 490 q 742 292 754 371 q 674 133 728 201 q 535 25 619 64 q 344 -14 451 -14 z "},"И":{"ha":833,"x_min":46,"x_max":826,"o":"m 46 0 l 207 1014 l 356 1014 l 274 500 q 253 392 265 451 q 229 278 242 333 q 207 183 217 222 l 625 1014 l 826 1014 l 665 0 l 517 0 l 597 501 q 618 613 606 551 q 643 732 631 674 q 667 831 656 790 l 247 0 l 46 0 z "},"Й":{"ha":833,"x_min":46,"x_max":826,"o":"m 46 0 l 207 1014 l 356 1014 l 274 500 q 253 392 265 451 q 229 278 242 333 q 207 183 217 222 l 625 1014 l 826 1014 l 665 0 l 517 0 l 597 501 q 618 613 606 551 q 643 732 631 674 q 667 831 656 790 l 247 0 l 46 0 m 532 1115 q 369 1172 426 1115 q 326 1319 313 1228 l 450 1319 q 469 1243 443 1272 q 544 1214 494 1214 q 631 1243 596 1214 q 674 1319 667 1272 l 801 1319 q 713 1172 788 1228 q 532 1115 639 1115 z "},"К":{"ha":833,"x_min":50,"x_max":875,"o":"m 50 0 l 211 1014 l 374 1014 l 307 597 l 431 597 l 699 1014 l 875 1014 l 561 519 l 726 0 l 551 0 l 414 451 l 283 451 l 213 0 l 50 0 z "},"Ќ":{"ha":833,"x_min":50,"x_max":875,"o":"m 431 1125 l 607 1319 l 789 1319 l 600 1125 l 431 1125 m 50 0 l 211 1014 l 374 1014 l 307 597 l 431 597 l 699 1014 l 875 1014 l 561 519 l 726 0 l 551 0 l 414 451 l 283 451 l 213 0 l 50 0 z "},"Л":{"ha":833,"x_min":-37,"x_max":819,"o":"m -37 -7 l -14 142 l 19 142 q 102 189 69 142 q 151 338 135 236 l 268 1014 l 819 1014 l 658 0 l 497 0 l 633 864 l 403 864 l 313 338 q 253 148 294 225 q 149 32 211 71 q 4 -7 86 -7 l -37 -7 z "},"М":{"ha":833,"x_min":24,"x_max":849,"o":"m 24 0 l 185 1014 l 376 1014 l 425 690 q 436 602 432 643 q 442 542 440 561 q 465 602 449 561 q 501 690 481 643 l 650 1014 l 849 1014 l 688 0 l 535 0 l 588 328 q 615 479 599 399 q 651 641 632 560 q 688 796 669 722 q 721 924 707 869 l 503 439 l 351 439 l 281 924 q 275 799 279 871 q 265 647 271 728 q 249 483 258 565 q 228 328 240 401 l 176 0 l 24 0 z "},"Н":{"ha":833,"x_min":51,"x_max":821,"o":"m 51 0 l 213 1014 l 375 1014 l 308 600 l 593 600 l 658 1014 l 821 1014 l 660 0 l 497 0 l 569 450 l 285 450 l 214 0 l 51 0 z "},"О":{"ha":833,"x_min":75,"x_max":799,"o":"m 353 -14 q 193 22 257 -14 q 102 126 129 58 q 89 283 75 193 l 160 731 q 223 889 175 822 q 347 992 271 956 q 518 1028 422 1028 q 679 992 615 1028 q 771 889 743 956 q 783 731 799 822 l 713 283 q 649 126 699 193 q 525 22 600 58 q 353 -14 450 -14 m 376 129 q 494 169 449 129 q 550 283 539 210 l 621 731 q 601 845 633 806 q 496 885 569 885 q 378 845 422 885 q 321 731 333 806 l 251 283 q 271 169 239 210 q 376 129 303 129 z "},"П":{"ha":833,"x_min":53,"x_max":819,"o":"m 53 0 l 214 1014 l 819 1014 l 658 0 l 497 0 l 633 864 l 351 864 l 214 0 l 53 0 z "},"Р":{"ha":833,"x_min":50,"x_max":842,"o":"m 50 0 l 211 1014 l 547 1014 q 715 976 647 1014 q 812 868 782 938 q 828 704 842 799 q 760 542 813 613 q 628 434 708 472 q 449 396 549 396 l 275 396 l 213 0 l 50 0 m 299 542 l 471 542 q 599 586 547 542 q 663 704 651 631 q 637 824 675 781 q 524 868 599 868 l 350 868 l 299 542 z "},"С":{"ha":833,"x_min":75,"x_max":807,"o":"m 358 -14 q 197 22 263 -14 q 103 126 131 58 q 89 283 75 193 l 160 731 q 224 889 175 822 q 351 992 274 956 q 524 1028 428 1028 q 685 991 621 1028 q 778 888 749 954 q 792 731 807 821 l 631 731 q 609 845 643 806 q 501 885 575 885 q 381 845 428 885 q 321 731 333 806 l 251 283 q 274 169 239 210 q 382 129 308 129 q 501 169 454 129 q 560 283 547 210 l 722 283 q 658 127 708 194 q 532 23 608 60 q 358 -14 456 -14 z "},"Т":{"ha":833,"x_min":143,"x_max":867,"o":"m 275 0 l 411 865 l 143 865 l 167 1015 l 867 1015 l 842 865 l 574 865 l 436 0 l 275 0 z "},"У":{"ha":833,"x_min":154,"x_max":879,"o":"m 186 0 l 326 261 l 154 1014 l 326 1014 l 415 556 q 427 472 424 514 q 431 404 431 429 q 453 472 438 429 q 486 556 468 514 l 704 1014 l 879 1014 l 357 0 l 186 0 z "},"Ў":{"ha":833,"x_min":154,"x_max":879,"o":"m 186 0 l 326 261 l 154 1014 l 326 1014 l 415 556 q 427 472 424 514 q 431 404 431 429 q 453 472 438 429 q 486 556 468 514 l 704 1014 l 879 1014 l 357 0 l 186 0 m 532 1115 q 369 1172 426 1115 q 326 1319 313 1228 l 450 1319 q 469 1243 443 1272 q 544 1214 494 1214 q 631 1243 596 1214 q 674 1319 667 1272 l 801 1319 q 713 1172 788 1228 q 532 1115 639 1115 z "},"Ф":{"ha":833,"x_min":42,"x_max":833,"o":"m 281 -35 l 296 63 q 152 99 211 63 q 67 203 93 136 q 56 358 42 269 l 106 672 q 167 831 121 764 q 283 935 213 897 q 440 972 354 972 l 456 1069 l 594 1069 l 579 972 q 724 935 665 972 q 808 831 782 897 q 818 672 833 764 l 769 358 q 708 203 756 269 q 591 99 661 136 q 435 63 521 63 l 419 -35 l 281 -35 m 319 193 l 424 843 q 342 822 379 843 q 281 763 306 801 q 249 672 257 725 l 199 358 q 219 238 188 283 q 319 193 251 193 m 451 193 q 533 213 497 193 q 594 270 569 233 q 625 358 618 307 l 675 672 q 656 797 689 751 q 556 843 624 843 l 451 193 z "},"Х":{"ha":833,"x_min":-18,"x_max":874,"o":"m -18 0 l 347 522 l 160 1014 l 336 1014 l 428 749 q 445 696 436 722 q 458 656 454 669 q 481 696 467 669 q 513 749 494 722 l 692 1014 l 874 1014 l 531 519 l 729 0 l 554 0 l 449 290 q 431 344 439 317 q 418 386 422 371 q 395 344 411 371 q 363 292 379 318 l 165 0 l -18 0 z "},"Ч":{"ha":833,"x_min":111,"x_max":817,"o":"m 494 0 l 556 386 q 491 377 538 382 q 381 372 444 372 q 178 453 246 372 q 133 668 111 533 l 189 1014 l 350 1014 l 296 674 q 323 560 285 603 q 438 518 361 518 q 527 523 490 518 q 578 532 564 528 l 656 1014 l 817 1014 l 656 0 l 494 0 z "},"Ц":{"ha":833,"x_min":53,"x_max":789,"o":"m 553 -194 l 583 0 l 53 0 l 214 1014 l 375 1014 l 238 149 l 489 149 l 626 1014 l 789 1014 l 651 149 l 756 149 l 701 -194 l 553 -194 z "},"Ш":{"ha":833,"x_min":14,"x_max":860,"o":"m 14 0 l 174 1014 l 315 1014 l 172 114 l 315 114 l 457 1014 l 578 1014 l 435 114 l 576 114 l 719 1014 l 860 1014 l 699 0 l 14 0 z "},"Щ":{"ha":833,"x_min":13,"x_max":829,"o":"m 572 -194 l 603 0 l 13 0 l 174 1014 l 306 1014 l 164 121 l 301 121 l 444 1014 l 560 1014 l 417 121 l 556 121 l 697 1014 l 829 1014 l 688 121 l 764 121 l 714 -194 l 572 -194 z "},"Џ":{"ha":833,"x_min":53,"x_max":819,"o":"m 247 -174 l 275 0 l 53 0 l 214 1014 l 375 1014 l 238 150 l 521 150 l 658 1014 l 819 1014 l 658 0 l 436 0 l 408 -174 l 247 -174 z "},"Ь":{"ha":833,"x_min":53,"x_max":778,"o":"m 53 0 l 214 1014 l 375 1014 l 310 607 l 481 607 q 649 569 581 607 q 747 463 717 531 q 763 304 778 396 q 697 144 749 213 q 565 38 644 75 q 385 0 485 0 l 53 0 m 238 143 l 404 143 q 533 187 481 143 q 599 303 586 231 q 571 419 611 376 q 454 463 531 463 l 288 463 l 238 143 z "},"Ъ":{"ha":833,"x_min":71,"x_max":778,"o":"m 111 0 l 250 876 l 71 876 l 93 1014 l 433 1014 l 368 607 l 481 607 q 649 569 581 607 q 747 463 717 531 q 763 304 778 396 q 697 144 749 213 q 565 38 644 75 q 385 0 485 0 l 111 0 m 296 143 l 404 143 q 533 187 481 143 q 599 303 586 231 q 571 419 611 376 q 454 463 531 463 l 346 463 l 296 143 z "},"Ы":{"ha":833,"x_min":14,"x_max":858,"o":"m 14 0 l 175 1014 l 317 1014 l 251 607 l 299 607 q 484 536 424 607 q 525 342 544 465 l 513 263 q 411 70 493 140 q 203 0 329 0 l 14 0 m 176 132 l 224 132 q 324 167 285 132 q 372 264 363 201 l 385 340 q 367 440 394 406 q 278 475 339 475 l 231 475 l 176 132 m 556 0 l 717 1014 l 858 1014 l 697 0 l 556 0 z "},"Љ":{"ha":833,"x_min":-72,"x_max":826,"o":"m -72 -7 l -51 125 l -25 125 q 39 166 11 125 q 79 276 67 207 l 204 1014 l 621 1014 l 556 607 l 606 607 q 771 544 715 607 q 810 372 826 481 l 788 233 q 695 63 771 126 q 510 0 619 0 l 325 0 l 465 889 l 318 889 l 214 276 q 163 126 200 190 q 74 28 126 63 q -43 -7 21 -7 l -72 -7 m 481 125 l 529 125 q 611 154 578 125 q 651 235 644 183 l 674 371 q 658 451 682 422 q 586 481 633 481 l 536 481 l 481 125 z "},"Њ":{"ha":833,"x_min":4,"x_max":828,"o":"m 4 0 l 165 1014 l 301 1014 l 238 613 l 422 613 l 486 1014 l 621 1014 l 557 613 l 607 613 q 774 549 719 613 q 811 378 828 486 l 788 233 q 697 63 771 126 q 510 0 622 0 l 325 0 l 401 488 l 218 488 l 140 0 l 4 0 m 481 125 l 529 125 q 613 154 581 125 q 651 235 644 183 l 675 376 q 659 458 682 429 q 588 488 636 488 l 538 488 l 481 125 z "},"Ѕ":{"ha":833,"x_min":46,"x_max":811,"o":"m 356 -14 q 124 63 203 -14 q 67 269 46 139 l 228 269 q 258 167 218 204 q 381 129 299 129 q 508 166 458 129 q 568 268 558 203 q 553 365 578 325 q 478 421 529 406 l 361 456 q 199 564 251 486 q 164 747 147 642 q 226 896 178 833 q 349 994 274 958 q 521 1029 425 1029 q 738 953 665 1029 q 792 751 811 878 l 631 751 q 606 850 640 814 q 497 886 572 886 q 381 852 426 886 q 328 758 336 818 q 341 660 318 701 q 415 604 364 619 l 535 568 q 697 459 646 536 q 731 274 747 382 q 666 122 718 186 q 535 22 614 57 q 356 -14 456 -14 z "},"Є":{"ha":833,"x_min":76,"x_max":806,"o":"m 358 -14 q 197 22 263 -14 q 104 126 132 58 q 90 283 76 193 l 161 731 q 225 889 176 822 q 351 992 274 956 q 524 1028 428 1028 q 685 991 621 1028 q 777 888 749 954 q 790 731 806 821 l 629 731 q 608 846 642 806 q 501 886 575 886 q 383 846 429 886 q 322 731 336 806 l 300 585 l 600 585 l 578 438 l 278 438 l 253 283 q 274 169 240 210 q 382 128 308 128 q 500 169 454 128 q 558 283 546 210 l 721 283 q 657 127 707 194 q 531 23 607 60 q 358 -14 456 -14 z "},"Э":{"ha":833,"x_min":67,"x_max":796,"o":"m 347 -14 q 187 23 251 -14 q 94 127 122 60 q 81 283 67 194 l 243 283 q 264 169 231 210 q 371 128 297 128 q 490 169 443 128 q 549 283 536 210 l 574 438 l 274 438 l 296 585 l 596 585 l 619 731 q 598 846 632 806 q 490 886 564 886 q 372 846 418 886 q 314 731 326 806 l 151 731 q 215 888 165 821 q 340 991 264 954 q 513 1028 417 1028 q 674 992 610 1028 q 767 889 739 956 q 781 731 796 822 l 711 283 q 647 126 697 193 q 521 22 597 58 q 347 -14 444 -14 z "},"І":{"ha":833,"x_min":69,"x_max":803,"o":"m 69 0 l 92 143 l 297 143 l 413 871 l 207 871 l 231 1014 l 803 1014 l 781 871 l 575 871 l 460 143 l 665 143 l 642 0 l 69 0 z "},"Ї":{"ha":833,"x_min":69,"x_max":815,"o":"m 69 0 l 92 143 l 297 143 l 413 871 l 207 871 l 231 1014 l 803 1014 l 781 871 l 575 871 l 460 143 l 665 143 l 642 0 l 69 0 m 694 1125 q 626 1151 649 1125 q 611 1222 604 1178 q 649 1294 618 1268 q 726 1321 681 1321 q 793 1294 771 1321 q 808 1222 815 1268 q 772 1151 803 1178 q 694 1125 740 1125 m 372 1125 q 306 1151 328 1125 q 289 1222 283 1178 q 328 1294 297 1268 q 404 1321 358 1321 q 472 1294 450 1321 q 486 1222 494 1268 q 449 1151 481 1178 q 372 1125 418 1125 z "},"Ј":{"ha":833,"x_min":10,"x_max":803,"o":"m 311 -14 q 85 70 160 -14 q 33 297 10 154 l 194 297 q 220 173 183 218 q 335 128 257 128 q 464 172 413 128 q 526 297 515 217 l 617 864 l 381 864 l 404 1014 l 803 1014 l 689 297 q 623 131 675 201 q 492 24 571 61 q 311 -14 413 -14 z "},"Ћ":{"ha":833,"x_min":76,"x_max":792,"o":"m 86 0 l 222 867 l 76 867 l 100 1014 l 569 1014 l 544 867 l 385 867 l 338 565 l 361 586 q 588 688 474 688 q 741 615 690 688 q 772 422 792 543 l 707 0 l 544 0 l 608 404 q 598 512 619 475 q 526 549 576 549 q 456 531 493 549 q 378 475 419 514 l 314 418 l 247 0 l 86 0 z "},"Ю":{"ha":833,"x_min":10,"x_max":864,"o":"m 478 -14 q 325 56 375 -14 q 293 244 275 125 l 326 457 l 222 457 l 150 0 l 10 0 l 171 1014 l 311 1014 l 243 583 l 347 583 l 376 771 q 467 959 396 890 q 643 1028 539 1028 q 810 959 756 1028 q 844 771 864 890 l 763 244 q 667 56 743 125 q 478 -14 590 -14 m 500 114 q 580 147 549 114 q 621 238 611 179 l 706 776 q 694 867 715 835 q 624 900 672 900 q 544 867 575 900 q 503 776 513 835 l 418 238 q 430 147 408 179 q 500 114 451 114 z "},"Я":{"ha":833,"x_min":6,"x_max":819,"o":"m 6 0 l 318 497 l 321 419 q 203 472 250 431 q 137 575 156 513 q 129 715 118 638 q 194 873 143 806 q 325 977 246 940 q 501 1014 404 1014 l 819 1014 l 658 0 l 497 0 l 563 410 l 429 410 l 179 0 l 6 0 m 428 551 l 585 551 l 635 872 l 479 872 q 356 828 407 872 q 292 711 306 785 q 317 594 281 638 q 428 551 354 551 z "},"Ђ":{"ha":833,"x_min":76,"x_max":792,"o":"m 275 -250 l 299 -97 l 390 -97 q 497 -61 454 -97 q 550 38 540 -25 l 608 404 q 598 512 619 475 q 526 549 576 549 q 456 531 493 549 q 378 475 419 514 l 314 418 l 247 0 l 86 0 l 222 867 l 76 867 l 100 1014 l 569 1014 l 544 867 l 385 867 l 338 565 l 361 586 q 588 688 474 688 q 741 615 690 688 q 772 422 792 543 l 711 26 q 649 -118 699 -56 q 526 -215 600 -181 q 360 -250 451 -250 l 275 -250 z "},"Ү":{"ha":833,"x_min":136,"x_max":897,"o":"m 275 0 l 333 371 l 136 1014 l 301 1014 l 411 646 q 428 571 422 607 q 436 514 435 535 q 461 571 444 535 q 501 646 478 607 l 725 1014 l 897 1014 l 494 371 l 436 0 l 275 0 z "},"Ө":{"ha":833,"x_min":69,"x_max":803,"o":"m 353 -14 q 138 67 207 -14 q 92 288 69 149 l 161 728 q 224 888 176 821 q 346 991 271 954 q 518 1028 421 1028 q 733 947 664 1028 q 781 728 803 865 l 711 288 q 649 128 697 196 q 524 24 600 61 q 353 -14 449 -14 m 376 128 q 499 171 453 128 q 557 290 544 214 l 582 449 l 272 449 l 247 290 q 267 171 235 214 q 376 128 300 128 m 294 588 l 604 588 l 625 724 q 605 844 638 801 q 496 886 572 886 q 374 844 419 886 q 315 724 328 801 l 294 588 z "},"а":{"ha":833,"x_min":67,"x_max":782,"o":"m 293 -14 q 123 65 179 -14 q 89 276 67 143 l 122 488 q 178 642 136 576 q 281 742 219 707 q 419 778 343 778 q 561 725 514 778 q 594 581 608 672 l 564 618 l 601 618 l 621 764 l 782 764 l 661 0 l 503 0 l 526 146 l 490 146 l 532 183 q 452 39 517 92 q 293 -14 388 -14 m 374 126 q 487 168 442 126 q 544 283 532 210 l 575 481 q 555 596 588 554 q 454 638 522 638 q 340 597 383 638 q 282 481 296 556 l 251 283 q 271 167 239 208 q 374 126 303 126 z "},"б":{"ha":833,"x_min":68,"x_max":789,"o":"m 353 -14 q 140 68 211 -12 q 90 288 68 149 l 146 632 q 288 915 175 815 q 579 1014 400 1014 l 789 1014 l 764 856 l 553 856 q 388 798 450 856 q 307 632 325 740 l 293 539 l 313 539 l 290 514 q 363 641 303 594 q 518 688 424 688 q 694 609 639 688 q 728 392 750 531 l 711 288 q 649 126 697 194 q 525 22 600 58 q 353 -14 450 -14 m 376 128 q 492 169 447 128 q 549 288 536 211 l 565 392 q 547 510 579 469 q 443 551 515 551 q 327 511 372 551 q 269 392 282 471 l 253 288 q 272 169 240 211 q 376 128 304 128 z "}}}
